<svg width="56" height="56" viewBox="0 0 56 56" fill="none" xmlns="http://www.w3.org/2000/svg">
<rect width="56" height="56" fill="white"/>
<circle cx="28" cy="28" r="27.5" fill="white" stroke="#1D3A70"/>
<mask id="mask0_315_3892" style="mask-type:alpha" maskUnits="userSpaceOnUse" x="0" y="0" width="56" height="56">
<circle cx="28" cy="28" r="26.5" fill="#C4C4C4" stroke="black" stroke-width="3"/>
</mask>
<g mask="url(#mask0_315_3892)">
<path fill-rule="evenodd" clip-rule="evenodd" d="M28.0002 14.4962C22.3769 14.4962 17.8184 19.0548 17.8184 24.678V25.7144C16.7865 25.8875 16.0002 26.7849 16.0002 27.866V30.3595C16.0002 31.4625 16.8186 32.3743 17.8813 32.5208C18.2787 36.0915 20.5226 39.1048 23.6365 40.5841V43.9312C15.9353 44.3457 9.81836 50.7217 9.81836 58.5263H46.182C46.182 50.7217 40.065 44.3457 32.3638 43.9312V40.5841C35.4777 39.1048 37.7217 36.0915 38.119 32.5208C39.1817 32.3743 40.0002 31.4625 40.0002 30.3595V27.866C40.0002 26.7849 39.2139 25.8875 38.182 25.7144V24.678C38.182 19.0548 33.6234 14.4962 28.0002 14.4962Z" fill="#D0C6AC"/>
<mask id="mask1_315_3892" style="mask-type:luminance" maskUnits="userSpaceOnUse" x="9" y="14" width="38" height="45">
<path fill-rule="evenodd" clip-rule="evenodd" d="M28.0002 14.4962C22.3769 14.4962 17.8184 19.0548 17.8184 24.678V25.7144C16.7865 25.8875 16.0002 26.7849 16.0002 27.866V30.3595C16.0002 31.4625 16.8186 32.3743 17.8813 32.5208C18.2787 36.0915 20.5226 39.1048 23.6365 40.5841V43.9312C15.9353 44.3457 9.81836 50.7217 9.81836 58.5263H46.182C46.182 50.7217 40.065 44.3457 32.3638 43.9312V40.5841C35.4777 39.1048 37.7217 36.0915 38.119 32.5208C39.1817 32.3743 40.0002 31.4625 40.0002 30.3595V27.866C40.0002 26.7849 39.2139 25.8875 38.182 25.7144V24.678C38.182 19.0548 33.6234 14.4962 28.0002 14.4962Z" fill="white"/>
</mask>
<g mask="url(#mask1_315_3892)">
<rect width="48" height="44.0301" transform="translate(4 14.4962)" fill="#FFCCD7"/>
<rect x="4" y="14.4962" width="48" height="44.0301" fill="#FFCCD7"/>
<path fill-rule="evenodd" clip-rule="evenodd" d="M17.8184 31.3821V32.8257C17.8184 38.449 22.3769 43.0075 28.0002 43.0075C33.6234 43.0075 38.182 38.449 38.182 32.8257V31.3821C38.182 37.0054 33.6234 41.5639 28.0002 41.5639C22.3769 41.5639 17.8184 37.0053 17.8184 31.3821Z" fill="black" fill-opacity="0.1"/>
</g>
<path fill-rule="evenodd" clip-rule="evenodd" d="M28.0911 50.5553C33.0616 50.5553 37.0911 48.1736 37.0911 45.2356C37.0911 45.1542 37.088 45.0733 37.0819 44.9928C42.4195 47.167 46.182 52.4073 46.182 58.5263H9.81836C9.81836 52.3355 13.6696 47.0443 19.1069 44.9176C19.0964 45.0228 19.0911 45.1288 19.0911 45.2356C19.0911 48.1736 23.1205 50.5553 28.0911 50.5553Z" fill="white"/>
<mask id="mask2_315_3892" style="mask-type:luminance" maskUnits="userSpaceOnUse" x="9" y="44" width="38" height="15">
<path fill-rule="evenodd" clip-rule="evenodd" d="M28.0911 50.5553C33.0616 50.5553 37.0911 48.1736 37.0911 45.2356C37.0911 45.1542 37.088 45.0733 37.0819 44.9928C42.4195 47.167 46.182 52.4073 46.182 58.5263H9.81836C9.81836 52.3355 13.6696 47.0443 19.1069 44.9176C19.0964 45.0228 19.0911 45.1288 19.0911 45.2356C19.0911 48.1736 23.1205 50.5553 28.0911 50.5553Z" fill="white"/>
</mask>
<g mask="url(#mask2_315_3892)">
<rect x="4" y="38.6767" width="48" height="19.8496" fill="white"/>
</g>
<path fill-rule="evenodd" clip-rule="evenodd" d="M25.4551 34.8872C25.4551 36.2825 26.5947 37.4135 28.0005 37.4135C29.4063 37.4135 30.546 36.2825 30.546 34.8872" fill="#0C092A"/>
<g opacity="0.3">
<path fill-rule="evenodd" clip-rule="evenodd" d="M25.8184 31.4586C25.8184 32.2559 26.7952 32.9022 28.0002 32.9022C29.2052 32.9022 30.182 32.2559 30.182 31.4586" fill="#0C092A"/>
</g>
<ellipse cx="23.273" cy="28.2105" rx="1.09091" ry="1.08271" fill="#0C092A"/>
<ellipse cx="32.7276" cy="28.2105" rx="1.09091" ry="1.08271" fill="#0C092A"/>
<path d="M20.6601 25.8933C21.3719 24.8992 23.3233 24.3418 25.0042 24.7515C25.1993 24.799 25.3962 24.6806 25.4441 24.4871C25.492 24.2935 25.3727 24.098 25.1777 24.0505C23.2255 23.5747 20.9659 24.2202 20.0673 25.4751C19.9509 25.6376 19.9893 25.8629 20.153 25.9784C20.3167 26.0938 20.5437 26.0557 20.6601 25.8933Z" fill="#0C092A"/>
<path d="M35.3399 25.8933C34.6281 24.8992 32.6767 24.3418 30.9958 24.7515C30.8008 24.799 30.6038 24.6806 30.5559 24.4871C30.508 24.2935 30.6273 24.098 30.8223 24.0505C32.7745 23.5747 35.0341 24.2202 35.9327 25.4751C36.0491 25.6376 36.0107 25.8629 35.847 25.9784C35.6833 26.0938 35.4563 26.0557 35.3399 25.8933Z" fill="#0C092A"/>
<mask id="mask3_315_3892" style="mask-type:luminance" maskUnits="userSpaceOnUse" x="4" y="8" width="48" height="51">
<rect x="4" y="8" width="48" height="50.5263" fill="white"/>
</mask>
<g mask="url(#mask3_315_3892)">
<path fill-rule="evenodd" clip-rule="evenodd" d="M11.0911 34.1654C10.9789 28.6011 16.24 16.9856 18.182 14.6767C19.6226 12.964 23.5812 11.528 28.0002 11.609C32.4193 11.6901 36.5206 12.6579 38.0002 14.4963C40.241 17.2802 44.8854 27.8638 44.9093 34.1654C44.9263 38.6406 43.1752 43.1266 40.7275 43.3684C39.3455 43.505 37.5899 43.3277 35.4805 43.1148L35.4803 43.1148L35.4802 43.1148L35.48 43.1147L35.4798 43.1147C34.5146 43.0173 33.4753 42.9124 32.3638 42.8266V40.5841C35.8037 38.95 38.182 35.4438 38.182 31.3821V26.3273C36.2714 25.2826 34.6449 24.0214 33.2898 22.7399C33.8999 23.866 34.5977 24.8885 35.3845 25.6613C29.824 24.1129 25.9801 20.942 23.6765 18.4559C22.6175 20.4552 20.7208 23.379 17.8184 25.6062V31.3821C17.8184 35.4438 20.1966 38.95 23.6365 40.5841V42.9617C22.3724 43.1334 21.1974 43.3514 20.1162 43.5519C18.1437 43.9178 16.483 44.2259 15.161 44.0903C12.5751 43.8251 11.1813 38.6398 11.0911 34.1654Z" fill="#E6E6E6"/>
<mask id="mask4_315_3892" style="mask-type:luminance" maskUnits="userSpaceOnUse" x="11" y="11" width="34" height="34">
<path fill-rule="evenodd" clip-rule="evenodd" d="M11.0911 34.1654C10.9789 28.6011 16.24 16.9856 18.182 14.6767C19.6226 12.964 23.5812 11.528 28.0002 11.609C32.4193 11.6901 36.5206 12.6579 38.0002 14.4963C40.241 17.2802 44.8854 27.8638 44.9093 34.1654C44.9263 38.6406 43.1752 43.1266 40.7275 43.3684C39.3455 43.505 37.5899 43.3277 35.4805 43.1148L35.4803 43.1148L35.4802 43.1148L35.48 43.1147L35.4798 43.1147C34.5146 43.0173 33.4753 42.9124 32.3638 42.8266V40.5841C35.8037 38.95 38.182 35.4438 38.182 31.3821V26.3273C36.2714 25.2826 34.6449 24.0214 33.2898 22.7399C33.8999 23.866 34.5977 24.8885 35.3845 25.6613C29.824 24.1129 25.9801 20.942 23.6765 18.4559C22.6175 20.4552 20.7208 23.379 17.8184 25.6062V31.3821C17.8184 35.4438 20.1966 38.95 23.6365 40.5841V42.9617C22.3724 43.1334 21.1974 43.3514 20.1162 43.5519C18.1437 43.9178 16.483 44.2259 15.161 44.0903C12.5751 43.8251 11.1813 38.6398 11.0911 34.1654Z" fill="white"/>
</mask>
<g mask="url(#mask4_315_3892)">
<rect x="3.81836" y="8" width="48.3636" height="50.5263" fill="#0C092A"/>
</g>
</g>
</g>
</svg>
