<svg width="67" height="11" viewBox="0 0 67 11" fill="none" xmlns="http://www.w3.org/2000/svg">
<path d="M4.80552 10.14C3.93752 10.14 3.20952 10.014 2.62152 9.762C2.04286 9.50067 1.59952 9.16467 1.29152 8.754C0.992857 8.334 0.83419 7.89533 0.815523 7.438C0.815523 7.354 0.843523 7.284 0.899523 7.228C0.955523 7.172 1.02552 7.144 1.10952 7.144H2.35552C2.47686 7.144 2.56552 7.172 2.62152 7.228C2.68686 7.27467 2.74286 7.33533 2.78952 7.41C2.84552 7.58733 2.95286 7.76467 3.11152 7.942C3.27019 8.11 3.48486 8.25 3.75552 8.362C4.03552 8.474 4.38552 8.53 4.80552 8.53C5.47752 8.53 5.97686 8.418 6.30352 8.194C6.63952 7.97 6.80752 7.66667 6.80752 7.284C6.80752 7.01333 6.71886 6.79867 6.54152 6.64C6.36419 6.472 6.08886 6.32267 5.71552 6.192C5.35152 6.052 4.86619 5.90733 4.25952 5.758C3.55952 5.59 2.97152 5.38933 2.49552 5.156C2.02886 4.91333 1.67419 4.61 1.43152 4.246C1.19819 3.882 1.08152 3.42 1.08152 2.86C1.08152 2.31867 1.22619 1.838 1.51552 1.418C1.81419 0.997999 2.23419 0.666666 2.77552 0.424C3.32619 0.181333 3.97952 0.0599995 4.73552 0.0599995C5.34219 0.0599995 5.87886 0.143999 6.34552 0.312C6.81219 0.470666 7.19952 0.685333 7.50752 0.956C7.81552 1.21733 8.04886 1.502 8.20752 1.81C8.37552 2.10867 8.46419 2.40267 8.47352 2.692C8.47352 2.76667 8.44552 2.83667 8.38952 2.902C8.34286 2.958 8.27286 2.986 8.17952 2.986H6.87752C6.80286 2.986 6.72819 2.96733 6.65352 2.93C6.57886 2.89267 6.51819 2.82267 6.47152 2.72C6.41552 2.43067 6.23352 2.18333 5.92552 1.978C5.61752 1.77267 5.22086 1.67 4.73552 1.67C4.23152 1.67 3.82552 1.76333 3.51752 1.95C3.20952 2.13667 3.05552 2.426 3.05552 2.818C3.05552 3.07933 3.13019 3.29867 3.27952 3.476C3.43819 3.644 3.68552 3.79333 4.02152 3.924C4.36686 4.05467 4.81952 4.19467 5.37952 4.344C6.17286 4.52133 6.82152 4.72667 7.32552 4.96C7.82952 5.19333 8.19819 5.492 8.43152 5.856C8.66486 6.21067 8.78152 6.66333 8.78152 7.214C8.78152 7.83 8.61352 8.35733 8.27752 8.796C7.95086 9.22533 7.48886 9.55667 6.89152 9.79C6.29419 10.0233 5.59886 10.14 4.80552 10.14ZM13.5079 10C12.9479 10 12.4766 9.902 12.0939 9.706C11.7113 9.51 11.4266 9.22067 11.2399 8.838C11.0533 8.446 10.9599 7.96067 10.9599 7.382V4.204H9.85395C9.76061 4.204 9.68128 4.17133 9.61595 4.106C9.55061 4.04067 9.51795 3.96133 9.51795 3.868V3.056C9.51795 2.96267 9.55061 2.88333 9.61595 2.818C9.68128 2.75267 9.76061 2.72 9.85395 2.72H10.9599V0.395999C10.9599 0.302666 10.9879 0.223333 11.0439 0.158C11.1093 0.0926663 11.1933 0.0599995 11.2959 0.0599995H12.4299C12.5233 0.0599995 12.6026 0.0926663 12.6679 0.158C12.7333 0.223333 12.7659 0.302666 12.7659 0.395999V2.72H14.5159C14.6093 2.72 14.6886 2.75267 14.7539 2.818C14.8193 2.88333 14.8519 2.96267 14.8519 3.056V3.868C14.8519 3.96133 14.8193 4.04067 14.7539 4.106C14.6886 4.17133 14.6093 4.204 14.5159 4.204H12.7659V7.242C12.7659 7.62467 12.8313 7.92333 12.9619 8.138C13.1019 8.35267 13.3399 8.46 13.6759 8.46H14.6419C14.7353 8.46 14.8146 8.49267 14.8799 8.558C14.9453 8.62333 14.9779 8.70267 14.9779 8.796V9.664C14.9779 9.75733 14.9453 9.83667 14.8799 9.902C14.8146 9.96733 14.7353 10 14.6419 10H13.5079ZM18.3339 10.14C17.8486 10.14 17.4099 10.0467 17.0179 9.86C16.6259 9.664 16.3132 9.40733 16.0799 9.09C15.8559 8.76333 15.7439 8.39933 15.7439 7.998C15.7439 7.34467 16.0052 6.82667 16.5279 6.444C17.0599 6.052 17.7599 5.79067 18.6279 5.66L20.5459 5.38V5.086C20.5459 4.694 20.4479 4.39067 20.2519 4.176C20.0559 3.96133 19.7199 3.854 19.2439 3.854C18.9079 3.854 18.6326 3.924 18.4179 4.064C18.2126 4.19467 18.0586 4.372 17.9559 4.596C17.8812 4.71733 17.7739 4.778 17.6339 4.778H16.5279C16.4252 4.778 16.3459 4.75 16.2899 4.694C16.2432 4.638 16.2199 4.56333 16.2199 4.47C16.2292 4.32067 16.2899 4.13867 16.4019 3.924C16.5139 3.70933 16.6912 3.504 16.9339 3.308C17.1766 3.10267 17.4892 2.93 17.8719 2.79C18.2546 2.65 18.7166 2.58 19.2579 2.58C19.8459 2.58 20.3406 2.65467 20.7419 2.804C21.1526 2.944 21.4792 3.13533 21.7219 3.378C21.9646 3.62067 22.1419 3.90533 22.2539 4.232C22.3659 4.55867 22.4219 4.904 22.4219 5.268V9.664C22.4219 9.75733 22.3892 9.83667 22.3239 9.902C22.2586 9.96733 22.1792 10 22.0859 10H20.9519C20.8492 10 20.7652 9.96733 20.6999 9.902C20.6439 9.83667 20.6159 9.75733 20.6159 9.664V9.118C20.4946 9.29533 20.3312 9.46333 20.1259 9.622C19.9206 9.77133 19.6686 9.89733 19.3699 10C19.0806 10.0933 18.7352 10.14 18.3339 10.14ZM18.8099 8.81C19.1366 8.81 19.4306 8.74 19.6919 8.6C19.9626 8.46 20.1726 8.24533 20.3219 7.956C20.4806 7.65733 20.5599 7.284 20.5599 6.836V6.542L19.1599 6.766C18.6092 6.85 18.1986 6.98533 17.9279 7.172C17.6572 7.35867 17.5219 7.58733 17.5219 7.858C17.5219 8.06333 17.5826 8.24067 17.7039 8.39C17.8346 8.53 17.9979 8.63733 18.1939 8.712C18.3899 8.77733 18.5952 8.81 18.8099 8.81ZM24.5539 10C24.4606 10 24.3813 9.96733 24.3159 9.902C24.2506 9.83667 24.2179 9.75733 24.2179 9.664V3.07C24.2179 2.96733 24.2506 2.88333 24.3159 2.818C24.3813 2.75267 24.4606 2.72 24.5539 2.72H25.6879C25.7813 2.72 25.8606 2.75267 25.9259 2.818C26.0006 2.88333 26.0379 2.96733 26.0379 3.07V3.644C26.2526 3.34533 26.5279 3.11667 26.8639 2.958C27.2093 2.79933 27.6059 2.72 28.0539 2.72H28.6279C28.7306 2.72 28.8099 2.75267 28.8659 2.818C28.9313 2.88333 28.9639 2.96267 28.9639 3.056V4.064C28.9639 4.15733 28.9313 4.23667 28.8659 4.302C28.8099 4.36733 28.7306 4.4 28.6279 4.4H27.5359C27.0879 4.4 26.7379 4.526 26.4859 4.778C26.2433 5.03 26.1219 5.37533 26.1219 5.814V9.664C26.1219 9.75733 26.0893 9.83667 26.0239 9.902C25.9586 9.96733 25.8746 10 25.7719 10H24.5539ZM33.3458 10C32.7858 10 32.3145 9.902 31.9318 9.706C31.5492 9.51 31.2645 9.22067 31.0778 8.838C30.8912 8.446 30.7978 7.96067 30.7978 7.382V4.204H29.6918C29.5985 4.204 29.5192 4.17133 29.4538 4.106C29.3885 4.04067 29.3558 3.96133 29.3558 3.868V3.056C29.3558 2.96267 29.3885 2.88333 29.4538 2.818C29.5192 2.75267 29.5985 2.72 29.6918 2.72H30.7978V0.395999C30.7978 0.302666 30.8258 0.223333 30.8818 0.158C30.9472 0.0926663 31.0312 0.0599995 31.1338 0.0599995H32.2678C32.3612 0.0599995 32.4405 0.0926663 32.5058 0.158C32.5712 0.223333 32.6038 0.302666 32.6038 0.395999V2.72H34.3538C34.4472 2.72 34.5265 2.75267 34.5918 2.818C34.6572 2.88333 34.6898 2.96267 34.6898 3.056V3.868C34.6898 3.96133 34.6572 4.04067 34.5918 4.106C34.5265 4.17133 34.4472 4.204 34.3538 4.204H32.6038V7.242C32.6038 7.62467 32.6692 7.92333 32.7998 8.138C32.9398 8.35267 33.1778 8.46 33.5138 8.46H34.4798C34.5732 8.46 34.6525 8.49267 34.7178 8.558C34.7832 8.62333 34.8158 8.70267 34.8158 8.796V9.664C34.8158 9.75733 34.7832 9.83667 34.7178 9.902C34.6525 9.96733 34.5732 10 34.4798 10H33.3458ZM41.5752 10C41.4819 10 41.4025 9.96733 41.3372 9.902C41.2719 9.83667 41.2392 9.75733 41.2392 9.664V1.922H38.6492C38.5559 1.922 38.4765 1.88933 38.4112 1.824C38.3459 1.75867 38.3132 1.67933 38.3132 1.586V0.55C38.3132 0.447333 38.3459 0.363333 38.4112 0.298C38.4765 0.232666 38.5559 0.199999 38.6492 0.199999H45.7892C45.8919 0.199999 45.9759 0.232666 46.0412 0.298C46.1065 0.363333 46.1392 0.447333 46.1392 0.55V1.586C46.1392 1.67933 46.1065 1.75867 46.0412 1.824C45.9759 1.88933 45.8919 1.922 45.7892 1.922H43.2132V9.664C43.2132 9.75733 43.1805 9.83667 43.1152 9.902C43.0499 9.96733 42.9659 10 42.8632 10H41.5752ZM49.2426 10.14C48.2066 10.14 47.3853 9.84133 46.7786 9.244C46.172 8.64667 45.8453 7.79733 45.7986 6.696C45.7893 6.60267 45.7846 6.486 45.7846 6.346C45.7846 6.19667 45.7893 6.08 45.7986 5.996C45.836 5.296 45.9946 4.68933 46.2746 4.176C46.564 3.66267 46.9606 3.27067 47.4646 3C47.9686 2.72 48.5613 2.58 49.2426 2.58C49.9986 2.58 50.6333 2.73867 51.1466 3.056C51.66 3.364 52.0473 3.798 52.3086 4.358C52.57 4.90867 52.7006 5.548 52.7006 6.276V6.57C52.7006 6.66333 52.668 6.74267 52.6026 6.808C52.5373 6.87333 52.4533 6.906 52.3506 6.906H47.7026C47.7026 6.906 47.7026 6.92 47.7026 6.948C47.7026 6.976 47.7026 6.99933 47.7026 7.018C47.712 7.34467 47.7726 7.648 47.8846 7.928C48.006 8.19867 48.1786 8.418 48.4026 8.586C48.636 8.754 48.9113 8.838 49.2286 8.838C49.49 8.838 49.7093 8.80067 49.8866 8.726C50.064 8.642 50.2086 8.54867 50.3206 8.446C50.4326 8.34333 50.512 8.25933 50.5586 8.194C50.6426 8.082 50.708 8.01667 50.7546 7.998C50.8106 7.97 50.89 7.956 50.9926 7.956H52.1966C52.29 7.956 52.3646 7.984 52.4206 8.04C52.486 8.096 52.514 8.166 52.5046 8.25C52.4953 8.39933 52.416 8.58133 52.2666 8.796C52.1266 9.01067 51.9213 9.22067 51.6506 9.426C51.38 9.63133 51.0393 9.804 50.6286 9.944C50.2273 10.0747 49.7653 10.14 49.2426 10.14ZM47.7026 5.73H50.7966V5.688C50.7966 5.324 50.736 5.00667 50.6146 4.736C50.4933 4.46533 50.316 4.25067 50.0826 4.092C49.8493 3.93333 49.5693 3.854 49.2426 3.854C48.916 3.854 48.636 3.93333 48.4026 4.092C48.1693 4.25067 47.992 4.46533 47.8706 4.736C47.7586 5.00667 47.7026 5.324 47.7026 5.688V5.73ZM56.9447 10.14C56.3847 10.14 55.904 10.0747 55.5027 9.944C55.1107 9.81333 54.7887 9.65 54.5367 9.454C54.2847 9.258 54.098 9.062 53.9767 8.866C53.8554 8.67 53.79 8.50667 53.7807 8.376C53.7714 8.27333 53.7994 8.194 53.8647 8.138C53.9394 8.07267 54.0187 8.04 54.1027 8.04H55.2087C55.246 8.04 55.2787 8.04467 55.3067 8.054C55.3347 8.06333 55.372 8.09133 55.4187 8.138C55.54 8.24067 55.666 8.348 55.7967 8.46C55.9367 8.572 56.1 8.67 56.2867 8.754C56.4734 8.82867 56.7067 8.866 56.9867 8.866C57.3507 8.866 57.654 8.796 57.8967 8.656C58.1487 8.50667 58.2747 8.29667 58.2747 8.026C58.2747 7.83 58.2187 7.67133 58.1067 7.55C58.004 7.42867 57.808 7.32133 57.5187 7.228C57.2294 7.12533 56.8187 7.018 56.2867 6.906C55.764 6.78467 55.33 6.63067 54.9847 6.444C54.6394 6.25733 54.3827 6.024 54.2147 5.744C54.0467 5.464 53.9627 5.13733 53.9627 4.764C53.9627 4.4 54.07 4.05467 54.2847 3.728C54.5087 3.392 54.8354 3.11667 55.2647 2.902C55.7034 2.68733 56.2447 2.58 56.8887 2.58C57.3927 2.58 57.8314 2.64533 58.2047 2.776C58.578 2.89733 58.886 3.05133 59.1287 3.238C59.3807 3.42467 59.572 3.616 59.7027 3.812C59.8334 3.99867 59.9034 4.162 59.9127 4.302C59.922 4.40467 59.894 4.48867 59.8287 4.554C59.7634 4.61 59.6887 4.638 59.6047 4.638H58.5687C58.522 4.638 58.48 4.62867 58.4427 4.61C58.4054 4.59133 58.368 4.568 58.3307 4.54C58.228 4.44667 58.116 4.34867 57.9947 4.246C57.8734 4.14333 57.724 4.05467 57.5467 3.98C57.3787 3.896 57.1547 3.854 56.8747 3.854C56.52 3.854 56.2494 3.93333 56.0627 4.092C55.876 4.24133 55.7827 4.43267 55.7827 4.666C55.7827 4.82467 55.8247 4.96467 55.9087 5.086C56.002 5.198 56.184 5.30533 56.4547 5.408C56.7254 5.51067 57.136 5.618 57.6867 5.73C58.312 5.842 58.8067 6.01 59.1707 6.234C59.544 6.44867 59.8054 6.70067 59.9547 6.99C60.1134 7.27 60.1927 7.58267 60.1927 7.928C60.1927 8.348 60.0667 8.726 59.8147 9.062C59.572 9.398 59.208 9.664 58.7227 9.86C58.2467 10.0467 57.654 10.14 56.9447 10.14ZM64.9005 10C64.3405 10 63.8692 9.902 63.4865 9.706C63.1039 9.51 62.8192 9.22067 62.6325 8.838C62.4459 8.446 62.3525 7.96067 62.3525 7.382V4.204H61.2465C61.1532 4.204 61.0739 4.17133 61.0085 4.106C60.9432 4.04067 60.9105 3.96133 60.9105 3.868V3.056C60.9105 2.96267 60.9432 2.88333 61.0085 2.818C61.0739 2.75267 61.1532 2.72 61.2465 2.72H62.3525V0.395999C62.3525 0.302666 62.3805 0.223333 62.4365 0.158C62.5019 0.0926663 62.5859 0.0599995 62.6885 0.0599995H63.8225C63.9159 0.0599995 63.9952 0.0926663 64.0605 0.158C64.1259 0.223333 64.1585 0.302666 64.1585 0.395999V2.72H65.9085C66.0019 2.72 66.0812 2.75267 66.1465 2.818C66.2119 2.88333 66.2445 2.96267 66.2445 3.056V3.868C66.2445 3.96133 66.2119 4.04067 66.1465 4.106C66.0812 4.17133 66.0019 4.204 65.9085 4.204H64.1585V7.242C64.1585 7.62467 64.2239 7.92333 64.3545 8.138C64.4945 8.35267 64.7325 8.46 65.0685 8.46H66.0345C66.1279 8.46 66.2072 8.49267 66.2725 8.558C66.3379 8.62333 66.3705 8.70267 66.3705 8.796V9.664C66.3705 9.75733 66.3379 9.83667 66.2725 9.902C66.2072 9.96733 66.1279 10 66.0345 10H64.9005Z" fill="#1D3A70"/>
</svg>
