<svg width="22" height="20" viewBox="0 0 22 20" fill="none" xmlns="http://www.w3.org/2000/svg">
<g clip-path="url(#clip0_315_3977)">
<path d="M10.7145 13.3333C12.6869 13.3333 14.2859 11.8409 14.2859 9.99999C14.2859 8.15904 12.6869 6.66666 10.7145 6.66666C8.74205 6.66666 7.14307 8.15904 7.14307 9.99999C7.14307 11.8409 8.74205 13.3333 10.7145 13.3333Z" stroke="#1D3A70" stroke-width="1.5" stroke-linecap="round" stroke-linejoin="round"/>
<path d="M5.62514 14.75L5.00014 15.3333M2.67871 10H3.57157H2.67871ZM10.7144 2.5V3.33333V2.5ZM17.8573 10H18.7501H17.8573ZM10.7144 16.6667V17.5V16.6667ZM5.00014 4.66667L5.62514 5.25L5.00014 4.66667ZM16.4287 4.66667L15.8037 5.25L16.4287 4.66667ZM15.8037 14.75L16.4287 15.3333L15.8037 14.75Z" stroke="#1D3A70" stroke-width="1.5" stroke-linecap="round" stroke-linejoin="round"/>
</g>
<defs>
<clipPath id="clip0_315_3977">
<rect width="21.4286" height="20" fill="white"/>
</clipPath>
</defs>
</svg>
