<svg width="64" height="56" viewBox="0 0 64 56" fill="none" xmlns="http://www.w3.org/2000/svg">
<path d="M63.7972 30.7504C63.4067 34.8009 62.134 38.7169 60.0687 42.2237C58.0045 45.7304 55.1981 48.743 51.846 51.0502C48.4939 53.3574 44.6772 54.9034 40.664 55.5797C36.6521 56.2559 32.5401 56.0462 28.6164 54.965C24.6938 53.8838 21.0547 51.9574 17.9543 49.321C14.8551 46.6847 12.3686 43.402 10.6714 39.7034C8.97534 36.0047 8.10731 31.9795 8.13084 27.9103C8.15436 23.8409 9.06708 19.8259 10.8067 16.1469C15.6949 5.83653 26.6557 -0.818308 38.6716 0.32847C54.0137 1.79164 65.2639 15.413 63.7972 30.7504Z" fill="#C4D0FB"/>
<path d="M8.92465 13.8464L9.6433 12.5396C9.94557 11.8873 10.2137 11.2199 10.4478 10.5401C10.8101 9.47332 10.683 7.95251 12.2697 6.51639C13.8564 5.08028 11.5099 5.47665 10.7171 6.13884C10.0561 6.69047 9.51862 8.25597 8.86114 8.60882C8.71058 8.39629 8.59179 8.1634 8.50828 7.91723L7.07099 1.18241C7.04982 1.07455 6.99101 0.977754 6.90515 0.909888C6.81811 0.84214 6.7099 0.807678 6.60051 0.813088L6.33705 0.821322C6.27354 0.824733 6.2112 0.841434 6.15357 0.870368C6.09711 0.899303 6.04653 0.939763 6.00654 0.98928C5.96538 1.0388 5.93597 1.0962 5.91951 1.15783C5.90186 1.21946 5.89833 1.28391 5.90774 1.34707C6.12887 2.7879 6.89691 7.07508 6.81928 7.07743L6.6605 7.15271L4.45634 0.330854C4.42575 0.223116 4.35636 0.13055 4.26227 0.0705648C4.167 0.0106972 4.05408 -0.0122384 3.94352 0.0062277L3.59067 0.0650368C3.5295 0.0746815 3.4707 0.0966761 3.41894 0.129844C3.36601 0.162895 3.32132 0.206296 3.28603 0.25746C3.25193 0.308506 3.22723 0.366257 3.21546 0.427066C3.2037 0.487757 3.20488 0.550329 3.21782 0.610785C3.55656 2.17981 5.14087 7.40088 5.06089 7.40559L4.86682 7.47145L2.47565 1.82578C2.44271 1.71334 2.36744 1.61795 2.26511 1.55926C2.16396 1.50057 2.04399 1.48316 1.9299 1.51056L1.64879 1.57996C1.58998 1.59431 1.5347 1.62007 1.48648 1.6557C1.43825 1.69134 1.39709 1.73627 1.36533 1.78779C1.33475 1.83942 1.31358 1.89659 1.30417 1.95622C1.29476 2.01573 1.29829 2.07654 1.3124 2.13512L3.46364 7.68905L3.26604 7.81372L1.01248 3.80177C0.968957 3.6985 0.888977 3.61475 0.787825 3.56618C0.68785 3.5176 0.572584 3.50772 0.464375 3.5383L0.33029 3.57829C0.215025 3.61205 0.118578 3.68909 0.0597686 3.79318C0.000959497 3.89727 -0.015507 4.02018 0.0150737 4.1358C0.231491 4.95913 1.30887 6.68694 1.93578 8.48767C2.42625 9.88263 2.46036 11 3.26957 12.689C3.61066 13.4053 4.25991 14.2557 4.61394 14.7297" fill="#FFCCD7"/>
<path d="M49.7898 52.37C44.5593 55.3358 38.5102 56.5325 32.5434 55.7817C26.5778 55.0311 21.0133 52.3731 16.6803 48.2039L17.0166 39.579L6.21929 37.7959C4.62557 37.3581 3.24002 36.3667 2.31202 34.9995C1.38401 33.6323 0.973523 31.9791 1.15465 30.3365L2.03797 13.4066L10.5688 13.9947L10.804 16.1494L12.1225 27.5208C12.1225 27.5208 21.0474 28.637 33.2268 31.755C45.0827 34.7907 48.5748 45.3187 49.7898 52.37Z" fill="#6A5AE0"/>
<path d="M16.899 39.4696L16.9989 36.5303" stroke="#C4D0FB" stroke-linecap="square"/>
<path d="M40.5008 21.1978C43.7705 17.0292 43.3048 11.2052 39.4598 8.18957C35.6161 5.17396 29.8481 6.10867 26.5783 10.2773C23.3085 14.4459 23.7743 20.2699 27.6192 23.2855C31.4642 26.3011 37.231 25.3664 40.5008 21.1978Z" fill="#001833"/>
<path d="M27.6108 35.1259C26.9686 34.6611 26.4958 33.9997 26.2641 33.2421C26.0312 32.4844 26.0524 31.6717 26.3229 30.9269L30.5689 19.2686C30.7136 18.7957 30.9535 18.3572 31.2734 17.9798C31.5922 17.6025 31.9862 17.2941 32.4284 17.0734C32.8719 16.8528 33.3541 16.7246 33.8481 16.6964C34.3421 16.6683 34.8361 16.741 35.3007 16.91C35.7665 17.0791 36.1911 17.341 36.5521 17.6796C36.9121 18.0184 37.2002 18.4268 37.3978 18.8804C37.5954 19.3338 37.6989 19.8227 37.7013 20.3173C37.7036 20.8119 37.606 21.3019 37.4131 21.7574L33.1659 33.4169C32.9718 33.9455 32.659 34.4221 32.2508 34.8094C31.8427 35.1967 31.3499 35.4842 30.8124 35.6494C30.2737 35.8146 29.7044 35.8529 29.1493 35.7615C28.5941 35.6701 28.0672 35.4514 27.6108 35.1224V35.1259Z" fill="#FFCCD7"/>
<path d="M28.3315 28.6251L27.6258 28.3628C26.8049 28.0582 26.0615 27.5764 25.4487 26.9518C24.8347 26.3271 24.3678 25.575 24.0773 24.7489C23.7879 23.9228 23.6844 23.0431 23.7738 22.1723C23.8632 21.3015 24.1432 20.4611 24.5936 19.7108L26.8284 15.9941C27.5494 14.7938 28.6703 13.8859 29.9947 13.4299C31.3179 12.9739 32.7599 12.9989 34.0678 13.5006C35.5427 14.0667 36.7318 15.1955 37.3752 16.6386C38.0174 18.0819 38.0609 19.7213 37.4952 21.1963L35.9661 25.1754C35.4039 26.6398 34.2877 27.8235 32.8575 28.4694C31.4284 29.1152 29.8018 29.1712 28.3315 28.6251Z" fill="#FFCCD7"/>
<path d="M28.8952 18.1028L25.8359 20.5869L27.0368 21.4891" stroke="#24272D" stroke-linecap="square"/>
<path d="M29.6726 19.8577C30.029 19.8577 30.3183 19.5686 30.3183 19.2119C30.3183 18.8553 30.029 18.5662 29.6726 18.5662C29.3162 18.5662 29.0269 18.8553 29.0269 19.2119C29.0269 19.5686 29.3162 19.8577 29.6726 19.8577Z" fill="#24272D"/>
<path d="M26.987 18.4993C27.3434 18.4993 27.6328 18.2102 27.6328 17.8536C27.6328 17.497 27.3434 17.2079 26.987 17.2079C26.6306 17.2079 26.3413 17.497 26.3413 17.8536C26.3413 18.2102 26.6306 18.4993 26.987 18.4993Z" fill="#24272D"/>
<path d="M46.5624 38.5249C46.5624 38.5249 43.5843 45.9807 37.7834 42.6686C28.1799 37.1841 30.1523 29.9717 32.8599 26.6725C33.9385 25.3587 35.4475 24.7765 37.0224 24.299C32.4435 20.2612 34.6948 17.0455 34.6948 17.0455C34.6948 17.0455 22.4484 16.2586 26.4086 10.4494C30.3688 4.64029 37.4423 5.40128 41.192 7.92419C49.9075 13.791 46.9412 19.7707 48.9301 21.9725C60.2061 34.4671 46.5624 38.5249 46.5624 38.5249Z" fill="#001833"/>
<path d="M38.3093 24.8106C39.576 24.0408 39.9783 22.3904 39.2079 21.1244C38.4387 19.8583 36.7885 19.4561 35.5217 20.2257L33.4375 21.4931C32.172 22.2629 31.7697 23.9132 32.5389 25.1794C33.3093 26.4454 34.9595 26.8476 36.2251 26.078L38.3093 24.8106Z" fill="#FFCCD7"/>
<path d="M37.7401 22.1325L34.7832 23.9286" stroke="#24272D" stroke-linecap="square"/>
<path d="M28.8186 23.3087C28.8492 23.7196 28.7163 24.1262 28.4481 24.4388C28.1787 24.7515 27.7977 24.9447 27.386 24.9759C26.9755 25.0071 26.5686 24.8738 26.2569 24.6052C25.944 24.3366 25.7499 23.9548 25.7194 23.5439C25.6535 22.6876 26.5203 22.6959 27.3754 22.63C28.2305 22.5641 28.7527 22.4524 28.8186 23.3087Z" fill="#24272D"/>
</svg>
