<svg width="48" height="48" viewBox="0 0 48 48" fill="none" xmlns="http://www.w3.org/2000/svg">
<path d="M47.8897 26.2817C47.5544 29.7671 46.4606 33.1369 44.6848 36.1549C42.9091 39.1727 40.4944 41.7654 37.6105 43.7511C34.7264 45.7368 31.4429 47.0674 27.99 47.6496C24.5372 48.2318 20.9989 48.0513 17.6233 47.1209C14.2475 46.1906 11.1164 44.5328 8.44925 42.2641C5.78222 39.9952 3.64389 37.1703 2.1844 33.9875C0.724814 30.8047 -0.0206128 27.3411 0.000433566 23.8396C0.02148 20.3381 0.808393 16.8836 2.30603 13.7186C6.51126 4.84671 15.9396 -0.876298 26.2777 0.110252C39.4732 1.36899 49.1494 13.0872 47.8897 26.2817Z" fill="#C4D0FB"/>
<path d="M39.3872 42.4186L38.5534 43.0854C37.6901 43.744 36.7835 44.3437 35.8397 44.8804C33.0442 46.4648 29.9592 47.4718 26.7674 47.8421C23.5756 48.2122 20.3419 47.9379 17.2581 47.0353C14.1742 46.1328 11.303 44.6205 8.81437 42.5878C6.32583 40.5552 4.27057 38.0437 2.77051 35.2021C6.58112 32.4013 12.9608 29.0551 21.1214 29.7381C34.7712 30.8866 39.3872 42.4186 39.3872 42.4186Z" fill="#6A5AE0"/>
<path d="M23.1236 35.4277C22.97 35.4281 22.8166 35.419 22.6642 35.4004C21.6517 35.2798 20.7286 34.762 20.0979 33.9608C19.4671 33.1597 19.1804 32.1409 19.3008 31.1284L21.1222 15.808C21.2429 14.7953 21.7609 13.8721 22.5624 13.2414C22.9593 12.9292 23.4137 12.6982 23.8998 12.5615C24.386 12.4249 24.8942 12.3853 25.3957 12.4451C25.8971 12.5049 26.3818 12.6629 26.8222 12.9101C27.2626 13.1572 27.6499 13.4886 27.9621 13.8854C28.2744 14.2822 28.5055 14.7367 28.6421 15.2228C28.7788 15.7089 28.8184 16.2173 28.7586 16.7186L26.9373 32.039C26.8256 32.9724 26.3761 33.8325 25.6734 34.4569C24.9706 35.0813 24.0636 35.4267 23.1236 35.4277Z" fill="#FFCCD7"/>
<path d="M26.3421 27.6012L27.1577 27.6922C28.106 27.7992 29.0663 27.6958 29.9702 27.3894C30.874 27.083 31.6992 26.5812 32.3871 25.9196C33.0749 25.258 33.6086 24.453 33.9499 23.5617C34.2912 22.6704 34.4319 21.7149 34.362 20.7631L34.016 16.0479C33.904 14.5251 33.2593 13.0903 32.1947 11.9955C31.1302 10.9008 29.7139 10.2161 28.1948 10.0618C26.481 9.88797 24.7685 10.402 23.4337 11.4908C22.0989 12.5797 21.2514 14.1541 21.0775 15.8678L20.608 20.4909C20.4352 22.1923 20.9404 23.8931 22.0139 25.2243C23.0875 26.5555 24.6427 27.4095 26.3421 27.6012Z" fill="#FFCCD7"/>
<path d="M22.5648 22.5894L22.5656 22.5888C23.689 21.8978 24.0394 20.427 23.3483 19.3037L22.6384 18.1498C21.9473 17.0265 20.4765 16.6761 19.3532 17.3671L19.3523 17.3676C18.2291 18.0587 17.8787 19.5295 18.5698 20.6528L19.2797 21.8068C19.9708 22.93 21.4415 23.2804 22.5648 22.5894Z" fill="#FFCCD7"/>
<path d="M19.6216 19.233L21.536 21.2567" stroke="#001833" stroke-width="0.5" stroke-linecap="square"/>
<path d="M31.0052 16.647L31.1398 20.4363L29.792 20.491" stroke="#001833" stroke-width="0.5" stroke-linecap="square"/>
<path d="M26.9902 21.6677C26.8788 21.8736 26.809 22.0996 26.7849 22.3325C26.7608 22.5654 26.7827 22.8008 26.8496 23.0252C26.9164 23.2496 27.0269 23.4587 27.1745 23.6404C27.3221 23.8222 27.5042 23.9731 27.7101 24.0845C27.9161 24.1959 28.1419 24.2657 28.3749 24.2898C28.6078 24.3139 28.8432 24.2919 29.0676 24.225C29.292 24.1583 29.5011 24.0478 29.6828 23.9001C29.8646 23.7525 30.0155 23.5706 30.1269 23.3646C30.5954 22.4974 29.6837 22.1018 28.8115 21.6333C27.9393 21.1648 27.4586 20.8016 26.9902 21.6677Z" fill="#001833"/>
<path d="M23.0662 20.9828L24.8876 14.1417L25.3196 12.5227C25.7256 12.9578 26.2008 13.3227 26.7261 13.6023C28.6324 14.6284 34.3797 14.2196 35.176 10.1894C35.8256 6.90291 32.3358 8.79203 30.5488 8.58662C27.741 8.26283 25.7932 6.61049 21.9482 8.68781C17.3493 11.1759 19.5278 17.2753 19.5278 17.2753C19.5278 17.2753 21.5515 16.4831 23.0662 20.9828Z" fill="#001833"/>
<path opacity="0.4" d="M27.3613 27.7124L24.9258 27.4908L27.1498 29.6612L27.3613 27.7124Z" fill="#24272D"/>
<path d="M28.4096 18.6937C28.7789 18.6937 29.0784 18.3943 29.0784 18.0249C29.0784 17.6555 28.7789 17.3561 28.4096 17.3561C28.0401 17.3561 27.7407 17.6555 27.7407 18.0249C27.7407 18.3943 28.0401 18.6937 28.4096 18.6937Z" fill="#001833"/>
<path d="M32.3993 18.6937C32.7687 18.6937 33.0681 18.3943 33.0681 18.0249C33.0681 17.6555 32.7687 17.3561 32.3993 17.3561C32.0299 17.3561 31.7305 17.6555 31.7305 18.0249C31.7305 18.3943 32.0299 18.6937 32.3993 18.6937Z" fill="#001833"/>
</svg>
