<svg width="119" height="86" viewBox="0 0 119 86" fill="none" xmlns="http://www.w3.org/2000/svg">
<g clip-path="url(#clip0_316_4604)">
<g filter="url(#filter0_d_316_4604)">
<rect width="119" height="86" rx="12" fill="white"/>
</g>
<path fill-rule="evenodd" clip-rule="evenodd" d="M78.298 21.8789C78.8949 24.4516 77.6879 27.1075 75.3823 28.2943C78.0683 29.0365 79.9359 31.5315 79.9399 34.3829V43.5057C79.9399 43.7347 79.7588 43.9203 79.5354 43.9203C79.312 43.9203 79.1309 43.7347 79.1309 43.5057V34.3829C79.1274 31.3608 76.7381 28.9117 73.7896 28.9081H71.7408C68.7924 28.9117 66.4031 31.3608 66.3996 34.3829V36.8472C66.4078 36.8806 66.4121 36.915 66.4123 36.9496C66.4121 36.9844 66.4078 37.0191 66.3996 37.0528V40.2049C66.3996 40.4339 66.2185 40.6195 65.995 40.6195H61.8546C60.4566 40.6217 59.2711 41.6732 59.0682 43.0911H67.3093C68.2832 43.0902 69.0725 42.2812 69.0734 41.2829V34.6813C69.0734 34.4523 69.2545 34.2667 69.4779 34.2667C69.7013 34.2667 69.8824 34.4523 69.8824 34.6813V41.2829C69.8811 42.739 68.7299 43.919 67.3093 43.9203H48.8671C48.6437 43.9203 48.4626 43.7347 48.4626 43.5057C48.4626 43.2767 48.6437 43.0911 48.8671 43.0911H52.2151V37.3642H42.0014C40.9183 37.3633 40.0404 36.4638 40.0391 35.3537V16.0089C40.0412 14.8994 40.9189 14.0009 42.0014 14H70.8088C71.8913 14.0009 72.769 14.8994 72.7712 16.0089V17.4959H72.8767C75.4567 17.4917 77.701 19.3062 78.298 21.8789ZM72.8735 28.0821C75.5019 28.0821 77.6326 25.8981 77.6326 23.2041C77.6326 21.9103 77.1312 20.6696 76.2387 19.7548C75.3462 18.84 74.1357 18.326 72.8735 18.326C70.2451 18.326 68.1144 20.51 68.1144 23.2041C68.1144 25.8981 70.2451 28.0821 72.8735 28.0821ZM40.8481 35.3537V34.4163H65.5905V36.535H42.0014C41.3648 36.535 40.8485 36.0062 40.8481 35.3537ZM46.8323 24.4317C47.1734 25.275 47.9765 25.8247 48.8671 25.8244C50.0823 25.8226 51.0669 24.8131 51.0682 23.5675C51.0682 22.6546 50.5317 21.8316 49.7088 21.4823C48.8859 21.133 47.9388 21.3263 47.3091 21.9719C46.6794 22.6175 46.4913 23.5884 46.8323 24.4317ZM49.6222 26.6537C50.8311 26.6537 51.9066 27.1041 52.6625 27.935L54.7406 30.0423C54.8207 30.125 54.9317 30.1686 55.0452 30.1618C55.1584 30.156 55.2641 30.1017 55.3363 30.0122L57.5992 27.2073C57.7898 26.976 58.1238 26.9381 58.3591 27.1211C58.4822 27.2116 58.5634 27.3502 58.5835 27.5041C58.6036 27.658 58.5609 27.8136 58.4654 27.9341L55.418 31.8016C55.3164 31.9309 55.1665 32.0106 55.0049 32.0212C54.8433 32.0319 54.6847 31.9726 54.5677 31.8577L52.4824 29.8122C52.3657 29.697 52.193 29.6645 52.0439 29.7297C51.8949 29.795 51.7983 29.9452 51.7987 30.1114V33.5886H45.4136V29.3041C45.4154 27.8407 46.5725 26.655 48.0002 26.6537H49.6222ZM53.0226 37.3642V43.0911L58.2536 43.0919C58.2851 42.7989 58.3509 42.511 58.4495 42.2341C58.4452 42.21 58.4428 42.1855 58.4424 42.161V37.3642H53.0226ZM61.8546 39.7902C60.8726 39.7901 59.9328 40.1996 59.2514 40.9244V37.3642H65.5905V39.7902H61.8546ZM52.6117 33.587H65.6397C65.9663 30.9921 67.8191 28.8718 70.2996 28.2545C68.1804 27.1188 67.0066 24.7219 67.3841 22.3015C67.7617 19.8811 69.6063 17.9789 71.9653 17.5772V16.0089C71.9649 15.6951 71.8428 15.3942 71.6259 15.1727C71.409 14.9511 71.1151 14.827 70.8088 14.8276H42.0014C41.3649 14.8281 40.849 15.3566 40.8481 16.0089V33.5886H44.6046V29.3057C44.6063 27.7816 45.574 26.4354 46.9937 25.9821C45.9928 25.1679 45.6017 23.7953 46.0175 22.5569C46.4333 21.3185 47.5658 20.4834 48.8435 20.473C50.1212 20.4625 51.2665 21.279 51.7015 22.5105C52.1365 23.742 51.7667 25.1207 50.7787 25.9512C51.7225 26.149 52.5841 26.6397 53.2463 27.3569L54.9913 29.1382L56.9742 26.6829C57.2709 26.3141 57.7314 26.1269 58.1941 26.187L60.1422 21.7878C60.1977 21.6464 60.3244 21.5475 60.4722 21.5305C60.62 21.5134 60.765 21.5808 60.8498 21.7061C60.9346 21.8313 60.9455 21.9941 60.8782 22.1301L58.9302 26.5309C59.4814 27.0217 59.5544 27.8718 59.0952 28.4537L56.047 32.3211C55.8025 32.6304 55.443 32.8208 55.0555 32.8463C54.6681 32.8732 54.2876 32.7312 54.0077 32.4553L52.6117 31.0813V33.587Z" fill="#1D3A70"/>
<path d="M75.3823 28.2943L75.1535 27.8497L74.0157 28.4354L75.2491 28.7762L75.3823 28.2943ZM79.9399 34.3829H80.4399V34.3822L79.9399 34.3829ZM79.1309 34.3829H79.6309V34.3823L79.1309 34.3829ZM73.7896 28.9081L73.7902 28.4081H73.7896V28.9081ZM71.7408 28.9081V28.4081H71.7402L71.7408 28.9081ZM66.3996 34.3829L65.8996 34.3823V34.3829H66.3996ZM66.3996 36.8472H65.8996V36.9079L65.9141 36.967L66.3996 36.8472ZM66.4123 36.9496L66.9123 36.9519L66.9122 36.9472L66.4123 36.9496ZM66.3996 37.0528L65.9139 36.9339L65.8996 36.9925V37.0528H66.3996ZM61.8546 40.6195V40.1195H61.8539L61.8546 40.6195ZM59.0682 43.0911L58.5733 43.0202L58.4916 43.5911H59.0682V43.0911ZM67.3093 43.0911V43.5911H67.3098L67.3093 43.0911ZM69.0734 41.2829L69.5734 41.2834V41.2829H69.0734ZM69.8824 41.2829L70.3824 41.2834V41.2829H69.8824ZM67.3093 43.9203V44.4203H67.3098L67.3093 43.9203ZM52.2151 43.0911V43.5911H52.7151V43.0911H52.2151ZM52.2151 37.3642H52.7151V36.8642H52.2151V37.3642ZM42.0014 37.3642L42.001 37.8642H42.0014V37.3642ZM40.0391 35.3537H39.5391L39.5391 35.3542L40.0391 35.3537ZM40.0391 16.0089L39.5391 16.008V16.0089H40.0391ZM42.0014 14V13.5L42.001 13.5L42.0014 14ZM70.8088 14L70.8093 13.5H70.8088V14ZM72.7712 16.0089H73.2712V16.008L72.7712 16.0089ZM72.7712 17.4959H72.2712V17.9959H72.7712V17.4959ZM72.8767 17.4959V17.9959L72.8775 17.9959L72.8767 17.4959ZM76.2387 19.7548L76.5965 19.4056V19.4056L76.2387 19.7548ZM40.8481 34.4163V33.9163H40.3481V34.4163H40.8481ZM40.8481 35.3537H40.3481L40.3481 35.354L40.8481 35.3537ZM65.5905 34.4163H66.0905V33.9163H65.5905V34.4163ZM65.5905 36.535V37.035H66.0905V36.535H65.5905ZM42.0014 36.535V36.035H42.0014L42.0014 36.535ZM48.8671 25.8244L48.8673 26.3244L48.8679 26.3244L48.8671 25.8244ZM46.8323 24.4317L47.2958 24.2443L46.8323 24.4317ZM51.0682 23.5675L51.5682 23.568V23.5675L51.0682 23.5675ZM49.7088 21.4823L49.5134 21.9425L49.7088 21.4823ZM52.6625 27.935L52.2927 28.2714L52.2994 28.2789L52.3065 28.286L52.6625 27.935ZM54.7406 30.0423L55.0999 29.6945L55.0966 29.6912L54.7406 30.0423ZM55.0452 30.1618L55.0198 29.6624L55.0154 29.6627L55.0452 30.1618ZM55.3363 30.0122L54.9472 29.6982V29.6982L55.3363 30.0122ZM57.5992 27.2073L57.2133 26.8894L57.2101 26.8934L57.5992 27.2073ZM58.3591 27.1211L58.052 27.5159L58.0629 27.524L58.3591 27.1211ZM58.4654 27.9341L58.0735 27.6236L58.0727 27.6247L58.4654 27.9341ZM55.418 31.8016L55.0253 31.4922L55.0249 31.4926L55.418 31.8016ZM54.5677 31.8577L54.9181 31.501L54.9179 31.5008L54.5677 31.8577ZM52.4824 29.8122L52.1313 30.1681L52.1323 30.1691L52.4824 29.8122ZM51.7987 30.1114H52.2987L52.2987 30.1101L51.7987 30.1114ZM51.7987 33.5886V34.0886H52.2987V33.5886H51.7987ZM45.4136 33.5886H44.9136V34.0886H45.4136V33.5886ZM45.4136 29.3041L44.9136 29.3035V29.3041H45.4136ZM48.0002 26.6537V26.1537H47.9997L48.0002 26.6537ZM53.0226 43.0911H52.5226V43.591L53.0225 43.5911L53.0226 43.0911ZM53.0226 37.3642V36.8642H52.5226V37.3642H53.0226ZM58.2536 43.0919L58.2535 43.5919L58.7027 43.5919L58.7507 43.1453L58.2536 43.0919ZM58.4495 42.2341L58.9205 42.402L58.9653 42.2762L58.9415 42.1449L58.4495 42.2341ZM58.4424 42.161H57.9423L57.9425 42.1686L58.4424 42.161ZM58.4424 37.3642H58.9424V36.8642H58.4424V37.3642ZM59.2514 40.9244H58.7514V42.1862L59.6157 41.2669L59.2514 40.9244ZM61.8546 39.7902L61.8546 40.2902H61.8546V39.7902ZM59.2514 37.3642V36.8642H58.7514V37.3642H59.2514ZM65.5905 37.3642H66.0905V36.8642H65.5905V37.3642ZM65.5905 39.7902V40.2902H66.0905V39.7902H65.5905ZM65.6397 33.587V34.087H66.0807L66.1358 33.6494L65.6397 33.587ZM52.6117 33.587H52.1117V34.087H52.6117V33.587ZM70.2996 28.2545L70.4204 28.7397L71.679 28.4264L70.5358 27.8138L70.2996 28.2545ZM67.3841 22.3015L67.8782 22.3786L67.3841 22.3015ZM71.9653 17.5772L72.0492 18.0701L72.4653 17.9993V17.5772H71.9653ZM71.9653 16.0089H72.4653L72.4653 16.0083L71.9653 16.0089ZM71.6259 15.1727L71.9832 14.8229V14.8229L71.6259 15.1727ZM70.8088 14.8276V15.3276L70.8099 15.3276L70.8088 14.8276ZM42.0014 14.8276V14.3276L42.001 14.3276L42.0014 14.8276ZM40.8481 16.0089L40.3481 16.0083V16.0089H40.8481ZM40.8481 33.5886H40.3481V34.0886H40.8481V33.5886ZM44.6046 33.5886V34.0886H45.1046V33.5886H44.6046ZM44.6046 29.3057L44.1046 29.3051V29.3057H44.6046ZM46.9937 25.9821L47.1457 26.4584L48.0259 26.1774L47.3092 25.5943L46.9937 25.9821ZM46.0175 22.5569L46.4915 22.716H46.4915L46.0175 22.5569ZM48.8435 20.473L48.8394 19.973L48.8435 20.473ZM51.7015 22.5105L52.173 22.3439L51.7015 22.5105ZM50.7787 25.9512L50.457 25.5685L49.6701 26.2298L50.6762 26.4406L50.7787 25.9512ZM53.2463 27.3569L52.8789 27.6961L52.8839 27.7015L52.8891 27.7068L53.2463 27.3569ZM54.9913 29.1382L54.6341 29.4881L55.0273 29.8894L55.3803 29.4524L54.9913 29.1382ZM56.9742 26.6829L57.3632 26.9971L57.3638 26.9963L56.9742 26.6829ZM58.1941 26.187L58.1297 26.6828L58.5001 26.731L58.6513 26.3894L58.1941 26.187ZM60.1422 21.7878L60.5994 21.9903L60.6037 21.9804L60.6076 21.9704L60.1422 21.7878ZM60.4722 21.5305L60.4148 21.0338L60.4148 21.0338L60.4722 21.5305ZM60.8782 22.1301L60.4301 21.9083L60.4254 21.9179L60.421 21.9277L60.8782 22.1301ZM58.9302 26.5309L58.473 26.3285L58.3254 26.6619L58.5977 26.9043L58.9302 26.5309ZM59.0952 28.4537L58.7027 28.1439L58.7025 28.1442L59.0952 28.4537ZM56.047 32.3211L56.4392 32.6313L56.4397 32.6306L56.047 32.3211ZM55.0555 32.8463L55.0226 32.3474L55.021 32.3475L55.0555 32.8463ZM54.0077 32.4553L54.3587 32.0992L54.3585 32.0989L54.0077 32.4553ZM52.6117 31.0813L52.9625 30.7249L52.1117 29.8876V31.0813H52.6117ZM75.6111 28.7389C78.1257 27.4445 79.4324 24.5558 78.785 21.7659L77.8109 21.9919C78.3575 24.3475 77.2501 26.7705 75.1535 27.8497L75.6111 28.7389ZM80.4399 34.3822C80.4356 31.3136 78.4249 28.6163 75.5155 27.8124L75.2491 28.7762C77.7116 29.4567 79.4362 31.7495 79.4399 34.3836L80.4399 34.3822ZM80.4399 43.5057V34.3829H79.4399V43.5057H80.4399ZM79.5354 44.4203C80.0465 44.4203 80.4399 43.9991 80.4399 43.5057H79.4399C79.4399 43.4703 79.4711 43.4203 79.5354 43.4203V44.4203ZM78.6309 43.5057C78.6309 43.9991 79.0243 44.4203 79.5354 44.4203V43.4203C79.5997 43.4203 79.6309 43.4703 79.6309 43.5057H78.6309ZM78.6309 34.3829V43.5057H79.6309V34.3829H78.6309ZM73.789 29.4081C76.4502 29.4114 78.6277 31.6254 78.6309 34.3835L79.6309 34.3823C79.6271 31.0962 77.0259 28.4121 73.7902 28.4081L73.789 29.4081ZM71.7408 29.4081H73.7896V28.4081H71.7408V29.4081ZM66.8996 34.3835C66.9028 31.6254 69.0802 29.4114 71.7414 29.4081L71.7402 28.4081C68.5046 28.4121 65.9034 31.0962 65.8996 34.3823L66.8996 34.3835ZM66.8996 36.8472V34.3829H65.8996V36.8472H66.8996ZM66.9122 36.9472C66.9119 36.8732 66.9028 36.7993 66.885 36.7273L65.9141 36.967C65.9129 36.962 65.9123 36.9569 65.9123 36.9519L66.9122 36.9472ZM66.8852 37.1718C66.9028 37.0998 66.9119 37.026 66.9122 36.9519L65.9123 36.9473C65.9123 36.9429 65.9128 36.9384 65.9139 36.9339L66.8852 37.1718ZM66.8996 40.2049V37.0528H65.8996V40.2049H66.8996ZM65.995 41.1195C66.5062 41.1195 66.8996 40.6983 66.8996 40.2049H65.8996C65.8996 40.1694 65.9307 40.1195 65.995 40.1195V41.1195ZM61.8546 41.1195H65.995V40.1195H61.8546V41.1195ZM59.5632 43.1619C59.7322 41.9808 60.715 41.1213 61.8554 41.1195L61.8539 40.1195C60.1982 40.1221 58.81 41.3656 58.5733 43.0202L59.5632 43.1619ZM67.3093 42.5911H59.0682V43.5911H67.3093V42.5911ZM68.5734 41.2825C68.5727 42.0166 67.9954 42.5904 67.3089 42.5911L67.3098 43.5911C68.571 43.5899 69.5723 42.5457 69.5734 41.2834L68.5734 41.2825ZM68.5734 34.6813V41.2829H69.5734V34.6813H68.5734ZM69.4779 33.7667C68.9668 33.7667 68.5734 34.1879 68.5734 34.6813H69.5734C69.5734 34.7167 69.5422 34.7667 69.4779 34.7667V33.7667ZM70.3824 34.6813C70.3824 34.1879 69.989 33.7667 69.4779 33.7667V34.7667C69.4136 34.7667 69.3824 34.7167 69.3824 34.6813H70.3824ZM70.3824 41.2829V34.6813H69.3824V41.2829H70.3824ZM67.3098 44.4203C69.0177 44.4187 70.3809 43.0035 70.3824 41.2834L69.3824 41.2825C69.3813 42.4744 68.4421 43.4193 67.3089 43.4203L67.3098 44.4203ZM48.8671 44.4203H67.3093V43.4203H48.8671V44.4203ZM47.9626 43.5057C47.9626 43.9991 48.356 44.4203 48.8671 44.4203V43.4203C48.9314 43.4203 48.9626 43.4703 48.9626 43.5057H47.9626ZM48.8671 42.5911C48.356 42.5911 47.9626 43.0123 47.9626 43.5057H48.9626C48.9626 43.5411 48.9314 43.5911 48.8671 43.5911V42.5911ZM52.2151 42.5911H48.8671V43.5911H52.2151V42.5911ZM51.7151 37.3642V43.0911H52.7151V37.3642H51.7151ZM42.0014 37.8642H52.2151V36.8642H42.0014V37.8642ZM39.5391 35.3542C39.5407 36.7285 40.6306 37.8631 42.001 37.8642L42.0018 36.8642C41.206 36.8636 40.5401 36.1992 40.5391 35.3531L39.5391 35.3542ZM39.5391 16.0089V35.3537H40.5391V16.0089H39.5391ZM42.001 13.5C40.6314 13.5011 39.5418 14.6345 39.5391 16.008L40.5391 16.0099C40.5407 15.1643 41.2064 14.5007 42.0018 14.5L42.001 13.5ZM70.8088 13.5H42.0014V14.5H70.8088V13.5ZM73.2712 16.008C73.2685 14.6345 72.1788 13.5011 70.8093 13.5L70.8084 14.5C71.6038 14.5007 72.2695 15.1643 72.2712 16.0099L73.2712 16.008ZM73.2712 17.4959V16.0089H72.2712V17.4959H73.2712ZM72.8767 16.9959H72.7712V17.9959H72.8767V16.9959ZM78.785 21.7659C78.1372 18.974 75.6966 16.9913 72.8758 16.9959L72.8775 17.9959C75.2167 17.9921 77.2648 19.6383 77.8109 21.9919L78.785 21.7659ZM77.1326 23.2041C77.1326 25.6337 75.2141 27.5821 72.8735 27.5821V28.5821C75.7896 28.5821 78.1326 26.1626 78.1326 23.2041H77.1326ZM75.8808 20.1039C76.6809 20.9241 77.1326 22.039 77.1326 23.2041H78.1326C78.1326 21.7816 77.5814 20.4151 76.5965 19.4056L75.8808 20.1039ZM72.8735 18.826C73.999 18.826 75.081 19.2842 75.8808 20.1039L76.5965 19.4056C75.6113 18.3957 74.2723 17.826 72.8735 17.826V18.826ZM68.6144 23.2041C68.6144 20.7744 70.5328 18.826 72.8735 18.826V17.826C69.9574 17.826 67.6144 20.2456 67.6144 23.2041H68.6144ZM72.8735 27.5821C70.5328 27.5821 68.6144 25.6337 68.6144 23.2041H67.6144C67.6144 26.1626 69.9574 28.5821 72.8735 28.5821V27.5821ZM40.3481 34.4163V35.3537H41.3481V34.4163H40.3481ZM65.5905 33.9163H40.8481V34.9163H65.5905V33.9163ZM66.0905 36.535V34.4163H65.0905V36.535H66.0905ZM42.0014 37.035H65.5905V36.035H42.0014V37.035ZM40.3481 35.354C40.3487 36.2709 41.0772 37.035 42.0014 37.035L42.0014 36.035C41.6523 36.035 41.3484 35.7416 41.3481 35.3533L40.3481 35.354ZM48.867 25.3244C48.1858 25.3246 47.5626 24.904 47.2958 24.2443L46.3688 24.6192C46.7841 25.6461 47.7672 26.3248 48.8673 26.3244L48.867 25.3244ZM50.5682 23.567C50.5672 24.5486 49.7944 25.323 48.8664 25.3244L48.8679 26.3244C50.3703 26.3222 51.5666 25.0776 51.5682 23.568L50.5682 23.567ZM49.5134 21.9425C50.1465 22.2113 50.5682 22.8496 50.5682 23.5675L51.5682 23.5675C51.5682 22.4595 50.9168 21.4519 49.9041 21.022L49.5134 21.9425ZM47.6671 22.321C48.1545 21.8212 48.8825 21.6747 49.5134 21.9425L49.9041 21.022C48.8893 20.5913 47.723 20.8313 46.9512 21.6228L47.6671 22.321ZM47.2958 24.2443C47.0283 23.5828 47.1775 22.823 47.6671 22.321L46.9512 21.6228C46.1814 22.4121 45.9542 23.594 46.3688 24.6192L47.2958 24.2443ZM53.0324 27.5985C52.173 26.6539 50.9584 26.1537 49.6222 26.1537V27.1537C50.7037 27.1537 51.6402 27.5542 52.2927 28.2714L53.0324 27.5985ZM55.0966 29.6912L53.0185 27.5839L52.3065 28.286L54.3846 30.3934L55.0966 29.6912ZM55.0154 29.6627C55.0495 29.6606 55.0801 29.674 55.0999 29.6945L54.3814 30.39C54.5614 30.576 54.8138 30.6765 55.075 30.6609L55.0154 29.6627ZM54.9472 29.6982C54.9627 29.6789 54.9885 29.664 55.0198 29.6624L55.0706 30.6611C55.3284 30.648 55.5654 30.5245 55.7254 30.3262L54.9472 29.6982ZM57.2101 26.8934L54.9472 29.6982L55.7254 30.3262L57.9884 27.5213L57.2101 26.8934ZM58.6661 26.7265C58.2152 26.3757 57.5745 26.451 57.2133 26.8894L57.9852 27.5252C57.9962 27.5119 58.0081 27.5069 58.0187 27.5056C58.0293 27.5044 58.0404 27.5067 58.0521 27.5158L58.6661 26.7265ZM59.0793 27.4393C59.0418 27.1527 58.8902 26.891 58.6553 26.7183L58.0629 27.524C58.0742 27.5323 58.085 27.5478 58.0877 27.5689L59.0793 27.4393ZM58.8573 28.2447C59.0376 28.0171 59.1168 27.7258 59.0793 27.4393L58.0877 27.5689C58.0905 27.5902 58.0842 27.6101 58.0735 27.6236L58.8573 28.2447ZM55.8107 32.1111L58.8581 28.2436L58.0727 27.6247L55.0253 31.4922L55.8107 32.1111ZM55.0378 32.5201C55.3434 32.5 55.6233 32.3495 55.8111 32.1106L55.0249 31.4926C55.0095 31.5123 54.9896 31.5211 54.972 31.5223L55.0378 32.5201ZM54.2174 32.2145C54.4346 32.4278 54.7321 32.5403 55.0378 32.5201L54.972 31.5223C54.9544 31.5235 54.9347 31.5174 54.9181 31.501L54.2174 32.2145ZM52.1323 30.1691L54.2176 32.2147L54.9179 31.5008L52.8326 29.4553L52.1323 30.1691ZM52.2444 30.1878C52.204 30.2055 52.1586 30.195 52.1313 30.1681L52.8336 29.4563C52.5728 29.1989 52.182 29.1235 51.8435 29.2717L52.2444 30.1878ZM52.2987 30.1101C52.2988 30.1376 52.2827 30.1711 52.2444 30.1878L51.8435 29.2717C51.5071 29.4189 51.2978 29.7529 51.2987 30.1126L52.2987 30.1101ZM52.2987 33.5886V30.1114H51.2987V33.5886H52.2987ZM45.4136 34.0886H51.7987V33.0886H45.4136V34.0886ZM44.9136 29.3041V33.5886H45.9136V29.3041H44.9136ZM47.9997 26.1537C46.2848 26.1553 44.9157 27.5761 44.9136 29.3035L45.9136 29.3047C45.9151 28.1054 46.8603 27.1547 48.0007 27.1537L47.9997 26.1537ZM49.6222 26.1537H48.0002V27.1537H49.6222V26.1537ZM53.5226 43.0911V37.3642H52.5226V43.0911H53.5226ZM58.2537 42.5919L53.0227 42.5911L53.0225 43.5911L58.2535 43.5919L58.2537 42.5919ZM57.9785 42.0663C57.8667 42.3802 57.7922 42.7066 57.7565 43.0384L58.7507 43.1453C58.7781 42.8913 58.8351 42.6417 58.9205 42.402L57.9785 42.0663ZM57.9425 42.1686C57.9432 42.2205 57.9483 42.2723 57.9576 42.3234L58.9415 42.1449C58.942 42.1478 58.9423 42.1506 58.9423 42.1534L57.9425 42.1686ZM57.9424 37.3642V42.161H58.9424V37.3642H57.9424ZM53.0226 37.8642H58.4424V36.8642H53.0226V37.8642ZM59.6157 41.2669C60.204 40.6411 61.0126 40.2901 61.8546 40.2902L61.8547 39.2902C60.7327 39.2901 59.6617 39.758 58.8871 40.5819L59.6157 41.2669ZM58.7514 37.3642V40.9244H59.7514V37.3642H58.7514ZM65.5905 36.8642H59.2514V37.8642H65.5905V36.8642ZM66.0905 39.7902V37.3642H65.0905V39.7902H66.0905ZM61.8546 40.2902H65.5905V39.2902H61.8546V40.2902ZM65.6397 33.087H52.6117V34.087H65.6397V33.087ZM70.1789 27.7693C67.4918 28.438 65.4952 30.7311 65.1436 33.5246L66.1358 33.6494C66.4374 31.2531 68.1464 29.3056 70.4204 28.7397L70.1789 27.7693ZM66.8901 22.2244C66.4806 24.8493 67.7523 27.4566 70.0634 28.6952L70.5358 27.8138C68.6086 26.7809 67.5325 24.5945 67.8782 22.3786L66.8901 22.2244ZM71.8814 17.0843C69.3037 17.5233 67.2998 19.5986 66.8901 22.2244L67.8782 22.3786C68.2237 20.1637 69.9088 18.4346 72.0492 18.0701L71.8814 17.0843ZM71.4653 16.0089V17.5772H72.4653V16.0089H71.4653ZM71.2686 15.5225C71.3929 15.6495 71.465 15.8245 71.4653 16.0096L72.4653 16.0083C72.4647 15.5657 72.2926 15.139 71.9832 14.8229L71.2686 15.5225ZM70.8099 15.3276C70.9794 15.3273 71.1447 15.3959 71.2686 15.5225L71.9832 14.8229C71.6733 14.5064 71.2507 14.3267 70.8078 14.3276L70.8099 15.3276ZM42.0014 15.3276H70.8088V14.3276H42.0014V15.3276ZM41.3481 16.0096C41.3486 15.6213 41.6526 15.3279 42.0017 15.3276L42.001 14.3276C41.0773 14.3283 40.3493 15.0918 40.3481 16.0083L41.3481 16.0096ZM41.3481 33.5886V16.0089H40.3481V33.5886H41.3481ZM44.6046 33.0886H40.8481V34.0886H44.6046V33.0886ZM44.1046 29.3057V33.5886H45.1046V29.3057H44.1046ZM46.8416 25.5058C45.2085 26.0272 44.1066 27.5705 44.1046 29.3051L45.1046 29.3063C45.1061 27.9927 45.9395 26.8436 47.1457 26.4584L46.8416 25.5058ZM45.5435 22.3977C45.0625 23.8303 45.5129 25.422 46.6781 26.37L47.3092 25.5943C46.4727 24.9137 46.1409 23.7602 46.4915 22.716L45.5435 22.3977ZM48.8394 19.973C47.342 19.9852 46.0252 20.9633 45.5435 22.3977L46.4915 22.716C46.8415 21.6737 47.7896 20.9816 48.8476 20.9729L48.8394 19.973ZM52.173 22.3439C51.669 20.9173 50.3369 19.9608 48.8394 19.973L48.8476 20.9729C49.9055 20.9643 50.864 21.6408 51.2301 22.677L52.173 22.3439ZM51.1004 26.334C52.2504 25.3673 52.6763 23.7687 52.173 22.3439L51.2301 22.677C51.5968 23.7152 51.283 24.8742 50.457 25.5685L51.1004 26.334ZM53.6136 27.0177C52.8818 26.2252 51.9281 25.6812 50.8812 25.4618L50.6762 26.4406C51.5169 26.6167 52.2863 27.0543 52.8789 27.6961L53.6136 27.0177ZM55.3484 28.7883L53.6035 27.007L52.8891 27.7068L54.6341 29.4881L55.3484 28.7883ZM56.5852 26.3688L54.6023 28.8241L55.3803 29.4524L57.3632 26.9971L56.5852 26.3688ZM58.2586 25.6912C57.62 25.6082 56.9886 25.8673 56.5846 26.3695L57.3638 26.9963C57.5533 26.7608 57.8428 26.6455 58.1297 26.6828L58.2586 25.6912ZM59.685 21.5854L57.7369 25.9845L58.6513 26.3894L60.5994 21.9903L59.685 21.5854ZM60.4148 21.0338C60.0785 21.0726 59.7979 21.2963 59.6767 21.6052L60.6076 21.9704C60.5974 21.9965 60.5703 22.0225 60.5296 22.0272L60.4148 21.0338ZM61.2638 21.4257C61.0767 21.1494 60.7516 20.9949 60.4148 21.0338L60.5296 22.0272C60.4883 22.0319 60.4533 22.0123 60.4358 21.9864L61.2638 21.4257ZM61.3264 22.3519C61.4732 22.0552 61.4499 21.7005 61.2638 21.4257L60.4358 21.9864C60.4193 21.9621 60.4179 21.9331 60.4301 21.9083L61.3264 22.3519ZM59.3874 26.7333L61.3355 22.3325L60.421 21.9277L58.473 26.3285L59.3874 26.7333ZM59.4877 28.7634C60.1096 27.9753 60.0129 26.8254 59.2627 26.1575L58.5977 26.9043C58.9499 27.2179 58.9991 27.7683 58.7027 28.1439L59.4877 28.7634ZM56.4397 32.6306L59.4879 28.7632L58.7025 28.1442L55.6543 32.0116L56.4397 32.6306ZM55.0884 33.3453C55.6194 33.3102 56.1085 33.0495 56.4392 32.6313L55.6548 32.011C55.4965 32.2113 55.2666 32.3313 55.0226 32.3474L55.0884 33.3453ZM53.6567 32.8114C54.0373 33.1865 54.5577 33.382 55.09 33.3451L55.021 32.3475C54.7785 32.3643 54.5379 32.2758 54.3587 32.0992L53.6567 32.8114ZM52.261 31.4377L53.657 32.8116L54.3585 32.0989L52.9625 30.7249L52.261 31.4377ZM53.1117 33.587V31.0813H52.1117V33.587H53.1117Z" fill="#1D3A70"/>
<path d="M66.3844 17.1179H55.6257C55.4023 17.1179 55.2212 17.3035 55.2212 17.5325C55.2212 17.7615 55.4023 17.9472 55.6257 17.9472H66.3844C66.6078 17.9472 66.7889 17.7615 66.7889 17.5325C66.7889 17.3035 66.6078 17.1179 66.3844 17.1179Z" fill="#1D3A70" stroke="#1D3A70"/>
<path d="M66.3847 19.4033H64.8269C64.6035 19.4033 64.4224 19.5889 64.4224 19.8179C64.4224 20.0469 64.6035 20.2325 64.8269 20.2325H66.3815C66.6049 20.2325 66.786 20.0469 66.786 19.8179C66.786 19.5889 66.6049 19.4033 66.3815 19.4033L66.3847 19.4033Z" fill="#1D3A70" stroke="#1D3A70"/>
<path d="M62.3677 19.8179C62.3677 19.5889 62.1866 19.4033 61.9632 19.4033H55.6257C55.4023 19.4033 55.2212 19.5889 55.2212 19.8179C55.2212 20.0469 55.4023 20.2325 55.6257 20.2325H61.9632C62.0705 20.2325 62.1734 20.1888 62.2492 20.1111C62.3251 20.0333 62.3677 19.9279 62.3677 19.8179Z" fill="#1D3A70" stroke="#1D3A70"/>
<path d="M66.3846 21.6886H62.4402C62.2168 21.6886 62.0356 21.8743 62.0356 22.1033C62.0356 22.3322 62.2168 22.5179 62.4402 22.5179H66.3846C66.5292 22.5179 66.6627 22.4389 66.735 22.3106C66.8072 22.1823 66.8072 22.0242 66.735 21.8959C66.6627 21.7676 66.5292 21.6886 66.3846 21.6886V21.6886Z" fill="#1D3A70" stroke="#1D3A70"/>
<path d="M58.6342 21.6886H55.6257C55.4023 21.6886 55.2212 21.8743 55.2212 22.1033C55.2212 22.3322 55.4023 22.5179 55.6257 22.5179H58.635C58.8584 22.5179 59.0396 22.3322 59.0396 22.1033C59.0396 21.8743 58.8584 21.6886 58.635 21.6886L58.6342 21.6886Z" fill="#1D3A70" stroke="#1D3A70"/>
<path d="M28.453 68.926V70H23.521V61.384H24.799V68.926H28.453ZM34.0963 66.274C34.0963 66.042 34.0623 65.828 33.9943 65.632C33.9303 65.436 33.8343 65.266 33.7063 65.122C33.5783 64.978 33.4223 64.866 33.2383 64.786C33.0543 64.706 32.8423 64.666 32.6023 64.666C32.1103 64.666 31.7223 64.808 31.4383 65.092C31.1583 65.376 30.9803 65.77 30.9043 66.274H34.0963ZM35.0623 69.13C34.9183 69.298 34.7523 69.444 34.5643 69.568C34.3763 69.688 34.1763 69.786 33.9643 69.862C33.7523 69.938 33.5323 69.994 33.3043 70.03C33.0803 70.066 32.8583 70.084 32.6383 70.084C32.2183 70.084 31.8283 70.014 31.4683 69.874C31.1123 69.73 30.8023 69.522 30.5383 69.25C30.2783 68.974 30.0743 68.634 29.9263 68.23C29.7823 67.822 29.7103 67.354 29.7103 66.826C29.7103 66.402 29.7763 66.008 29.9083 65.644C30.0403 65.276 30.2283 64.956 30.4723 64.684C30.7203 64.412 31.0223 64.198 31.3783 64.042C31.7343 63.886 32.1343 63.808 32.5783 63.808C32.9503 63.808 33.2923 63.87 33.6043 63.994C33.9203 64.114 34.1923 64.29 34.4203 64.522C34.6483 64.754 34.8263 65.04 34.9543 65.38C35.0863 65.72 35.1523 66.108 35.1523 66.544C35.1523 66.724 35.1323 66.846 35.0923 66.91C35.0523 66.97 34.9783 67 34.8703 67H30.8743C30.8863 67.364 30.9383 67.682 31.0303 67.954C31.1223 68.222 31.2483 68.446 31.4083 68.626C31.5723 68.806 31.7663 68.94 31.9903 69.028C32.2143 69.116 32.4643 69.16 32.7403 69.16C33.0003 69.16 33.2243 69.13 33.4123 69.07C33.6043 69.01 33.7683 68.946 33.9043 68.878C34.0443 68.806 34.1603 68.74 34.2523 68.68C34.3483 68.62 34.4323 68.59 34.5043 68.59C34.6003 68.59 34.6743 68.626 34.7263 68.698L35.0623 69.13ZM40.6859 67.294C40.2099 67.31 39.8059 67.348 39.4739 67.408C39.1419 67.464 38.8719 67.54 38.6639 67.636C38.4559 67.732 38.3059 67.846 38.2139 67.978C38.1219 68.106 38.0759 68.25 38.0759 68.41C38.0759 68.562 38.0999 68.694 38.1479 68.806C38.1999 68.914 38.2679 69.004 38.3519 69.076C38.4399 69.144 38.5419 69.194 38.6579 69.226C38.7739 69.258 38.8999 69.274 39.0359 69.274C39.2159 69.274 39.3799 69.256 39.5279 69.22C39.6799 69.184 39.8219 69.134 39.9539 69.07C40.0859 69.002 40.2119 68.92 40.3319 68.824C40.4519 68.728 40.5699 68.618 40.6859 68.494V67.294ZM37.2539 64.756C37.5939 64.432 37.9619 64.19 38.3579 64.03C38.7579 63.87 39.1959 63.79 39.6719 63.79C40.0199 63.79 40.3279 63.848 40.5959 63.964C40.8639 64.076 41.0899 64.234 41.2739 64.438C41.4579 64.642 41.5959 64.886 41.6879 65.17C41.7839 65.454 41.8319 65.768 41.8319 66.112V70H41.3099C41.1939 70 41.1059 69.982 41.0459 69.946C40.9859 69.906 40.9379 69.834 40.9019 69.73L40.7759 69.196C40.6199 69.34 40.4659 69.468 40.3139 69.58C40.1619 69.688 40.0019 69.782 39.8339 69.862C39.6699 69.938 39.4939 69.996 39.3059 70.036C39.1179 70.076 38.9099 70.096 38.6819 70.096C38.4419 70.096 38.2159 70.064 38.0039 70C37.7959 69.932 37.6139 69.83 37.4579 69.694C37.3019 69.558 37.1779 69.388 37.0859 69.184C36.9979 68.98 36.9539 68.742 36.9539 68.47C36.9539 68.23 37.0179 68 37.1459 67.78C37.2779 67.556 37.4899 67.356 37.7819 67.18C38.0779 67.004 38.4619 66.86 38.9339 66.748C39.4099 66.636 39.9939 66.572 40.6859 66.556V66.112C40.6859 65.652 40.5879 65.308 40.3919 65.08C40.1959 64.852 39.9079 64.738 39.5279 64.738C39.2719 64.738 39.0559 64.77 38.8799 64.834C38.7079 64.898 38.5579 64.97 38.4299 65.05C38.3059 65.126 38.1959 65.196 38.0999 65.26C38.0079 65.324 37.9119 65.356 37.8119 65.356C37.7319 65.356 37.6619 65.334 37.6019 65.29C37.5459 65.246 37.4999 65.194 37.4639 65.134L37.2539 64.756ZM48.3282 65.38C48.1362 65.128 47.9282 64.952 47.7042 64.852C47.4842 64.752 47.2362 64.702 46.9602 64.702C46.4242 64.702 46.0082 64.896 45.7122 65.284C45.4202 65.668 45.2742 66.23 45.2742 66.97C45.2742 67.358 45.3062 67.69 45.3702 67.966C45.4382 68.238 45.5342 68.462 45.6582 68.638C45.7862 68.81 45.9422 68.938 46.1262 69.022C46.3102 69.102 46.5182 69.142 46.7502 69.142C47.0902 69.142 47.3842 69.066 47.6322 68.914C47.8802 68.762 48.1122 68.548 48.3282 68.272V65.38ZM49.5042 61.144V70H48.7962C48.6322 70 48.5302 69.922 48.4902 69.766L48.3882 69.064C48.1282 69.372 47.8322 69.62 47.5002 69.808C47.1722 69.992 46.7922 70.084 46.3602 70.084C46.0122 70.084 45.6962 70.016 45.4122 69.88C45.1322 69.744 44.8922 69.546 44.6922 69.286C44.4922 69.022 44.3382 68.696 44.2302 68.308C44.1222 67.92 44.0682 67.474 44.0682 66.97C44.0682 66.518 44.1282 66.098 44.2482 65.71C44.3682 65.322 44.5422 64.986 44.7702 64.702C44.9982 64.418 45.2742 64.196 45.5982 64.036C45.9222 63.872 46.2882 63.79 46.6962 63.79C47.0642 63.79 47.3762 63.85 47.6322 63.97C47.8922 64.09 48.1242 64.26 48.3282 64.48V61.144H49.5042ZM56.1745 66.274C56.1745 66.042 56.1405 65.828 56.0725 65.632C56.0085 65.436 55.9125 65.266 55.7845 65.122C55.6565 64.978 55.5005 64.866 55.3165 64.786C55.1325 64.706 54.9205 64.666 54.6805 64.666C54.1885 64.666 53.8005 64.808 53.5165 65.092C53.2365 65.376 53.0585 65.77 52.9825 66.274H56.1745ZM57.1405 69.13C56.9965 69.298 56.8305 69.444 56.6425 69.568C56.4545 69.688 56.2545 69.786 56.0425 69.862C55.8305 69.938 55.6105 69.994 55.3825 70.03C55.1585 70.066 54.9365 70.084 54.7165 70.084C54.2965 70.084 53.9065 70.014 53.5465 69.874C53.1905 69.73 52.8805 69.522 52.6165 69.25C52.3565 68.974 52.1525 68.634 52.0045 68.23C51.8605 67.822 51.7885 67.354 51.7885 66.826C51.7885 66.402 51.8545 66.008 51.9865 65.644C52.1185 65.276 52.3065 64.956 52.5505 64.684C52.7985 64.412 53.1005 64.198 53.4565 64.042C53.8125 63.886 54.2125 63.808 54.6565 63.808C55.0285 63.808 55.3705 63.87 55.6825 63.994C55.9985 64.114 56.2705 64.29 56.4985 64.522C56.7265 64.754 56.9045 65.04 57.0325 65.38C57.1645 65.72 57.2305 66.108 57.2305 66.544C57.2305 66.724 57.2105 66.846 57.1705 66.91C57.1305 66.97 57.0565 67 56.9485 67H52.9525C52.9645 67.364 53.0165 67.682 53.1085 67.954C53.2005 68.222 53.3265 68.446 53.4865 68.626C53.6505 68.806 53.8445 68.94 54.0685 69.028C54.2925 69.116 54.5425 69.16 54.8185 69.16C55.0785 69.16 55.3025 69.13 55.4905 69.07C55.6825 69.01 55.8465 68.946 55.9825 68.878C56.1225 68.806 56.2385 68.74 56.3305 68.68C56.4265 68.62 56.5105 68.59 56.5825 68.59C56.6785 68.59 56.7525 68.626 56.8045 68.698L57.1405 69.13ZM60.592 65.074C60.788 64.674 61.024 64.36 61.3 64.132C61.576 63.904 61.908 63.79 62.296 63.79C62.428 63.79 62.552 63.806 62.668 63.838C62.788 63.866 62.892 63.91 62.98 63.97L62.902 64.852C62.874 64.96 62.808 65.014 62.704 65.014C62.648 65.014 62.564 65.004 62.452 64.984C62.34 64.96 62.22 64.948 62.092 64.948C61.904 64.948 61.738 64.976 61.594 65.032C61.45 65.084 61.32 65.164 61.204 65.272C61.092 65.376 60.992 65.506 60.904 65.662C60.816 65.814 60.734 65.988 60.658 66.184V70H59.488V63.904H60.16C60.288 63.904 60.374 63.928 60.418 63.976C60.466 64.02 60.5 64.1 60.52 64.216L60.592 65.074ZM66.0525 68.5C66.2445 68.752 66.4525 68.928 66.6765 69.028C66.9005 69.128 67.1445 69.178 67.4085 69.178C67.9525 69.178 68.3705 68.984 68.6625 68.596C68.9585 68.208 69.1065 67.622 69.1065 66.838C69.1065 66.114 68.9765 65.584 68.7165 65.248C68.4565 64.908 68.0885 64.738 67.6125 64.738C67.2765 64.738 66.9845 64.814 66.7365 64.966C66.4925 65.118 66.2645 65.334 66.0525 65.614V68.5ZM66.0525 64.744C66.3045 64.464 66.5905 64.238 66.9105 64.066C67.2305 63.894 67.5945 63.808 68.0025 63.808C68.3585 63.808 68.6785 63.878 68.9625 64.018C69.2505 64.154 69.4945 64.352 69.6945 64.612C69.8945 64.868 70.0485 65.18 70.1565 65.548C70.2645 65.916 70.3185 66.332 70.3185 66.796C70.3185 67.288 70.2565 67.736 70.1325 68.14C70.0125 68.544 69.8385 68.89 69.6105 69.178C69.3865 69.466 69.1125 69.69 68.7885 69.85C68.4645 70.006 68.1005 70.084 67.6965 70.084C67.5005 70.084 67.3205 70.064 67.1565 70.024C66.9925 69.988 66.8405 69.934 66.7005 69.862C66.5645 69.79 66.4385 69.702 66.3225 69.598C66.2065 69.494 66.0965 69.376 65.9925 69.244L65.9385 69.754C65.9065 69.918 65.8065 70 65.6385 70H64.8825V61.144H66.0525V64.744ZM75.2188 63.808C75.6668 63.808 76.0708 63.882 76.4308 64.03C76.7948 64.174 77.1028 64.384 77.3548 64.66C77.6108 64.932 77.8068 65.262 77.9428 65.65C78.0788 66.034 78.1468 66.466 78.1468 66.946C78.1468 67.426 78.0788 67.86 77.9428 68.248C77.8068 68.636 77.6108 68.966 77.3548 69.238C77.1028 69.51 76.7948 69.72 76.4308 69.868C76.0708 70.012 75.6668 70.084 75.2188 70.084C74.7668 70.084 74.3588 70.012 73.9948 69.868C73.6348 69.72 73.3268 69.51 73.0708 69.238C72.8148 68.966 72.6168 68.636 72.4768 68.248C72.3408 67.86 72.2728 67.426 72.2728 66.946C72.2728 66.466 72.3408 66.034 72.4768 65.65C72.6168 65.262 72.8148 64.932 73.0708 64.66C73.3268 64.384 73.6348 64.174 73.9948 64.03C74.3588 63.882 74.7668 63.808 75.2188 63.808ZM75.2188 69.172C75.7948 69.172 76.2248 68.978 76.5088 68.59C76.7928 68.202 76.9348 67.656 76.9348 66.952C76.9348 66.248 76.7928 65.702 76.5088 65.314C76.2248 64.922 75.7948 64.726 75.2188 64.726C74.6348 64.726 74.1988 64.922 73.9108 65.314C73.6268 65.702 73.4848 66.248 73.4848 66.952C73.4848 67.656 73.6268 68.202 73.9108 68.59C74.1988 68.978 74.6348 69.172 75.2188 69.172ZM83.7289 67.294C83.2529 67.31 82.8489 67.348 82.5169 67.408C82.1849 67.464 81.9149 67.54 81.7069 67.636C81.4989 67.732 81.3489 67.846 81.2569 67.978C81.1649 68.106 81.1189 68.25 81.1189 68.41C81.1189 68.562 81.1429 68.694 81.1909 68.806C81.2429 68.914 81.3109 69.004 81.3949 69.076C81.4829 69.144 81.5849 69.194 81.7009 69.226C81.8169 69.258 81.9429 69.274 82.0789 69.274C82.2589 69.274 82.4229 69.256 82.5709 69.22C82.7229 69.184 82.8649 69.134 82.9969 69.07C83.1289 69.002 83.2549 68.92 83.3749 68.824C83.4949 68.728 83.6129 68.618 83.7289 68.494V67.294ZM80.2969 64.756C80.6369 64.432 81.0049 64.19 81.4009 64.03C81.8009 63.87 82.2389 63.79 82.7149 63.79C83.0629 63.79 83.3709 63.848 83.6389 63.964C83.9069 64.076 84.1329 64.234 84.3169 64.438C84.5009 64.642 84.6389 64.886 84.7309 65.17C84.8269 65.454 84.8749 65.768 84.8749 66.112V70H84.3529C84.2369 70 84.1489 69.982 84.0889 69.946C84.0289 69.906 83.9809 69.834 83.9449 69.73L83.8189 69.196C83.6629 69.34 83.5089 69.468 83.3569 69.58C83.2049 69.688 83.0449 69.782 82.8769 69.862C82.7129 69.938 82.5369 69.996 82.3489 70.036C82.1609 70.076 81.9529 70.096 81.7249 70.096C81.4849 70.096 81.2589 70.064 81.0469 70C80.8389 69.932 80.6569 69.83 80.5009 69.694C80.3449 69.558 80.2209 69.388 80.1289 69.184C80.0409 68.98 79.9969 68.742 79.9969 68.47C79.9969 68.23 80.0609 68 80.1889 67.78C80.3209 67.556 80.5329 67.356 80.8249 67.18C81.1209 67.004 81.5049 66.86 81.9769 66.748C82.4529 66.636 83.0369 66.572 83.7289 66.556V66.112C83.7289 65.652 83.6309 65.308 83.4349 65.08C83.2389 64.852 82.9509 64.738 82.5709 64.738C82.3149 64.738 82.0989 64.77 81.9229 64.834C81.7509 64.898 81.6009 64.97 81.4729 65.05C81.3489 65.126 81.2389 65.196 81.1429 65.26C81.0509 65.324 80.9549 65.356 80.8549 65.356C80.7749 65.356 80.7049 65.334 80.6449 65.29C80.5889 65.246 80.5429 65.194 80.5069 65.134L80.2969 64.756ZM88.5451 65.074C88.7411 64.674 88.9771 64.36 89.2531 64.132C89.5291 63.904 89.8611 63.79 90.2491 63.79C90.3811 63.79 90.5051 63.806 90.6211 63.838C90.7411 63.866 90.8451 63.91 90.9331 63.97L90.8551 64.852C90.8271 64.96 90.7611 65.014 90.6571 65.014C90.6011 65.014 90.5171 65.004 90.4051 64.984C90.2931 64.96 90.1731 64.948 90.0451 64.948C89.8571 64.948 89.6911 64.976 89.5471 65.032C89.4031 65.084 89.2731 65.164 89.1571 65.272C89.0451 65.376 88.9451 65.506 88.8571 65.662C88.7691 65.814 88.6871 65.988 88.6111 66.184V70H87.4411V63.904H88.1131C88.2411 63.904 88.3271 63.928 88.3711 63.976C88.4191 64.02 88.4531 64.1 88.4731 64.216L88.5451 65.074ZM96.5547 65.38C96.3627 65.128 96.1547 64.952 95.9307 64.852C95.7107 64.752 95.4627 64.702 95.1867 64.702C94.6507 64.702 94.2347 64.896 93.9387 65.284C93.6467 65.668 93.5007 66.23 93.5007 66.97C93.5007 67.358 93.5327 67.69 93.5967 67.966C93.6647 68.238 93.7607 68.462 93.8847 68.638C94.0127 68.81 94.1687 68.938 94.3527 69.022C94.5367 69.102 94.7447 69.142 94.9767 69.142C95.3167 69.142 95.6107 69.066 95.8587 68.914C96.1067 68.762 96.3387 68.548 96.5547 68.272V65.38ZM97.7307 61.144V70H97.0227C96.8587 70 96.7567 69.922 96.7167 69.766L96.6147 69.064C96.3547 69.372 96.0587 69.62 95.7267 69.808C95.3987 69.992 95.0187 70.084 94.5867 70.084C94.2387 70.084 93.9227 70.016 93.6387 69.88C93.3587 69.744 93.1187 69.546 92.9187 69.286C92.7187 69.022 92.5647 68.696 92.4567 68.308C92.3487 67.92 92.2947 67.474 92.2947 66.97C92.2947 66.518 92.3547 66.098 92.4747 65.71C92.5947 65.322 92.7687 64.986 92.9967 64.702C93.2247 64.418 93.5007 64.196 93.8247 64.036C94.1487 63.872 94.5147 63.79 94.9227 63.79C95.2907 63.79 95.6027 63.85 95.8587 63.97C96.1187 64.09 96.3507 64.26 96.5547 64.48V61.144H97.7307Z" fill="#1D3A70"/>
</g>
<defs>
<filter id="filter0_d_316_4604" x="-48" y="-46" width="215" height="182" filterUnits="userSpaceOnUse" color-interpolation-filters="sRGB">
<feFlood flood-opacity="0" result="BackgroundImageFix"/>
<feColorMatrix in="SourceAlpha" type="matrix" values="0 0 0 0 0 0 0 0 0 0 0 0 0 0 0 0 0 0 127 0" result="hardAlpha"/>
<feOffset dy="2"/>
<feGaussianBlur stdDeviation="24"/>
<feColorMatrix type="matrix" values="0 0 0 0 0 0 0 0 0 0 0 0 0 0 0 0 0 0 0.04 0"/>
<feBlend mode="normal" in2="BackgroundImageFix" result="effect1_dropShadow_316_4604"/>
<feBlend mode="normal" in="SourceGraphic" in2="effect1_dropShadow_316_4604" result="shape"/>
</filter>
<clipPath id="clip0_316_4604">
<rect width="119" height="86" fill="white"/>
</clipPath>
</defs>
</svg>
