<svg width="111" height="86" viewBox="0 0 111 86" fill="none" xmlns="http://www.w3.org/2000/svg">
<g clip-path="url(#clip0_316_4622)">
<g filter="url(#filter0_d_316_4622)">
<rect width="119" height="86" rx="12" fill="white"/>
</g>
<path fill-rule="evenodd" clip-rule="evenodd" d="M77 14H43V16.4138H77V14ZM60.68 22.6207H58.3V36.4138H60.68V22.6207ZM77 41.5862H43V44H77V41.5862ZM54.1605 22.6207H56.753L51.6768 36.3517H48.2768L43.2006 22.6207H45.7931L49.9768 33.5052L54.1605 22.6207ZM67.48 36.4138V32.9655H68.5H71.9C74.7167 32.9655 77 30.6497 77 27.7931C77 24.9365 74.7167 22.6207 71.9 22.6207H65.1V36.4138H67.48ZM67.99 24.6034V30.8103H72.75C74.0644 30.8103 75.13 29.4209 75.13 27.7069C75.13 25.9929 74.0644 24.6034 72.75 24.6034H67.99Z" fill="#1D3A70"/>
<path d="M44.0743 65.818C44.3983 65.818 44.6823 65.776 44.9263 65.692C45.1743 65.608 45.3803 65.49 45.5443 65.338C45.7123 65.182 45.8383 64.998 45.9223 64.786C46.0063 64.57 46.0483 64.332 46.0483 64.072C46.0483 63.548 45.8843 63.136 45.5563 62.836C45.2323 62.536 44.7383 62.386 44.0743 62.386H42.7423V65.818H44.0743ZM44.0743 61.384C44.6263 61.384 45.1063 61.448 45.5143 61.576C45.9223 61.704 46.2603 61.886 46.5283 62.122C46.7963 62.354 46.9943 62.636 47.1223 62.968C47.2543 63.3 47.3203 63.668 47.3203 64.072C47.3203 64.476 47.2503 64.848 47.1103 65.188C46.9703 65.524 46.7643 65.814 46.4923 66.058C46.2203 66.302 45.8803 66.492 45.4723 66.628C45.0683 66.76 44.6023 66.826 44.0743 66.826H42.7423V70H41.4643V61.384H44.0743ZM50.4885 65.074C50.6845 64.674 50.9205 64.36 51.1965 64.132C51.4725 63.904 51.8045 63.79 52.1925 63.79C52.3245 63.79 52.4485 63.806 52.5645 63.838C52.6845 63.866 52.7885 63.91 52.8765 63.97L52.7985 64.852C52.7705 64.96 52.7045 65.014 52.6005 65.014C52.5445 65.014 52.4605 65.004 52.3485 64.984C52.2365 64.96 52.1165 64.948 51.9885 64.948C51.8005 64.948 51.6345 64.976 51.4905 65.032C51.3465 65.084 51.2165 65.164 51.1005 65.272C50.9885 65.376 50.8885 65.506 50.8005 65.662C50.7125 65.814 50.6305 65.988 50.5545 66.184V70H49.3845V63.904H50.0565C50.1845 63.904 50.2705 63.928 50.3145 63.976C50.3625 64.02 50.3965 64.1 50.4165 64.216L50.4885 65.074ZM57.1544 63.808C57.6024 63.808 58.0064 63.882 58.3664 64.03C58.7304 64.174 59.0384 64.384 59.2904 64.66C59.5464 64.932 59.7424 65.262 59.8784 65.65C60.0144 66.034 60.0824 66.466 60.0824 66.946C60.0824 67.426 60.0144 67.86 59.8784 68.248C59.7424 68.636 59.5464 68.966 59.2904 69.238C59.0384 69.51 58.7304 69.72 58.3664 69.868C58.0064 70.012 57.6024 70.084 57.1544 70.084C56.7024 70.084 56.2944 70.012 55.9304 69.868C55.5704 69.72 55.2624 69.51 55.0064 69.238C54.7504 68.966 54.5524 68.636 54.4124 68.248C54.2764 67.86 54.2084 67.426 54.2084 66.946C54.2084 66.466 54.2764 66.034 54.4124 65.65C54.5524 65.262 54.7504 64.932 55.0064 64.66C55.2624 64.384 55.5704 64.174 55.9304 64.03C56.2944 63.882 56.7024 63.808 57.1544 63.808ZM57.1544 69.172C57.7304 69.172 58.1604 68.978 58.4444 68.59C58.7284 68.202 58.8704 67.656 58.8704 66.952C58.8704 66.248 58.7284 65.702 58.4444 65.314C58.1604 64.922 57.7304 64.726 57.1544 64.726C56.5704 64.726 56.1344 64.922 55.8464 65.314C55.5624 65.702 55.4204 66.248 55.4204 66.952C55.4204 67.656 55.5624 68.202 55.8464 68.59C56.1344 68.978 56.5704 69.172 57.1544 69.172ZM62.6558 70V64.864L62.0198 64.786C61.9278 64.766 61.8518 64.734 61.7918 64.69C61.7358 64.642 61.7078 64.574 61.7078 64.486V64H62.6558V63.706C62.6558 63.334 62.7138 62.992 62.8298 62.68C62.9498 62.364 63.1278 62.092 63.3638 61.864C63.6038 61.636 63.8998 61.46 64.2518 61.336C64.6078 61.208 65.0238 61.144 65.4998 61.144C65.6518 61.144 65.8118 61.154 65.9798 61.174C66.1478 61.194 66.2898 61.224 66.4058 61.264L66.3638 61.876C66.3558 61.956 66.3058 61.998 66.2138 62.002C66.1218 62.006 65.9938 62.008 65.8298 62.008C65.4658 62.008 65.1558 62.044 64.8998 62.116C64.6438 62.188 64.4338 62.296 64.2698 62.44C64.1058 62.584 63.9858 62.766 63.9098 62.986C63.8338 63.202 63.7958 63.454 63.7958 63.742V64H67.5038V70H66.3278V64.852H63.8318V70H62.6558ZM71.397 61.144V70H70.221V61.144H71.397ZM78.1061 66.274C78.1061 66.042 78.0721 65.828 78.0041 65.632C77.9401 65.436 77.8441 65.266 77.7161 65.122C77.5881 64.978 77.4321 64.866 77.2481 64.786C77.0641 64.706 76.8521 64.666 76.6121 64.666C76.1201 64.666 75.7321 64.808 75.4481 65.092C75.1681 65.376 74.9901 65.77 74.9141 66.274H78.1061ZM79.0721 69.13C78.9281 69.298 78.7621 69.444 78.5741 69.568C78.3861 69.688 78.1861 69.786 77.9741 69.862C77.7621 69.938 77.5421 69.994 77.3141 70.03C77.0901 70.066 76.8681 70.084 76.6481 70.084C76.2281 70.084 75.8381 70.014 75.4781 69.874C75.1221 69.73 74.8121 69.522 74.5481 69.25C74.2881 68.974 74.0841 68.634 73.9361 68.23C73.7921 67.822 73.7201 67.354 73.7201 66.826C73.7201 66.402 73.7861 66.008 73.9181 65.644C74.0501 65.276 74.2381 64.956 74.4821 64.684C74.7301 64.412 75.0321 64.198 75.3881 64.042C75.7441 63.886 76.1441 63.808 76.5881 63.808C76.9601 63.808 77.3021 63.87 77.6141 63.994C77.9301 64.114 78.2021 64.29 78.4301 64.522C78.6581 64.754 78.8361 65.04 78.9641 65.38C79.0961 65.72 79.1621 66.108 79.1621 66.544C79.1621 66.724 79.1421 66.846 79.1021 66.91C79.0621 66.97 78.9881 67 78.8801 67H74.8841C74.8961 67.364 74.9481 67.682 75.0401 67.954C75.1321 68.222 75.2581 68.446 75.4181 68.626C75.5821 68.806 75.7761 68.94 76.0001 69.028C76.2241 69.116 76.4741 69.16 76.7501 69.16C77.0101 69.16 77.2341 69.13 77.4221 69.07C77.6141 69.01 77.7781 68.946 77.9141 68.878C78.0541 68.806 78.1701 68.74 78.2621 68.68C78.3581 68.62 78.4421 68.59 78.5141 68.59C78.6101 68.59 78.6841 68.626 78.7361 68.698L79.0721 69.13Z" fill="#1D3A70"/>
</g>
<defs>
<filter id="filter0_d_316_4622" x="-48" y="-46" width="215" height="182" filterUnits="userSpaceOnUse" color-interpolation-filters="sRGB">
<feFlood flood-opacity="0" result="BackgroundImageFix"/>
<feColorMatrix in="SourceAlpha" type="matrix" values="0 0 0 0 0 0 0 0 0 0 0 0 0 0 0 0 0 0 127 0" result="hardAlpha"/>
<feOffset dy="2"/>
<feGaussianBlur stdDeviation="24"/>
<feColorMatrix type="matrix" values="0 0 0 0 0 0 0 0 0 0 0 0 0 0 0 0 0 0 0.04 0"/>
<feBlend mode="normal" in2="BackgroundImageFix" result="effect1_dropShadow_316_4622"/>
<feBlend mode="normal" in="SourceGraphic" in2="effect1_dropShadow_316_4622" result="shape"/>
</filter>
<clipPath id="clip0_316_4622">
<rect width="119" height="86" fill="white"/>
</clipPath>
</defs>
</svg>
