<svg width="116" height="86" viewBox="0 0 116 86" fill="none" xmlns="http://www.w3.org/2000/svg">
<g clip-path="url(#clip0_316_4593)">
<g filter="url(#filter0_d_316_4593)">
<rect x="-3" width="119" height="86" rx="12" fill="white"/>
</g>
<path fill-rule="evenodd" clip-rule="evenodd" d="M75.3843 18.8988H73.5972V17.027C73.5972 16.6706 73.3216 16.3817 72.9815 16.3817H70.7774V14.6893C70.7771 14.349 70.525 14.0673 70.2011 14.0451C62.2275 13.5163 58.3297 17.8268 57 19.7439C55.6742 17.8258 51.7872 13.5132 43.798 14.0451C43.474 14.0673 43.2219 14.349 43.2216 14.6893V16.3817H41.0185C40.6784 16.3817 40.4028 16.6706 40.4028 17.027V18.8988H38.6157C38.2757 18.8988 38 19.1876 38 19.544V43.3537C38.0005 43.71 38.2757 43.9989 38.6157 44C38.66 43.9998 38.7041 43.995 38.7475 43.9856C38.8744 43.9546 51.561 41.0995 56.7512 43.5063H56.7649C56.7681 43.5075 56.7714 43.5087 56.7746 43.5097L56.7798 43.5113L56.7934 43.5151C56.8001 43.5168 56.8067 43.5186 56.8131 43.5207C56.8255 43.5274 56.8384 43.5333 56.8515 43.5382C56.8878 43.546 56.9246 43.5508 56.9616 43.5527H56.998H57.0049H57.0285C57.0689 43.5516 57.1091 43.5464 57.1485 43.5372C57.1554 43.5372 57.1617 43.5333 57.1678 43.5295C57.1722 43.5267 57.1765 43.5241 57.181 43.5228C57.2006 43.5177 57.22 43.5115 57.239 43.5042H57.2488C62.4341 41.1026 75.1256 43.9536 75.2525 43.9835C75.2959 43.9929 75.34 43.9978 75.3843 43.9979C75.7243 43.9968 75.9995 43.708 76 43.3517V19.5419C75.9989 19.1864 75.7236 18.8988 75.3843 18.8988ZM72.3658 17.6722V39.3329C70.4804 38.8763 65.5391 38.1991 59.1185 41.1202C60.9017 39.2648 64.3313 36.923 70.1214 37.3209C70.2915 37.3332 70.4587 37.2704 70.5827 37.1477C70.7076 37.026 70.7788 36.8555 70.7794 36.6767V17.6732L72.3658 17.6722ZM69.545 35.9985V15.3036C61.3905 15.0057 58.136 20.1717 57.6157 21.0973V40.9171C59.3074 38.8752 62.9957 35.7635 69.545 35.9985ZM44.455 15.3015C52.6055 14.9872 55.864 20.1696 56.3843 21.0952V40.9161C54.7526 38.9484 51.2788 35.9871 45.1454 35.9871C44.9192 35.9871 44.6881 35.9871 44.4569 35.9985L44.455 15.3015ZM43.2226 17.6722H41.6342L41.6361 39.3329C43.5186 38.8773 48.459 38.196 54.8765 41.116C53.0895 39.2649 49.6539 36.9251 43.8806 37.3209C43.7104 37.3337 43.543 37.2708 43.4193 37.1477C43.2944 37.026 43.2232 36.8555 43.2226 36.6767V17.6722ZM39.2324 42.5621V20.1954H40.4028V40.1801C40.4028 40.3896 40.4999 40.5861 40.6632 40.707C40.8265 40.8279 41.0356 40.8582 41.224 40.7883C41.2762 40.7687 45.5113 39.2721 51.7479 41.2779C46.8784 41.1026 41.2467 42.1468 39.2324 42.5621ZM62.2767 41.2768C67.1383 41.1057 72.7563 42.1498 74.7676 42.5621L74.7666 20.1903H73.5962V40.1801C73.5961 40.3894 73.4991 40.5856 73.3361 40.7064C73.1731 40.8273 72.9643 40.8578 72.776 40.7883C72.7248 40.7697 68.4828 39.2927 62.2767 41.2768Z" fill="#1D3A70"/>
<path d="M37.8357 68.962L37.8297 70H32.4897V61.384H37.8297V62.422H33.7737V65.152H37.0377V66.154H33.7737V68.962H37.8357ZM40.0855 65.896H43.0855V66.892H40.0855V65.896ZM48.9584 68.986C49.2824 68.986 49.5584 68.948 49.7864 68.872C50.0184 68.796 50.2064 68.692 50.3504 68.56C50.4984 68.428 50.6064 68.272 50.6744 68.092C50.7424 67.908 50.7764 67.708 50.7764 67.492C50.7764 67.064 50.6284 66.728 50.3324 66.484C50.0364 66.236 49.5784 66.112 48.9584 66.112H47.1584V68.986H48.9584ZM47.1584 62.386V65.206H48.6284C49.2564 65.206 49.7224 65.08 50.0264 64.828C50.3344 64.572 50.4884 64.228 50.4884 63.796C50.4884 63.304 50.3424 62.946 50.0504 62.722C49.7584 62.498 49.3044 62.386 48.6884 62.386H47.1584ZM48.6884 61.384C49.2284 61.384 49.6904 61.436 50.0744 61.54C50.4624 61.644 50.7804 61.794 51.0284 61.99C51.2764 62.186 51.4584 62.424 51.5744 62.704C51.6944 62.98 51.7544 63.294 51.7544 63.646C51.7544 63.854 51.7224 64.054 51.6584 64.246C51.5944 64.438 51.4964 64.618 51.3644 64.786C51.2324 64.95 51.0664 65.098 50.8664 65.23C50.6664 65.362 50.4304 65.472 50.1584 65.56C51.4104 65.808 52.0364 66.462 52.0364 67.522C52.0364 67.89 51.9684 68.226 51.8324 68.53C51.6964 68.83 51.4984 69.09 51.2384 69.31C50.9784 69.53 50.6584 69.7 50.2784 69.82C49.8984 69.94 49.4664 70 48.9824 70H45.8804V61.384H48.6884ZM56.9376 63.808C57.3856 63.808 57.7896 63.882 58.1496 64.03C58.5136 64.174 58.8216 64.384 59.0736 64.66C59.3296 64.932 59.5256 65.262 59.6616 65.65C59.7976 66.034 59.8656 66.466 59.8656 66.946C59.8656 67.426 59.7976 67.86 59.6616 68.248C59.5256 68.636 59.3296 68.966 59.0736 69.238C58.8216 69.51 58.5136 69.72 58.1496 69.868C57.7896 70.012 57.3856 70.084 56.9376 70.084C56.4856 70.084 56.0776 70.012 55.7136 69.868C55.3536 69.72 55.0456 69.51 54.7896 69.238C54.5336 68.966 54.3356 68.636 54.1956 68.248C54.0596 67.86 53.9916 67.426 53.9916 66.946C53.9916 66.466 54.0596 66.034 54.1956 65.65C54.3356 65.262 54.5336 64.932 54.7896 64.66C55.0456 64.384 55.3536 64.174 55.7136 64.03C56.0776 63.882 56.4856 63.808 56.9376 63.808ZM56.9376 69.172C57.5136 69.172 57.9436 68.978 58.2276 68.59C58.5116 68.202 58.6536 67.656 58.6536 66.952C58.6536 66.248 58.5116 65.702 58.2276 65.314C57.9436 64.922 57.5136 64.726 56.9376 64.726C56.3536 64.726 55.9176 64.922 55.6296 65.314C55.3456 65.702 55.2036 66.248 55.2036 66.952C55.2036 67.656 55.3456 68.202 55.6296 68.59C55.9176 68.978 56.3536 69.172 56.9376 69.172ZM64.7696 63.808C65.2176 63.808 65.6216 63.882 65.9816 64.03C66.3456 64.174 66.6536 64.384 66.9056 64.66C67.1616 64.932 67.3576 65.262 67.4936 65.65C67.6296 66.034 67.6976 66.466 67.6976 66.946C67.6976 67.426 67.6296 67.86 67.4936 68.248C67.3576 68.636 67.1616 68.966 66.9056 69.238C66.6536 69.51 66.3456 69.72 65.9816 69.868C65.6216 70.012 65.2176 70.084 64.7696 70.084C64.3176 70.084 63.9096 70.012 63.5456 69.868C63.1856 69.72 62.8776 69.51 62.6216 69.238C62.3656 68.966 62.1676 68.636 62.0276 68.248C61.8916 67.86 61.8236 67.426 61.8236 66.946C61.8236 66.466 61.8916 66.034 62.0276 65.65C62.1676 65.262 62.3656 64.932 62.6216 64.66C62.8776 64.384 63.1856 64.174 63.5456 64.03C63.9096 63.882 64.3176 63.808 64.7696 63.808ZM64.7696 69.172C65.3456 69.172 65.7756 68.978 66.0596 68.59C66.3436 68.202 66.4856 67.656 66.4856 66.952C66.4856 66.248 66.3436 65.702 66.0596 65.314C65.7756 64.922 65.3456 64.726 64.7696 64.726C64.1856 64.726 63.7496 64.922 63.4616 65.314C63.1776 65.702 63.0356 66.248 63.0356 66.952C63.0356 67.656 63.1776 68.202 63.4616 68.59C63.7496 68.978 64.1856 69.172 64.7696 69.172ZM71.1736 61.144V66.322H71.4496C71.5336 66.322 71.6036 66.31 71.6596 66.286C71.7156 66.262 71.7736 66.214 71.8336 66.142L73.6576 64.132C73.7136 64.056 73.7756 64 73.8436 63.964C73.9116 63.924 73.9976 63.904 74.1016 63.904H75.1696L73.0156 66.262C72.8996 66.41 72.7756 66.524 72.6436 66.604C72.7196 66.656 72.7856 66.716 72.8416 66.784C72.9016 66.852 72.9596 66.926 73.0156 67.006L75.3076 70H74.2576C74.1616 70 74.0776 69.984 74.0056 69.952C73.9376 69.92 73.8756 69.862 73.8196 69.778L71.9356 67.33C71.8756 67.238 71.8156 67.18 71.7556 67.156C71.6956 67.128 71.6056 67.114 71.4856 67.114H71.1736V70H70.0036V61.144H71.1736ZM80.7734 64.954C80.7414 65.006 80.7074 65.044 80.6714 65.068C80.6354 65.088 80.5894 65.098 80.5334 65.098C80.4694 65.098 80.3974 65.076 80.3174 65.032C80.2414 64.988 80.1474 64.94 80.0354 64.888C79.9274 64.836 79.7994 64.788 79.6514 64.744C79.5034 64.7 79.3274 64.678 79.1234 64.678C78.9554 64.678 78.8014 64.7 78.6614 64.744C78.5254 64.784 78.4094 64.842 78.3134 64.918C78.2174 64.99 78.1434 65.078 78.0914 65.182C78.0394 65.282 78.0134 65.39 78.0134 65.506C78.0134 65.658 78.0574 65.784 78.1454 65.884C78.2374 65.984 78.3554 66.07 78.4994 66.142C78.6474 66.214 78.8134 66.28 78.9974 66.34C79.1854 66.396 79.3754 66.456 79.5674 66.52C79.7634 66.584 79.9534 66.658 80.1374 66.742C80.3254 66.822 80.4914 66.924 80.6354 67.048C80.7834 67.168 80.9014 67.314 80.9894 67.486C81.0814 67.658 81.1274 67.868 81.1274 68.116C81.1274 68.4 81.0754 68.664 80.9714 68.908C80.8714 69.148 80.7214 69.356 80.5214 69.532C80.3254 69.708 80.0814 69.846 79.7894 69.946C79.4974 70.046 79.1634 70.096 78.7874 70.096C78.3674 70.096 77.9794 70.026 77.6234 69.886C77.2674 69.746 76.9694 69.568 76.7294 69.352L77.0054 68.902C77.0374 68.846 77.0774 68.804 77.1254 68.776C77.1734 68.744 77.2374 68.728 77.3174 68.728C77.3934 68.728 77.4714 68.756 77.5514 68.812C77.6314 68.868 77.7274 68.93 77.8394 68.998C77.9514 69.062 78.0874 69.122 78.2474 69.178C78.4074 69.23 78.6074 69.256 78.8474 69.256C79.0474 69.256 79.2214 69.232 79.3694 69.184C79.5174 69.132 79.6394 69.064 79.7354 68.98C79.8354 68.892 79.9094 68.792 79.9574 68.68C80.0054 68.568 80.0294 68.45 80.0294 68.326C80.0294 68.166 79.9834 68.034 79.8914 67.93C79.8034 67.822 79.6854 67.73 79.5374 67.654C79.3934 67.578 79.2274 67.512 79.0394 67.456C78.8514 67.4 78.6594 67.34 78.4634 67.276C78.2674 67.212 78.0754 67.138 77.8874 67.054C77.6994 66.97 77.5314 66.864 77.3834 66.736C77.2394 66.608 77.1214 66.452 77.0294 66.268C76.9414 66.084 76.8974 65.86 76.8974 65.596C76.8974 65.36 76.9454 65.134 77.0414 64.918C77.1414 64.702 77.2834 64.512 77.4674 64.348C77.6554 64.184 77.8854 64.054 78.1574 63.958C78.4334 63.858 78.7474 63.808 79.0994 63.808C79.5034 63.808 79.8674 63.872 80.1914 64C80.5194 64.128 80.7994 64.304 81.0314 64.528L80.7734 64.954Z" fill="#1D3A70"/>
</g>
<defs>
<filter id="filter0_d_316_4593" x="-51" y="-46" width="215" height="182" filterUnits="userSpaceOnUse" color-interpolation-filters="sRGB">
<feFlood flood-opacity="0" result="BackgroundImageFix"/>
<feColorMatrix in="SourceAlpha" type="matrix" values="0 0 0 0 0 0 0 0 0 0 0 0 0 0 0 0 0 0 127 0" result="hardAlpha"/>
<feOffset dy="2"/>
<feGaussianBlur stdDeviation="24"/>
<feColorMatrix type="matrix" values="0 0 0 0 0 0 0 0 0 0 0 0 0 0 0 0 0 0 0.04 0"/>
<feBlend mode="normal" in2="BackgroundImageFix" result="effect1_dropShadow_316_4593"/>
<feBlend mode="normal" in="SourceGraphic" in2="effect1_dropShadow_316_4593" result="shape"/>
</filter>
<clipPath id="clip0_316_4593">
<rect width="119" height="86" fill="white" transform="translate(-3)"/>
</clipPath>
</defs>
</svg>
