<svg width="119" height="86" viewBox="0 0 119 86" fill="none" xmlns="http://www.w3.org/2000/svg">
<g clip-path="url(#clip0_316_4573)">
<g filter="url(#filter0_d_316_4573)">
<rect width="119" height="86" rx="12" fill="white"/>
</g>
<path fill-rule="evenodd" clip-rule="evenodd" d="M54.0847 20.8298L50.1636 19.2021C49.9608 19.1064 49.8594 18.9468 49.8594 18.7553C49.8594 18.5638 49.9946 18.3723 50.1636 18.3085L59.6284 14.3511C59.7636 14.2872 59.8988 14.2872 60.034 14.3511C60.034 14.3511 69.3298 18.2447 69.4312 18.2766C69.9044 18.4681 69.9382 18.6596 69.9382 18.9149V25.5213L70.8509 27.6277C70.9185 27.7872 70.9185 27.9468 70.8171 28.0745C70.7495 28.234 70.5805 28.2979 70.4115 28.2979H68.4171C68.2481 28.2979 68.0791 28.2021 67.9777 28.0745C67.8763 27.9468 67.8763 27.7872 67.9439 27.6277L68.9918 25.5213V19.3298L65.5439 20.8617C66.2875 21.9149 66.6932 23.1915 66.6932 24.4681C66.6932 28.0745 63.6171 30.9787 59.7974 30.9787C55.9777 30.9787 52.9016 28.0426 52.9016 24.4681C52.9016 23.1596 53.3073 21.9149 54.0847 20.8298ZM59.7636 30.0213C63.0087 30.0213 65.6453 27.5319 65.6453 24.4681C65.6453 23.3191 65.2735 22.2021 64.5298 21.2447L60.0002 23.1596C59.9326 23.1915 59.865 23.1915 59.7974 23.1915C59.7298 23.1915 59.6622 23.1915 59.5946 23.1596L54.9974 21.2128C54.2875 22.1702 53.8819 23.2872 53.8819 24.4681C53.8819 27.5319 56.5185 30.0213 59.7636 30.0213ZM69.1946 27.3404L69.4312 26.8617L69.634 27.3404H69.1946ZM68.0453 18.7553L59.8312 15.3085L51.6171 18.7553L59.8312 22.2021L68.0453 18.7553Z" fill="#1D3A70"/>
<path d="M50.1636 19.2021L49.9502 19.6543L49.9609 19.6594L49.9719 19.6639L50.1636 19.2021ZM54.0847 20.8298L54.4912 21.121L54.8578 20.6093L54.2764 20.368L54.0847 20.8298ZM50.1636 18.3085L50.3403 18.7763L50.3484 18.7732L50.3565 18.7698L50.1636 18.3085ZM59.6284 14.3511L59.8213 14.8124L59.8317 14.808L59.8418 14.8032L59.6284 14.3511ZM60.034 14.3511L59.8206 14.8032L59.8306 14.808L59.8409 14.8122L60.034 14.3511ZM69.4312 18.2766L69.6188 17.8131L69.6003 17.8056L69.5813 17.7997L69.4312 18.2766ZM69.9382 25.5213H69.4382V25.6249L69.4795 25.7201L69.9382 25.5213ZM70.8509 27.6277L71.3113 27.4326L71.3097 27.4289L70.8509 27.6277ZM70.8171 28.0745L70.4256 27.7635L70.3833 27.8168L70.3567 27.8794L70.8171 28.0745ZM67.9439 27.6277L67.4962 27.405L67.4894 27.4186L67.4835 27.4326L67.9439 27.6277ZM68.9918 25.5213L69.4394 25.744L69.4918 25.6388V25.5213H68.9918ZM68.9918 19.3298H69.4918V18.5605L68.7888 18.8729L68.9918 19.3298ZM65.5439 20.8617L65.3409 20.4048L64.7839 20.6522L65.1354 21.1501L65.5439 20.8617ZM64.5298 21.2447L64.9247 20.938L64.689 20.6345L64.3351 20.7841L64.5298 21.2447ZM60.0002 23.1596L59.8055 22.699L59.7961 22.703L59.7868 22.7074L60.0002 23.1596ZM59.5946 23.1596L59.808 22.7074L59.7989 22.7031L59.7896 22.6992L59.5946 23.1596ZM54.9974 21.2128L55.1924 20.7523L54.8301 20.5989L54.5958 20.915L54.9974 21.2128ZM69.4312 26.8617L69.8916 26.6667L69.4662 25.6625L68.983 26.6402L69.4312 26.8617ZM69.1946 27.3404L68.7463 27.1189L68.3897 27.8404H69.1946V27.3404ZM69.634 27.3404V27.8404H70.3889L70.0944 27.1454L69.634 27.3404ZM59.8312 15.3085L60.0247 14.8475L59.8312 14.7663L59.6377 14.8475L59.8312 15.3085ZM68.0453 18.7553L68.2388 19.2164L69.3375 18.7553L68.2388 18.2943L68.0453 18.7553ZM51.6171 18.7553L51.4237 18.2943L50.3249 18.7553L51.4237 19.2164L51.6171 18.7553ZM59.8312 22.2021L59.6377 22.6632L59.8312 22.7444L60.0247 22.6632L59.8312 22.2021ZM49.9719 19.6639L53.893 21.2916L54.2764 20.368L50.3553 18.7403L49.9719 19.6639ZM49.3594 18.7553C49.3594 19.1594 49.5904 19.4844 49.9502 19.6543L50.377 18.75C50.3603 18.742 50.3519 18.7358 50.349 18.7334C50.3463 18.7312 50.3479 18.732 50.351 18.7366C50.3542 18.7414 50.3568 18.747 50.3583 18.7522C50.3598 18.7572 50.3594 18.7588 50.3594 18.7553H49.3594ZM49.9869 17.8408C49.6219 17.9786 49.3594 18.3574 49.3594 18.7553H50.3594C50.3594 18.7661 50.3575 18.7716 50.3574 18.772C50.3573 18.7724 50.358 18.7704 50.3599 18.7676C50.3619 18.7647 50.3632 18.7638 50.362 18.7648C50.3609 18.7657 50.3543 18.771 50.3403 18.7763L49.9869 17.8408ZM59.4355 13.8898L49.9707 17.8472L50.3565 18.7698L59.8213 14.8124L59.4355 13.8898ZM60.2475 13.8989C59.9771 13.7713 59.6853 13.7713 59.4149 13.8989L59.8418 14.8032C59.8465 14.801 59.8473 14.8012 59.8447 14.8018C59.8419 14.8024 59.8371 14.8032 59.8312 14.8032C59.8253 14.8032 59.8206 14.8024 59.8178 14.8018C59.8151 14.8012 59.816 14.801 59.8206 14.8032L60.2475 13.8989ZM69.5813 17.7997C69.6017 17.8061 69.5916 17.8028 69.499 17.7648C69.4262 17.7348 69.3218 17.6917 69.19 17.637C68.9265 17.5276 68.5554 17.373 68.1126 17.1883C67.2271 16.8189 66.0558 16.3293 64.8875 15.8406C63.7193 15.3519 62.5542 14.8642 61.6812 14.4987C61.2447 14.316 60.8812 14.1638 60.6268 14.0572C60.4996 14.004 60.3997 13.9621 60.3316 13.9336C60.2975 13.9194 60.2714 13.9084 60.2539 13.9011C60.2451 13.8974 60.2384 13.8946 60.2339 13.8927C60.2317 13.8918 60.23 13.8911 60.2289 13.8906C60.2283 13.8904 60.2279 13.8902 60.2276 13.8901C60.2275 13.89 60.2274 13.89 60.2273 13.8899C60.2272 13.8899 60.2272 13.8899 60.034 14.3511C59.8409 14.8122 59.8409 14.8123 59.841 14.8123C59.841 14.8123 59.8411 14.8124 59.8413 14.8124C59.8416 14.8125 59.842 14.8127 59.8425 14.813C59.8437 14.8134 59.8454 14.8141 59.8476 14.8151C59.8521 14.8169 59.8587 14.8197 59.8675 14.8234C59.8851 14.8308 59.9112 14.8417 59.9453 14.856C60.0134 14.8845 60.1133 14.9264 60.2405 14.9796C60.4949 15.0862 60.8584 15.2384 61.295 15.4212C62.1681 15.7867 63.3333 16.2744 64.5016 16.7631C65.67 17.2518 66.8416 17.7416 67.7276 18.1112C68.1705 18.296 68.5423 18.4509 68.8066 18.5606C68.9387 18.6154 69.0444 18.6591 69.1189 18.6897C69.1736 18.7122 69.248 18.7431 69.2811 18.7535L69.5813 17.7997ZM70.4382 18.9149C70.4382 18.7762 70.4344 18.534 70.2811 18.2988C70.1318 18.0697 69.8938 17.9244 69.6188 17.8131L69.2437 18.7401C69.4418 18.8203 69.4574 18.8665 69.4433 18.8448C69.4252 18.817 69.4382 18.7983 69.4382 18.9149H70.4382ZM70.4382 25.5213V18.9149H69.4382V25.5213H70.4382ZM71.3097 27.4289L70.397 25.3225L69.4795 25.7201L70.3921 27.8264L71.3097 27.4289ZM71.2086 28.3855C71.4597 28.0694 71.4247 27.7002 71.3113 27.4326L70.3905 27.8227C70.4018 27.8494 70.3972 27.8524 70.3982 27.8352C70.3987 27.8259 70.4008 27.813 70.4062 27.7985C70.4117 27.7838 70.4189 27.7719 70.4256 27.7635L71.2086 28.3855ZM70.4115 28.7979C70.6754 28.7979 71.0972 28.695 71.2775 28.2695L70.3567 27.8794C70.3649 27.8601 70.3774 27.8414 70.3927 27.8259C70.4075 27.8109 70.421 27.8027 70.4288 27.7988C70.4416 27.7924 70.4374 27.7979 70.4115 27.7979V28.7979ZM68.4171 28.7979H70.4115V27.7979H68.4171V28.7979ZM67.5862 28.3855C67.7666 28.6126 68.0718 28.7979 68.4171 28.7979V27.7979C68.4259 27.7979 68.4205 27.7998 68.4043 27.7913C68.397 27.7875 68.3897 27.7826 68.3829 27.777C68.3762 27.7715 68.3716 27.7665 68.3692 27.7635L67.5862 28.3855ZM67.4835 27.4326C67.3701 27.7002 67.3351 28.0694 67.5862 28.3855L68.3692 27.7635C68.3759 27.7719 68.3831 27.7838 68.3886 27.7985C68.394 27.813 68.3961 27.8259 68.3966 27.8352C68.3976 27.8524 68.393 27.8494 68.4043 27.8227L67.4835 27.4326ZM68.5441 25.2986L67.4962 27.405L68.3915 27.8504L69.4394 25.744L68.5441 25.2986ZM68.4918 19.3298V25.5213H69.4918V19.3298H68.4918ZM65.7469 21.3186L69.1948 19.7867L68.7888 18.8729L65.3409 20.4048L65.7469 21.3186ZM67.1932 24.4681C67.1932 23.0876 66.7552 21.7104 65.9523 20.5733L65.1354 21.1501C65.8199 22.1194 66.1932 23.2954 66.1932 24.4681H67.1932ZM59.7974 31.4787C63.8658 31.4787 67.1932 28.3773 67.1932 24.4681H66.1932C66.1932 27.7716 63.3684 30.4787 59.7974 30.4787V31.4787ZM52.4016 24.4681C52.4016 28.3438 55.7274 31.4787 59.7974 31.4787V30.4787C56.228 30.4787 53.4016 27.7413 53.4016 24.4681H52.4016ZM53.6783 20.5386C52.8415 21.7065 52.4016 23.0525 52.4016 24.4681H53.4016C53.4016 23.2666 53.773 22.1233 54.4912 21.121L53.6783 20.5386ZM65.1453 24.4681C65.1453 27.2291 62.76 29.5213 59.7636 29.5213V30.5213C63.2574 30.5213 66.1453 27.8347 66.1453 24.4681H65.1453ZM64.1349 21.5514C64.8104 22.4211 65.1453 23.4302 65.1453 24.4681H66.1453C66.1453 23.2081 65.7365 21.9832 64.9247 20.938L64.1349 21.5514ZM60.1949 23.6201L64.7245 21.7052L64.3351 20.7841L59.8055 22.699L60.1949 23.6201ZM59.7974 23.6915C59.8524 23.6915 60.0304 23.6982 60.2137 23.6117L59.7868 22.7074C59.7993 22.7015 59.8111 22.6974 59.8212 22.6948C59.831 22.6922 59.8378 22.6912 59.8402 22.6909C59.8423 22.6907 59.8408 22.691 59.8334 22.6912C59.8297 22.6913 59.8252 22.6914 59.8191 22.6914C59.8128 22.6915 59.8062 22.6915 59.7974 22.6915V23.6915ZM59.3811 23.6117C59.5644 23.6982 59.7424 23.6915 59.7974 23.6915V22.6915C59.7886 22.6915 59.782 22.6915 59.7757 22.6914C59.7696 22.6914 59.7651 22.6913 59.7614 22.6912C59.754 22.691 59.7526 22.6907 59.7546 22.6909C59.757 22.6912 59.7638 22.6922 59.7736 22.6948C59.7837 22.6974 59.7955 22.7015 59.808 22.7074L59.3811 23.6117ZM54.8024 21.6732L59.3996 23.62L59.7896 22.6992L55.1924 20.7523L54.8024 21.6732ZM54.3819 24.4681C54.3819 23.4053 54.7463 22.391 55.3991 21.5106L54.5958 20.915C53.8288 21.9494 53.3819 23.1692 53.3819 24.4681H54.3819ZM59.7636 29.5213C56.7672 29.5213 54.3819 27.2291 54.3819 24.4681H53.3819C53.3819 27.8347 56.2698 30.5213 59.7636 30.5213V29.5213ZM68.983 26.6402L68.7463 27.1189L69.6428 27.562L69.8794 27.0833L68.983 26.6402ZM70.0944 27.1454L69.8916 26.6667L68.9708 27.0568L69.1736 27.5355L70.0944 27.1454ZM69.1946 27.8404H69.634V26.8404H69.1946V27.8404ZM59.6377 15.7696L67.8518 19.2164L68.2388 18.2943L60.0247 14.8475L59.6377 15.7696ZM51.8106 19.2164L60.0247 15.7696L59.6377 14.8475L51.4237 18.2943L51.8106 19.2164ZM60.0247 21.7411L51.8106 18.2943L51.4237 19.2164L59.6377 22.6632L60.0247 21.7411ZM67.8518 18.2943L59.6377 21.7411L60.0247 22.6632L68.2388 19.2164L67.8518 18.2943Z" fill="#1D3A70"/>
<path fill-rule="evenodd" clip-rule="evenodd" d="M48 43.4255C48 37.2021 53.3746 32.1277 59.9662 32.1277C66.5577 32.1277 71.9324 37.2021 71.9324 43.4255C71.9324 43.6809 71.6958 43.9043 71.4254 43.9043H48.507C48.2366 43.9043 48 43.6809 48 43.4255ZM60 33.0851C54.1183 33.0851 49.3183 37.4574 49.0479 42.9468H70.9183C70.6479 37.4894 65.8817 33.0851 60 33.0851Z" fill="#1D3A70"/>
<path d="M49.0479 42.9468L48.5485 42.9222L48.5226 43.4468H49.0479V42.9468ZM70.9183 42.9468V43.4468H71.4437L71.4177 42.9221L70.9183 42.9468ZM59.9662 31.6277C53.126 31.6277 47.5 36.8993 47.5 43.4255H48.5C48.5 37.505 53.6233 32.6277 59.9662 32.6277V31.6277ZM72.4324 43.4255C72.4324 36.8993 66.8064 31.6277 59.9662 31.6277V32.6277C66.3091 32.6277 71.4324 37.505 71.4324 43.4255H72.4324ZM71.4254 44.4043C71.9445 44.4043 72.4324 43.9837 72.4324 43.4255H71.4324C71.4324 43.4114 71.4358 43.4016 71.4377 43.3974C71.4395 43.3937 71.44 43.3943 71.437 43.3971C71.4341 43.3998 71.4305 43.4021 71.4274 43.4034C71.4245 43.4046 71.4238 43.4043 71.4254 43.4043V44.4043ZM48.507 44.4043H71.4254V43.4043H48.507V44.4043ZM47.5 43.4255C47.5 43.9837 47.9879 44.4043 48.507 44.4043V43.4043C48.5086 43.4043 48.5079 43.4046 48.505 43.4034C48.5019 43.4021 48.4982 43.3998 48.4954 43.3971C48.4924 43.3943 48.4929 43.3937 48.4947 43.3974C48.4966 43.4016 48.5 43.4114 48.5 43.4255H47.5ZM49.5473 42.9714C49.8034 37.7719 54.3607 33.5851 60 33.5851V32.5851C53.876 32.5851 48.8332 37.143 48.5485 42.9222L49.5473 42.9714ZM70.9183 42.4468H49.0479V43.4468H70.9183V42.4468ZM60 33.5851C65.6362 33.5851 70.1627 37.8008 70.4189 42.9716L71.4177 42.9221C71.1331 37.1779 66.1272 32.5851 60 32.5851V33.5851Z" fill="#1D3A70"/>
<path d="M42.556 68.986C42.88 68.986 43.156 68.948 43.384 68.872C43.616 68.796 43.804 68.692 43.948 68.56C44.096 68.428 44.204 68.272 44.272 68.092C44.34 67.908 44.374 67.708 44.374 67.492C44.374 67.064 44.226 66.728 43.93 66.484C43.634 66.236 43.176 66.112 42.556 66.112H40.756V68.986H42.556ZM40.756 62.386V65.206H42.226C42.854 65.206 43.32 65.08 43.624 64.828C43.932 64.572 44.086 64.228 44.086 63.796C44.086 63.304 43.94 62.946 43.648 62.722C43.356 62.498 42.902 62.386 42.286 62.386H40.756ZM42.286 61.384C42.826 61.384 43.288 61.436 43.672 61.54C44.06 61.644 44.378 61.794 44.626 61.99C44.874 62.186 45.056 62.424 45.172 62.704C45.292 62.98 45.352 63.294 45.352 63.646C45.352 63.854 45.32 64.054 45.256 64.246C45.192 64.438 45.094 64.618 44.962 64.786C44.83 64.95 44.664 65.098 44.464 65.23C44.264 65.362 44.028 65.472 43.756 65.56C45.008 65.808 45.634 66.462 45.634 67.522C45.634 67.89 45.566 68.226 45.43 68.53C45.294 68.83 45.096 69.09 44.836 69.31C44.576 69.53 44.256 69.7 43.876 69.82C43.496 69.94 43.064 70 42.58 70H39.478V61.384H42.286ZM51.2132 67.294C50.7372 67.31 50.3332 67.348 50.0012 67.408C49.6692 67.464 49.3992 67.54 49.1912 67.636C48.9832 67.732 48.8332 67.846 48.7412 67.978C48.6492 68.106 48.6032 68.25 48.6032 68.41C48.6032 68.562 48.6272 68.694 48.6752 68.806C48.7272 68.914 48.7952 69.004 48.8792 69.076C48.9672 69.144 49.0692 69.194 49.1852 69.226C49.3012 69.258 49.4272 69.274 49.5632 69.274C49.7432 69.274 49.9072 69.256 50.0552 69.22C50.2072 69.184 50.3492 69.134 50.4812 69.07C50.6132 69.002 50.7392 68.92 50.8592 68.824C50.9792 68.728 51.0972 68.618 51.2132 68.494V67.294ZM47.7812 64.756C48.1212 64.432 48.4892 64.19 48.8852 64.03C49.2852 63.87 49.7232 63.79 50.1992 63.79C50.5472 63.79 50.8552 63.848 51.1232 63.964C51.3912 64.076 51.6172 64.234 51.8012 64.438C51.9852 64.642 52.1232 64.886 52.2152 65.17C52.3112 65.454 52.3592 65.768 52.3592 66.112V70H51.8372C51.7212 70 51.6332 69.982 51.5732 69.946C51.5132 69.906 51.4652 69.834 51.4292 69.73L51.3032 69.196C51.1472 69.34 50.9932 69.468 50.8412 69.58C50.6892 69.688 50.5292 69.782 50.3612 69.862C50.1972 69.938 50.0212 69.996 49.8332 70.036C49.6452 70.076 49.4372 70.096 49.2092 70.096C48.9692 70.096 48.7432 70.064 48.5312 70C48.3232 69.932 48.1412 69.83 47.9852 69.694C47.8292 69.558 47.7052 69.388 47.6132 69.184C47.5252 68.98 47.4812 68.742 47.4812 68.47C47.4812 68.23 47.5452 68 47.6732 67.78C47.8052 67.556 48.0172 67.356 48.3092 67.18C48.6052 67.004 48.9892 66.86 49.4612 66.748C49.9372 66.636 50.5212 66.572 51.2132 66.556V66.112C51.2132 65.652 51.1152 65.308 50.9192 65.08C50.7232 64.852 50.4352 64.738 50.0552 64.738C49.7992 64.738 49.5832 64.77 49.4072 64.834C49.2352 64.898 49.0852 64.97 48.9572 65.05C48.8332 65.126 48.7232 65.196 48.6272 65.26C48.5352 65.324 48.4392 65.356 48.3392 65.356C48.2592 65.356 48.1892 65.334 48.1292 65.29C48.0732 65.246 48.0272 65.194 47.9912 65.134L47.7812 64.756ZM58.8555 65.38C58.6635 65.128 58.4555 64.952 58.2315 64.852C58.0115 64.752 57.7635 64.702 57.4875 64.702C56.9515 64.702 56.5355 64.896 56.2395 65.284C55.9475 65.668 55.8015 66.23 55.8015 66.97C55.8015 67.358 55.8335 67.69 55.8975 67.966C55.9655 68.238 56.0615 68.462 56.1855 68.638C56.3135 68.81 56.4695 68.938 56.6535 69.022C56.8375 69.102 57.0455 69.142 57.2775 69.142C57.6175 69.142 57.9115 69.066 58.1595 68.914C58.4075 68.762 58.6395 68.548 58.8555 68.272V65.38ZM60.0315 61.144V70H59.3235C59.1595 70 59.0575 69.922 59.0175 69.766L58.9155 69.064C58.6555 69.372 58.3595 69.62 58.0275 69.808C57.6995 69.992 57.3195 70.084 56.8875 70.084C56.5395 70.084 56.2235 70.016 55.9395 69.88C55.6595 69.744 55.4195 69.546 55.2195 69.286C55.0195 69.022 54.8655 68.696 54.7575 68.308C54.6495 67.92 54.5955 67.474 54.5955 66.97C54.5955 66.518 54.6555 66.098 54.7755 65.71C54.8955 65.322 55.0695 64.986 55.2975 64.702C55.5255 64.418 55.8015 64.196 56.1255 64.036C56.4495 63.872 56.8155 63.79 57.2235 63.79C57.5915 63.79 57.9035 63.85 58.1595 63.97C58.4195 64.09 58.6515 64.26 58.8555 64.48V61.144H60.0315ZM64.8058 66.958C65.0138 66.958 65.1958 66.93 65.3518 66.874C65.5118 66.818 65.6438 66.74 65.7478 66.64C65.8558 66.536 65.9358 66.412 65.9878 66.268C66.0438 66.124 66.0718 65.966 66.0718 65.794C66.0718 65.442 65.9638 65.162 65.7478 64.954C65.5358 64.742 65.2218 64.636 64.8058 64.636C64.3938 64.636 64.0798 64.742 63.8638 64.954C63.6518 65.162 63.5458 65.442 63.5458 65.794C63.5458 65.966 63.5718 66.124 63.6238 66.268C63.6798 66.408 63.7598 66.53 63.8638 66.634C63.9718 66.734 64.1038 66.814 64.2598 66.874C64.4198 66.93 64.6018 66.958 64.8058 66.958ZM66.6718 70.318C66.6718 70.174 66.6318 70.06 66.5518 69.976C66.4718 69.888 66.3618 69.82 66.2218 69.772C66.0858 69.72 65.9258 69.684 65.7418 69.664C65.5578 69.64 65.3638 69.622 65.1598 69.61C64.9598 69.598 64.7538 69.588 64.5418 69.58C64.3298 69.568 64.1258 69.548 63.9298 69.52C63.7218 69.624 63.5498 69.75 63.4138 69.898C63.2818 70.046 63.2158 70.22 63.2158 70.42C63.2158 70.548 63.2478 70.668 63.3118 70.78C63.3798 70.892 63.4818 70.988 63.6178 71.068C63.7578 71.152 63.9318 71.216 64.1398 71.26C64.3518 71.308 64.6038 71.332 64.8958 71.332C65.1838 71.332 65.4378 71.306 65.6578 71.254C65.8778 71.206 66.0618 71.136 66.2098 71.044C66.3618 70.956 66.4758 70.85 66.5518 70.726C66.6318 70.602 66.6718 70.466 66.6718 70.318ZM67.8598 64.132V64.57C67.8598 64.714 67.7698 64.804 67.5898 64.84L66.9358 64.936C66.9918 65.06 67.0358 65.192 67.0678 65.332C67.0998 65.468 67.1158 65.612 67.1158 65.764C67.1158 66.064 67.0578 66.336 66.9418 66.58C66.8258 66.82 66.6658 67.026 66.4618 67.198C66.2578 67.37 66.0138 67.502 65.7298 67.594C65.4498 67.686 65.1418 67.732 64.8058 67.732C64.5298 67.732 64.2718 67.702 64.0318 67.642C63.9118 67.714 63.8198 67.794 63.7558 67.882C63.6958 67.966 63.6658 68.05 63.6658 68.134C63.6658 68.274 63.7238 68.378 63.8398 68.446C63.9598 68.514 64.1138 68.564 64.3018 68.596C64.4938 68.624 64.7118 68.642 64.9558 68.65C65.2038 68.658 65.4538 68.672 65.7058 68.692C65.9618 68.708 66.2118 68.74 66.4558 68.788C66.7038 68.832 66.9218 68.906 67.1098 69.01C67.3018 69.11 67.4558 69.25 67.5718 69.43C67.6918 69.606 67.7518 69.836 67.7518 70.12C67.7518 70.384 67.6858 70.64 67.5538 70.888C67.4258 71.136 67.2378 71.356 66.9898 71.548C66.7418 71.74 66.4398 71.894 66.0838 72.01C65.7278 72.126 65.3238 72.184 64.8718 72.184C64.4198 72.184 64.0258 72.14 63.6898 72.052C63.3578 71.964 63.0798 71.846 62.8558 71.698C62.6358 71.55 62.4698 71.378 62.3578 71.182C62.2498 70.986 62.1958 70.782 62.1958 70.57C62.1958 70.274 62.2878 70.024 62.4718 69.82C62.6558 69.612 62.9098 69.45 63.2338 69.334C63.0578 69.254 62.9178 69.146 62.8138 69.01C62.7098 68.87 62.6578 68.686 62.6578 68.458C62.6578 68.37 62.6738 68.28 62.7058 68.188C62.7378 68.092 62.7858 67.998 62.8498 67.906C62.9178 67.81 62.9998 67.72 63.0958 67.636C63.1958 67.552 63.3098 67.476 63.4378 67.408C63.1378 67.24 62.9018 67.018 62.7298 66.742C62.5578 66.462 62.4718 66.136 62.4718 65.764C62.4718 65.464 62.5298 65.194 62.6458 64.954C62.7618 64.714 62.9218 64.508 63.1258 64.336C63.3338 64.164 63.5798 64.032 63.8638 63.94C64.1518 63.848 64.4658 63.802 64.8058 63.802C65.3338 63.802 65.7878 63.912 66.1678 64.132H67.8598ZM73.8776 66.274C73.8776 66.042 73.8436 65.828 73.7756 65.632C73.7116 65.436 73.6156 65.266 73.4876 65.122C73.3596 64.978 73.2036 64.866 73.0196 64.786C72.8356 64.706 72.6236 64.666 72.3836 64.666C71.8916 64.666 71.5036 64.808 71.2196 65.092C70.9396 65.376 70.7616 65.77 70.6856 66.274H73.8776ZM74.8436 69.13C74.6996 69.298 74.5336 69.444 74.3456 69.568C74.1576 69.688 73.9576 69.786 73.7456 69.862C73.5336 69.938 73.3136 69.994 73.0856 70.03C72.8616 70.066 72.6396 70.084 72.4196 70.084C71.9996 70.084 71.6096 70.014 71.2496 69.874C70.8936 69.73 70.5836 69.522 70.3196 69.25C70.0596 68.974 69.8556 68.634 69.7076 68.23C69.5636 67.822 69.4916 67.354 69.4916 66.826C69.4916 66.402 69.5576 66.008 69.6896 65.644C69.8216 65.276 70.0096 64.956 70.2536 64.684C70.5016 64.412 70.8036 64.198 71.1596 64.042C71.5156 63.886 71.9156 63.808 72.3596 63.808C72.7316 63.808 73.0736 63.87 73.3856 63.994C73.7016 64.114 73.9736 64.29 74.2016 64.522C74.4296 64.754 74.6076 65.04 74.7356 65.38C74.8676 65.72 74.9336 66.108 74.9336 66.544C74.9336 66.724 74.9136 66.846 74.8736 66.91C74.8336 66.97 74.7596 67 74.6516 67H70.6556C70.6676 67.364 70.7196 67.682 70.8116 67.954C70.9036 68.222 71.0296 68.446 71.1896 68.626C71.3536 68.806 71.5476 68.94 71.7716 69.028C71.9956 69.116 72.2456 69.16 72.5216 69.16C72.7816 69.16 73.0056 69.13 73.1936 69.07C73.3856 69.01 73.5496 68.946 73.6856 68.878C73.8256 68.806 73.9416 68.74 74.0336 68.68C74.1296 68.62 74.2136 68.59 74.2856 68.59C74.3816 68.59 74.4556 68.626 74.5076 68.698L74.8436 69.13ZM80.7851 64.954C80.7531 65.006 80.7191 65.044 80.6831 65.068C80.6471 65.088 80.6011 65.098 80.5451 65.098C80.4811 65.098 80.4091 65.076 80.3291 65.032C80.2531 64.988 80.1591 64.94 80.0471 64.888C79.9391 64.836 79.8111 64.788 79.6631 64.744C79.5151 64.7 79.3391 64.678 79.1351 64.678C78.9671 64.678 78.8131 64.7 78.6731 64.744C78.5371 64.784 78.4211 64.842 78.3251 64.918C78.2291 64.99 78.1551 65.078 78.1031 65.182C78.0511 65.282 78.0251 65.39 78.0251 65.506C78.0251 65.658 78.0691 65.784 78.1571 65.884C78.2491 65.984 78.3671 66.07 78.5111 66.142C78.6591 66.214 78.8251 66.28 79.0091 66.34C79.1971 66.396 79.3871 66.456 79.5791 66.52C79.7751 66.584 79.9651 66.658 80.1491 66.742C80.3371 66.822 80.5031 66.924 80.6471 67.048C80.7951 67.168 80.9131 67.314 81.0011 67.486C81.0931 67.658 81.1391 67.868 81.1391 68.116C81.1391 68.4 81.0871 68.664 80.9831 68.908C80.8831 69.148 80.7331 69.356 80.5331 69.532C80.3371 69.708 80.0931 69.846 79.8011 69.946C79.5091 70.046 79.1751 70.096 78.7991 70.096C78.3791 70.096 77.9911 70.026 77.6351 69.886C77.2791 69.746 76.9811 69.568 76.7411 69.352L77.0171 68.902C77.0491 68.846 77.0891 68.804 77.1371 68.776C77.1851 68.744 77.2491 68.728 77.3291 68.728C77.4051 68.728 77.4831 68.756 77.5631 68.812C77.6431 68.868 77.7391 68.93 77.8511 68.998C77.9631 69.062 78.0991 69.122 78.2591 69.178C78.4191 69.23 78.6191 69.256 78.8591 69.256C79.0591 69.256 79.2331 69.232 79.3811 69.184C79.5291 69.132 79.6511 69.064 79.7471 68.98C79.8471 68.892 79.9211 68.792 79.9691 68.68C80.0171 68.568 80.0411 68.45 80.0411 68.326C80.0411 68.166 79.9951 68.034 79.9031 67.93C79.8151 67.822 79.6971 67.73 79.5491 67.654C79.4051 67.578 79.2391 67.512 79.0511 67.456C78.8631 67.4 78.6711 67.34 78.4751 67.276C78.2791 67.212 78.0871 67.138 77.8991 67.054C77.7111 66.97 77.5431 66.864 77.3951 66.736C77.2511 66.608 77.1331 66.452 77.0411 66.268C76.9531 66.084 76.9091 65.86 76.9091 65.596C76.9091 65.36 76.9571 65.134 77.0531 64.918C77.1531 64.702 77.2951 64.512 77.4791 64.348C77.6671 64.184 77.8971 64.054 78.1691 63.958C78.4451 63.858 78.7591 63.808 79.1111 63.808C79.5151 63.808 79.8791 63.872 80.2031 64C80.5311 64.128 80.8111 64.304 81.0431 64.528L80.7851 64.954Z" fill="#1D3A70"/>
</g>
<defs>
<filter id="filter0_d_316_4573" x="-48" y="-46" width="215" height="182" filterUnits="userSpaceOnUse" color-interpolation-filters="sRGB">
<feFlood flood-opacity="0" result="BackgroundImageFix"/>
<feColorMatrix in="SourceAlpha" type="matrix" values="0 0 0 0 0 0 0 0 0 0 0 0 0 0 0 0 0 0 127 0" result="hardAlpha"/>
<feOffset dy="2"/>
<feGaussianBlur stdDeviation="24"/>
<feColorMatrix type="matrix" values="0 0 0 0 0 0 0 0 0 0 0 0 0 0 0 0 0 0 0.04 0"/>
<feBlend mode="normal" in2="BackgroundImageFix" result="effect1_dropShadow_316_4573"/>
<feBlend mode="normal" in="SourceGraphic" in2="effect1_dropShadow_316_4573" result="shape"/>
</filter>
<clipPath id="clip0_316_4573">
<rect width="119" height="86" fill="white"/>
</clipPath>
</defs>
</svg>
