<svg width="116" height="86" viewBox="0 0 116 86" fill="none" xmlns="http://www.w3.org/2000/svg">
<g clip-path="url(#clip0_316_4561)">
<g filter="url(#filter0_d_316_4561)">
<rect x="-3" width="119" height="86" rx="12" fill="white"/>
</g>
<path fill-rule="evenodd" clip-rule="evenodd" d="M69.0478 14.7295H69.0615H70.9706C72.6615 14.7295 74.0387 16.1068 74.0387 17.8114V40.1886C74.0387 41.8932 72.6615 43.2705 70.9706 43.2705H42.4978C40.7933 43.2705 39.416 41.8932 39.416 40.1886V17.8114C39.416 16.1068 40.7933 14.7295 42.4978 14.7295H44.3933H46.6978H66.7569L69.0478 14.7295Z" stroke="#1D3A70" stroke-width="1.6" stroke-linecap="round" stroke-linejoin="round"/>
<path d="M74.0387 21.3841H39.416" stroke="#1D3A70" stroke-width="1.6" stroke-linecap="round" stroke-linejoin="round"/>
<path d="M74.0387 37.2011H39.416" stroke="#1D3A70" stroke-width="1.6" stroke-linecap="round" stroke-linejoin="round"/>
<circle cx="45.9305" cy="17.9499" r="0.850445" stroke="#1D3A70" stroke-width="1.6" stroke-linecap="round" stroke-linejoin="round"/>
<circle cx="67.5243" cy="17.9499" r="0.850445" stroke="#1D3A70" stroke-width="1.6" stroke-linecap="round" stroke-linejoin="round"/>
<path d="M55.3441 34.9042C55.172 34.9042 55.0034 34.844 54.8691 34.732L50.7851 31.4936C50.4693 31.2322 50.4257 30.7634 50.6882 30.4471C50.9511 30.1307 51.4194 30.0871 51.7352 30.3506L55.1844 33.061L61.5766 23.5083C61.8048 23.1671 62.2674 23.0747 62.6081 23.3029C62.9494 23.5311 63.0412 23.9927 62.813 24.334L55.9623 34.5733C55.8451 34.7486 55.6594 34.8658 55.451 34.8959C55.4152 34.9011 55.3794 34.9042 55.3441 34.9042Z" fill="#1D3A70"/>
<path d="M44.5518 40.5744H51.7523" stroke="#1D3A70" stroke-width="1.6" stroke-linecap="round" stroke-linejoin="round"/>
<path d="M53.3701 40.5744H54.9882" stroke="#1D3A70" stroke-width="1.6" stroke-linecap="round" stroke-linejoin="round"/>
<path d="M39.0365 66.79L37.7585 63.448C37.6665 63.22 37.5745 62.932 37.4825 62.584C37.4385 62.756 37.3925 62.916 37.3445 63.064C37.3005 63.212 37.2565 63.344 37.2125 63.46L35.9405 66.79H39.0365ZM41.5625 70H40.5785C40.4665 70 40.3745 69.972 40.3025 69.916C40.2305 69.86 40.1785 69.788 40.1465 69.7L39.3845 67.702H35.5865L34.8245 69.7C34.7965 69.776 34.7445 69.846 34.6685 69.91C34.5925 69.97 34.5005 70 34.3925 70H33.4085L36.8405 61.384H38.1305L41.5625 70ZM44.4787 65.074C44.6747 64.674 44.9107 64.36 45.1867 64.132C45.4627 63.904 45.7947 63.79 46.1827 63.79C46.3147 63.79 46.4387 63.806 46.5547 63.838C46.6747 63.866 46.7787 63.91 46.8667 63.97L46.7887 64.852C46.7607 64.96 46.6947 65.014 46.5907 65.014C46.5347 65.014 46.4507 65.004 46.3387 64.984C46.2267 64.96 46.1067 64.948 45.9787 64.948C45.7907 64.948 45.6247 64.976 45.4807 65.032C45.3367 65.084 45.2067 65.164 45.0907 65.272C44.9787 65.376 44.8787 65.506 44.7907 65.662C44.7027 65.814 44.6207 65.988 44.5447 66.184V70H43.3747V63.904H44.0467C44.1747 63.904 44.2607 63.928 44.3047 63.976C44.3527 64.02 44.3867 64.1 44.4067 64.216L44.4787 65.074ZM54.5473 70H53.3713V64.852H50.3113V68.422C50.3113 68.662 50.3693 68.842 50.4853 68.962C50.6053 69.078 50.7573 69.136 50.9413 69.136C51.0493 69.136 51.1413 69.122 51.2173 69.094C51.2973 69.066 51.3653 69.036 51.4213 69.004C51.4773 68.968 51.5253 68.936 51.5653 68.908C51.6053 68.88 51.6413 68.866 51.6733 68.866C51.7133 68.866 51.7433 68.876 51.7633 68.896C51.7873 68.912 51.8113 68.94 51.8353 68.98L52.1833 69.544C51.9913 69.72 51.7633 69.856 51.4993 69.952C51.2353 70.048 50.9613 70.096 50.6773 70.096C50.1853 70.096 49.8053 69.958 49.5373 69.682C49.2733 69.406 49.1413 69.012 49.1413 68.5V64.852H48.4333C48.3653 64.852 48.3073 64.832 48.2593 64.792C48.2153 64.748 48.1933 64.684 48.1933 64.6V64.126L49.1893 63.988L49.4473 62.17C49.4633 62.102 49.4933 62.05 49.5373 62.014C49.5853 61.974 49.6453 61.954 49.7173 61.954H50.3113V64H54.5473V70ZM54.8113 61.984C54.8113 62.092 54.7893 62.196 54.7453 62.296C54.7013 62.392 54.6413 62.478 54.5653 62.554C54.4933 62.626 54.4073 62.684 54.3073 62.728C54.2073 62.768 54.1033 62.788 53.9953 62.788C53.8873 62.788 53.7853 62.768 53.6893 62.728C53.5933 62.684 53.5073 62.626 53.4313 62.554C53.3593 62.478 53.3013 62.392 53.2573 62.296C53.2173 62.196 53.1973 62.092 53.1973 61.984C53.1973 61.872 53.2173 61.766 53.2573 61.666C53.3013 61.566 53.3593 61.48 53.4313 61.408C53.5073 61.332 53.5933 61.274 53.6893 61.234C53.7853 61.19 53.8873 61.168 53.9953 61.168C54.1033 61.168 54.2073 61.19 54.3073 61.234C54.4073 61.274 54.4933 61.332 54.5653 61.408C54.6413 61.48 54.7013 61.566 54.7453 61.666C54.7893 61.766 54.8113 61.872 54.8113 61.984ZM61.5178 65.044C61.4818 65.088 61.4458 65.124 61.4098 65.152C61.3778 65.176 61.3298 65.188 61.2658 65.188C61.2018 65.188 61.1338 65.164 61.0618 65.116C60.9938 65.064 60.9058 65.01 60.7978 64.954C60.6938 64.894 60.5658 64.84 60.4138 64.792C60.2658 64.74 60.0818 64.714 59.8618 64.714C59.5738 64.714 59.3198 64.766 59.0998 64.87C58.8798 64.974 58.6958 65.122 58.5478 65.314C58.4038 65.506 58.2938 65.74 58.2178 66.016C58.1418 66.292 58.1038 66.602 58.1038 66.946C58.1038 67.302 58.1438 67.62 58.2238 67.9C58.3038 68.176 58.4178 68.41 58.5658 68.602C58.7138 68.79 58.8938 68.934 59.1058 69.034C59.3178 69.13 59.5538 69.178 59.8138 69.178C60.0658 69.178 60.2738 69.148 60.4378 69.088C60.6018 69.024 60.7378 68.956 60.8458 68.884C60.9538 68.812 61.0438 68.746 61.1158 68.686C61.1878 68.622 61.2618 68.59 61.3378 68.59C61.4338 68.59 61.5078 68.626 61.5598 68.698L61.8958 69.13C61.7558 69.302 61.5978 69.448 61.4218 69.568C61.2498 69.688 61.0658 69.786 60.8698 69.862C60.6738 69.938 60.4678 69.994 60.2518 70.03C60.0398 70.066 59.8238 70.084 59.6038 70.084C59.2238 70.084 58.8678 70.014 58.5358 69.874C58.2078 69.734 57.9218 69.53 57.6778 69.262C57.4378 68.994 57.2478 68.666 57.1078 68.278C56.9678 67.886 56.8978 67.442 56.8978 66.946C56.8978 66.494 56.9598 66.076 57.0838 65.692C57.2118 65.308 57.3978 64.978 57.6418 64.702C57.8898 64.422 58.1938 64.204 58.5538 64.048C58.9138 63.888 59.3258 63.808 59.7898 63.808C60.2258 63.808 60.6098 63.878 60.9418 64.018C61.2738 64.158 61.5698 64.356 61.8298 64.612L61.5178 65.044ZM65.188 61.144V70H64.012V61.144H65.188ZM71.8971 66.274C71.8971 66.042 71.8631 65.828 71.7951 65.632C71.7311 65.436 71.6351 65.266 71.5071 65.122C71.3791 64.978 71.2231 64.866 71.0391 64.786C70.8551 64.706 70.6431 64.666 70.4031 64.666C69.9111 64.666 69.5231 64.808 69.2391 65.092C68.9591 65.376 68.7811 65.77 68.7051 66.274H71.8971ZM72.8631 69.13C72.7191 69.298 72.5531 69.444 72.3651 69.568C72.1771 69.688 71.9771 69.786 71.7651 69.862C71.5531 69.938 71.3331 69.994 71.1051 70.03C70.8811 70.066 70.6591 70.084 70.4391 70.084C70.0191 70.084 69.6291 70.014 69.2691 69.874C68.9131 69.73 68.6031 69.522 68.3391 69.25C68.0791 68.974 67.8751 68.634 67.7271 68.23C67.5831 67.822 67.5111 67.354 67.5111 66.826C67.5111 66.402 67.5771 66.008 67.7091 65.644C67.8411 65.276 68.0291 64.956 68.2731 64.684C68.5211 64.412 68.8231 64.198 69.1791 64.042C69.5351 63.886 69.9351 63.808 70.3791 63.808C70.7511 63.808 71.0931 63.87 71.4051 63.994C71.7211 64.114 71.9931 64.29 72.2211 64.522C72.4491 64.754 72.6271 65.04 72.7551 65.38C72.8871 65.72 72.9531 66.108 72.9531 66.544C72.9531 66.724 72.9331 66.846 72.8931 66.91C72.8531 66.97 72.7791 67 72.6711 67H68.6751C68.6871 67.364 68.7391 67.682 68.8311 67.954C68.9231 68.222 69.0491 68.446 69.2091 68.626C69.3731 68.806 69.5671 68.94 69.7911 69.028C70.0151 69.116 70.2651 69.16 70.5411 69.16C70.8011 69.16 71.0251 69.13 71.2131 69.07C71.4051 69.01 71.5691 68.946 71.7051 68.878C71.8451 68.806 71.9611 68.74 72.0531 68.68C72.1491 68.62 72.2331 68.59 72.3051 68.59C72.4011 68.59 72.4751 68.626 72.5271 68.698L72.8631 69.13ZM78.8047 64.954C78.7727 65.006 78.7387 65.044 78.7027 65.068C78.6667 65.088 78.6207 65.098 78.5647 65.098C78.5007 65.098 78.4287 65.076 78.3487 65.032C78.2727 64.988 78.1787 64.94 78.0667 64.888C77.9587 64.836 77.8307 64.788 77.6827 64.744C77.5347 64.7 77.3587 64.678 77.1547 64.678C76.9867 64.678 76.8327 64.7 76.6927 64.744C76.5567 64.784 76.4407 64.842 76.3447 64.918C76.2487 64.99 76.1747 65.078 76.1227 65.182C76.0707 65.282 76.0447 65.39 76.0447 65.506C76.0447 65.658 76.0887 65.784 76.1767 65.884C76.2687 65.984 76.3867 66.07 76.5307 66.142C76.6787 66.214 76.8447 66.28 77.0287 66.34C77.2167 66.396 77.4067 66.456 77.5987 66.52C77.7947 66.584 77.9847 66.658 78.1687 66.742C78.3567 66.822 78.5227 66.924 78.6667 67.048C78.8147 67.168 78.9327 67.314 79.0207 67.486C79.1127 67.658 79.1587 67.868 79.1587 68.116C79.1587 68.4 79.1067 68.664 79.0027 68.908C78.9027 69.148 78.7527 69.356 78.5527 69.532C78.3567 69.708 78.1127 69.846 77.8207 69.946C77.5287 70.046 77.1947 70.096 76.8187 70.096C76.3987 70.096 76.0107 70.026 75.6547 69.886C75.2987 69.746 75.0007 69.568 74.7607 69.352L75.0367 68.902C75.0687 68.846 75.1087 68.804 75.1567 68.776C75.2047 68.744 75.2687 68.728 75.3487 68.728C75.4247 68.728 75.5027 68.756 75.5827 68.812C75.6627 68.868 75.7587 68.93 75.8707 68.998C75.9827 69.062 76.1187 69.122 76.2787 69.178C76.4387 69.23 76.6387 69.256 76.8787 69.256C77.0787 69.256 77.2527 69.232 77.4007 69.184C77.5487 69.132 77.6707 69.064 77.7667 68.98C77.8667 68.892 77.9407 68.792 77.9887 68.68C78.0367 68.568 78.0607 68.45 78.0607 68.326C78.0607 68.166 78.0147 68.034 77.9227 67.93C77.8347 67.822 77.7167 67.73 77.5687 67.654C77.4247 67.578 77.2587 67.512 77.0707 67.456C76.8827 67.4 76.6907 67.34 76.4947 67.276C76.2987 67.212 76.1067 67.138 75.9187 67.054C75.7307 66.97 75.5627 66.864 75.4147 66.736C75.2707 66.608 75.1527 66.452 75.0607 66.268C74.9727 66.084 74.9287 65.86 74.9287 65.596C74.9287 65.36 74.9767 65.134 75.0727 64.918C75.1727 64.702 75.3147 64.512 75.4987 64.348C75.6867 64.184 75.9167 64.054 76.1887 63.958C76.4647 63.858 76.7787 63.808 77.1307 63.808C77.5347 63.808 77.8987 63.872 78.2227 64C78.5507 64.128 78.8307 64.304 79.0627 64.528L78.8047 64.954Z" fill="#1D3A70"/>
</g>
<defs>
<filter id="filter0_d_316_4561" x="-51" y="-46" width="215" height="182" filterUnits="userSpaceOnUse" color-interpolation-filters="sRGB">
<feFlood flood-opacity="0" result="BackgroundImageFix"/>
<feColorMatrix in="SourceAlpha" type="matrix" values="0 0 0 0 0 0 0 0 0 0 0 0 0 0 0 0 0 0 127 0" result="hardAlpha"/>
<feOffset dy="2"/>
<feGaussianBlur stdDeviation="24"/>
<feColorMatrix type="matrix" values="0 0 0 0 0 0 0 0 0 0 0 0 0 0 0 0 0 0 0.04 0"/>
<feBlend mode="normal" in2="BackgroundImageFix" result="effect1_dropShadow_316_4561"/>
<feBlend mode="normal" in="SourceGraphic" in2="effect1_dropShadow_316_4561" result="shape"/>
</filter>
<clipPath id="clip0_316_4561">
<rect width="119" height="86" fill="white" transform="translate(-3)"/>
</clipPath>
</defs>
</svg>
