<svg width="111" height="86" viewBox="0 0 111 86" fill="none" xmlns="http://www.w3.org/2000/svg">
<g clip-path="url(#clip0_316_4585)">
<g filter="url(#filter0_d_316_4585)">
<rect width="119" height="86" rx="12" fill="white"/>
</g>
<path fill-rule="evenodd" clip-rule="evenodd" d="M69.738 22.8621V23.7931C72.779 24.6552 74.9658 27.5172 75 30.7586C75 31.0345 74.7608 31.2759 74.4875 31.2759H63.9977C63.5535 31.9655 62.9727 32.5172 62.2551 32.931V34.4138C66.287 35.4828 69.1913 39.2414 69.1913 43.4828C69.1913 43.7586 68.9522 44 68.6788 44H51.082C50.8087 44 50.5695 43.7586 50.5695 43.4828C50.5695 39.2069 53.3371 35.5172 57.4032 34.4138V32.8621C56.7198 32.4483 56.139 31.8966 55.7289 31.2414H55.6264H45.5125C45.2392 31.2414 45 31 45 30.7241C45 27.4828 47.0843 24.6897 50.1595 23.7931V22.7931C48.9977 22.1034 48.3144 20.8621 48.3144 19.5172V17.8621C48.3144 15.7241 50.0228 14 52.1412 14C54.2597 14 55.9681 15.7241 55.9681 17.8621V19.5172C55.9681 20.8966 55.2164 22.1724 54.0547 22.8621V23.7931C54.4989 23.8966 54.9431 24.1034 55.3872 24.3103C56.1731 22.5862 57.8474 21.4138 59.8292 21.4138C61.8451 21.4138 63.5877 22.6552 64.3394 24.4138C64.8178 24.1379 65.2961 23.931 65.8087 23.7931V22.7931C64.6469 22.1034 63.9636 20.8621 63.9636 19.5172V17.8621C63.9636 15.7241 65.7062 14 67.8246 14C69.9431 14 71.6515 15.7241 71.6515 17.8621V19.5172C71.6515 20.8966 70.8998 22.1724 69.738 22.8621ZM50.7745 24.7241C48.1435 25.3448 46.2301 27.5517 46.0251 30.2414H55.2506C55.0797 29.7241 54.9772 29.1724 54.9772 28.6207V26.4138C54.9772 26.0345 55.0114 25.6897 55.0797 25.3448C54.5672 25.069 54.0205 24.8621 53.4396 24.7241C53.2005 24.6552 53.0296 24.4483 53.0296 24.2069V22.5517C53.0296 22.3448 53.1663 22.1379 53.3371 22.069C54.2938 21.5862 54.9431 20.5862 54.9431 19.5172V17.8621C54.9431 16.3103 53.6788 15.0345 52.1412 15.0345C50.6036 15.0345 49.3394 16.3103 49.3394 17.8621V19.5172C49.3394 20.5862 49.9544 21.5517 50.9112 22.0345C51.082 22.1034 51.1845 22.2759 51.1845 22.4828V24.2069C51.1845 24.4483 51.0137 24.6552 50.7745 24.7241ZM61.5034 32.1379C61.3326 32.2069 61.1959 32.4138 61.1959 32.6207V34.8276C61.1959 35.069 61.3667 35.2759 61.6059 35.3448C65.2278 36.1379 67.8929 39.3103 68.1321 43H51.5945C51.7995 39.3103 54.3964 36.2069 58.0182 35.3793C58.2574 35.3103 58.4282 35.1034 58.4282 34.8621V32.5862C58.4282 32.3793 58.3257 32.2069 58.1549 32.1379C56.8223 31.4828 56.0023 30.1379 56.0023 28.6552V26.4483C56.0023 24.2759 57.7449 22.5517 59.8633 22.5517C61.9818 22.5517 63.7244 24.3103 63.7244 26.4483V28.6207C63.7244 30.1034 62.8702 31.4828 61.5034 32.1379ZM64.7494 28.6207C64.7494 29.1724 64.6469 29.7241 64.4761 30.2414L73.9066 30.2759C73.6674 27.6207 71.7198 25.3448 69.0888 24.7586C68.8497 24.6897 68.6788 24.4828 68.6788 24.2414V22.5862C68.6788 22.3793 68.8155 22.1724 68.9863 22.1034C69.9431 21.6207 70.5923 20.6207 70.5923 19.5517V17.8966C70.5923 16.3448 69.328 15.069 67.7904 15.069C66.2528 15.069 64.9886 16.3448 64.9886 17.8966V19.5517C64.9886 20.6207 65.6036 21.5862 66.5604 22.069C66.7312 22.1379 66.8337 22.3103 66.8337 22.5172V24.2414C66.8337 24.4828 66.6629 24.6897 66.4237 24.7586C65.8087 24.8966 65.1936 25.1379 64.6469 25.4828C64.7153 25.7586 64.7494 26.1034 64.7494 26.4138V28.6207Z" fill="#1D3A70"/>
<path d="M69.738 23.7931H69.238V24.1711L69.6017 24.2741L69.738 23.7931ZM69.738 22.8621L69.4828 22.4321L69.238 22.5774V22.8621H69.738ZM75 30.7586H75.5L75.5 30.7534L75 30.7586ZM63.9977 31.2759V30.7759H63.725L63.5774 31.0051L63.9977 31.2759ZM62.2551 32.931L62.0053 32.4979L61.7551 32.6422V32.931H62.2551ZM62.2551 34.4138H61.7551V34.7985L62.127 34.8971L62.2551 34.4138ZM57.4032 34.4138L57.5341 34.8963L57.9032 34.7962V34.4138H57.4032ZM57.4032 32.8621H57.9032V32.5803L57.6622 32.4344L57.4032 32.8621ZM55.7289 31.2414L56.1528 30.9761L56.0059 30.7414H55.7289V31.2414ZM50.1595 23.7931L50.2994 24.2731L50.6595 24.1681V23.7931H50.1595ZM50.1595 22.7931H50.6595V22.5085L50.4147 22.3632L50.1595 22.7931ZM54.0547 22.8621L53.7994 22.4321L53.5547 22.5774V22.8621H54.0547ZM54.0547 23.7931H53.5547V24.19L53.9413 24.2801L54.0547 23.7931ZM55.3872 24.3103L55.1761 24.7636L55.6331 24.9764L55.8422 24.5177L55.3872 24.3103ZM64.3394 24.4138L63.8796 24.6103L64.1011 25.1284L64.5892 24.8469L64.3394 24.4138ZM65.8087 23.7931L65.9386 24.2759L66.3087 24.1763V23.7931H65.8087ZM65.8087 22.7931H66.3087V22.5085L66.0639 22.3632L65.8087 22.7931ZM46.0251 30.2414L45.5265 30.2034L45.4855 30.7414H46.0251V30.2414ZM50.7745 24.7241L50.8893 25.2108L50.9012 25.208L50.913 25.2046L50.7745 24.7241ZM55.2506 30.2414V30.7414H55.9423L55.7253 30.0846L55.2506 30.2414ZM55.0797 25.3448L55.5702 25.442L55.642 25.0796L55.3167 24.9046L55.0797 25.3448ZM53.4396 24.7241L53.3011 25.2046L53.3125 25.2079L53.3241 25.2106L53.4396 24.7241ZM53.3371 22.069L53.5243 22.5326L53.5437 22.5248L53.5624 22.5154L53.3371 22.069ZM50.9112 22.0345L50.6859 22.4809L50.7046 22.4903L50.724 22.4981L50.9112 22.0345ZM61.5034 32.1379L61.6906 32.6016L61.7053 32.5957L61.7196 32.5888L61.5034 32.1379ZM61.6059 35.3448L61.4674 35.8253L61.4831 35.8298L61.499 35.8333L61.6059 35.3448ZM68.1321 43V43.5H68.6656L68.6311 42.9677L68.1321 43ZM51.5945 43L51.0953 42.9723L51.066 43.5H51.5945V43ZM58.0182 35.3793L58.1296 35.8667L58.1433 35.8636L58.1568 35.8597L58.0182 35.3793ZM58.1549 32.1379L57.9343 32.5866L57.9507 32.5947L57.9677 32.6016L58.1549 32.1379ZM64.4761 30.2414L64.0013 30.0846L63.7852 30.7389L64.4743 30.7414L64.4761 30.2414ZM73.9066 30.2759L73.9048 30.7759L74.4538 30.7779L74.4046 30.231L73.9066 30.2759ZM69.0888 24.7586L68.9503 25.239L68.9651 25.2433L68.9801 25.2467L69.0888 24.7586ZM68.9863 22.1034L69.1735 22.5671L69.1929 22.5593L69.2116 22.5498L68.9863 22.1034ZM66.5604 22.069L66.3351 22.5154L66.3538 22.5248L66.3732 22.5326L66.5604 22.069ZM66.4237 24.7586L66.5331 25.2465L66.5478 25.2432L66.5622 25.239L66.4237 24.7586ZM64.6469 25.4828L64.3802 25.0599L64.0748 25.2525L64.1616 25.603L64.6469 25.4828ZM70.238 23.7931V22.8621H69.238V23.7931H70.238ZM75.5 30.7534C75.4635 27.2936 73.1319 24.2355 69.8744 23.3121L69.6017 24.2741C72.4262 25.0749 74.4682 27.7408 74.5 30.7639L75.5 30.7534ZM74.4875 31.7759C75.0413 31.7759 75.5 31.3063 75.5 30.7586H74.5C74.5 30.7549 74.5009 30.7541 74.4998 30.7565C74.4986 30.7594 74.4958 30.764 74.4911 30.7688C74.4864 30.7735 74.4822 30.7759 74.4805 30.7766C74.4792 30.7772 74.4817 30.7759 74.4875 30.7759V31.7759ZM63.9977 31.7759H74.4875V30.7759H63.9977V31.7759ZM62.5049 33.3642C63.2907 32.911 63.9303 32.3039 64.4181 31.5466L63.5774 31.0051C63.1767 31.6272 62.6546 32.1235 62.0053 32.4979L62.5049 33.3642ZM62.7551 34.4138V32.931H61.7551V34.4138H62.7551ZM69.6913 43.4828C69.6913 39.0158 66.6355 35.0579 62.3833 33.9305L62.127 34.8971C65.9385 35.9076 68.6913 39.467 68.6913 43.4828H69.6913ZM68.6788 44.5C69.2326 44.5 69.6913 44.0304 69.6913 43.4828H68.6913C68.6913 43.479 68.6922 43.4782 68.6911 43.4807C68.6899 43.4835 68.6871 43.4881 68.6824 43.4929C68.6777 43.4977 68.6735 43.5 68.6718 43.5008C68.6705 43.5013 68.673 43.5 68.6788 43.5V44.5ZM51.082 44.5H68.6788V43.5H51.082V44.5ZM50.0695 43.4828C50.0695 44.0304 50.5282 44.5 51.082 44.5V43.5C51.0878 43.5 51.0903 43.5013 51.089 43.5008C51.0873 43.5 51.0831 43.4977 51.0784 43.4929C51.0737 43.4881 51.0709 43.4835 51.0697 43.4807C51.0686 43.4782 51.0695 43.479 51.0695 43.4828H50.0695ZM57.2722 33.9312C52.9821 35.0955 50.0695 38.9877 50.0695 43.4828H51.0695C51.0695 39.426 53.6922 35.939 57.5341 34.8963L57.2722 33.9312ZM56.9032 32.8621V34.4138H57.9032V32.8621H56.9032ZM55.3051 31.5066C55.7606 32.2345 56.4007 32.8396 57.1442 33.2898L57.6622 32.4344C57.0389 32.057 56.5173 31.5586 56.1528 30.9761L55.3051 31.5066ZM55.6264 31.7414H55.7289V30.7414H55.6264V31.7414ZM45.5125 31.7414H55.6264V30.7414H45.5125V31.7414ZM44.5 30.7241C44.5 31.2718 44.9587 31.7414 45.5125 31.7414V30.7414C45.5183 30.7414 45.5208 30.7427 45.5195 30.7421C45.5178 30.7414 45.5136 30.739 45.5089 30.7343C45.5042 30.7295 45.5014 30.7249 45.5002 30.722C45.4991 30.7196 45.5 30.7204 45.5 30.7241H44.5ZM50.0195 23.3131C46.7283 24.2726 44.5 27.2633 44.5 30.7241H45.5C45.5 27.7022 47.4402 25.1067 50.2994 24.2731L50.0195 23.3131ZM49.6595 22.7931V23.7931H50.6595V22.7931H49.6595ZM47.8144 19.5172C47.8144 21.0329 48.586 22.4405 49.9042 23.2231L50.4147 22.3632C49.4094 21.7664 48.8144 20.6912 48.8144 19.5172H47.8144ZM47.8144 17.8621V19.5172H48.8144V17.8621H47.8144ZM52.1412 13.5C49.7423 13.5 47.8144 15.4523 47.8144 17.8621H48.8144C48.8144 15.996 50.3032 14.5 52.1412 14.5V13.5ZM56.4681 17.8621C56.4681 15.4523 54.5401 13.5 52.1412 13.5V14.5C53.9792 14.5 55.4681 15.996 55.4681 17.8621H56.4681ZM56.4681 19.5172V17.8621H55.4681V19.5172H56.4681ZM54.3099 23.292C55.6196 22.5145 56.4681 21.0773 56.4681 19.5172H55.4681C55.4681 20.7158 54.8132 21.8303 53.7994 22.4321L54.3099 23.292ZM54.5547 23.7931V22.8621H53.5547V23.7931H54.5547ZM55.5984 23.8571C55.1648 23.6551 54.6722 23.4235 54.1681 23.3061L53.9413 24.2801C54.3255 24.3696 54.7213 24.5518 55.1761 24.7636L55.5984 23.8571ZM59.8292 20.9138C57.6394 20.9138 55.7942 22.2119 54.9323 24.103L55.8422 24.5177C56.552 22.9605 58.0554 21.9138 59.8292 21.9138V20.9138ZM64.7992 24.2173C63.9728 22.2839 62.0553 20.9138 59.8292 20.9138V21.9138C61.635 21.9138 63.2026 23.0264 63.8796 24.6103L64.7992 24.2173ZM65.6787 23.3103C65.1187 23.461 64.6003 23.6862 64.0896 23.9807L64.5892 24.8469C65.0352 24.5897 65.4735 24.4011 65.9386 24.2759L65.6787 23.3103ZM65.3087 22.7931V23.7931H66.3087V22.7931H65.3087ZM63.4636 19.5172C63.4636 21.0329 64.2352 22.4405 65.5534 23.2231L66.0639 22.3632C65.0587 21.7664 64.4636 20.6912 64.4636 19.5172H63.4636ZM63.4636 17.8621V19.5172H64.4636V17.8621H63.4636ZM67.8246 13.5C65.4315 13.5 63.4636 15.4465 63.4636 17.8621H64.4636C64.4636 16.0017 65.9808 14.5 67.8246 14.5V13.5ZM72.1515 17.8621C72.1515 15.4523 70.2235 13.5 67.8246 13.5V14.5C69.6626 14.5 71.1515 15.996 71.1515 17.8621H72.1515ZM72.1515 19.5172V17.8621H71.1515V19.5172H72.1515ZM69.9933 23.292C71.303 22.5145 72.1515 21.0773 72.1515 19.5172H71.1515C71.1515 20.7158 70.4965 21.8303 69.4828 22.4321L69.9933 23.292ZM46.5236 30.2794C46.7118 27.8103 48.4669 25.7823 50.8893 25.2108L50.6597 24.2375C47.8201 24.9074 45.7483 27.2931 45.5265 30.2034L46.5236 30.2794ZM55.2506 29.7414H46.0251V30.7414H55.2506V29.7414ZM54.4772 28.6207C54.4772 29.2334 54.5908 29.8382 54.7758 30.3982L55.7253 30.0846C55.5686 29.6101 55.4772 29.1115 55.4772 28.6207H54.4772ZM54.4772 26.4138V28.6207H55.4772V26.4138H54.4772ZM54.5893 25.2476C54.5144 25.6254 54.4772 26.0028 54.4772 26.4138H55.4772C55.4772 26.0661 55.5084 25.7539 55.5702 25.442L54.5893 25.2476ZM53.3241 25.2106C53.8638 25.3388 54.3695 25.5304 54.8428 25.7851L55.3167 24.9046C54.7649 24.6075 54.1772 24.3854 53.5552 24.2377L53.3241 25.2106ZM52.5296 24.2069C52.5296 24.6964 52.8732 25.0812 53.3011 25.2046L53.5782 24.2437C53.5557 24.2372 53.5417 24.2257 53.535 24.2173C53.5317 24.2133 53.5305 24.2104 53.53 24.2092C53.5297 24.2083 53.5296 24.2078 53.5296 24.2069H52.5296ZM52.5296 22.5517V24.2069H53.5296V22.5517H52.5296ZM53.15 21.6053C52.7744 21.7569 52.5296 22.1584 52.5296 22.5517H53.5296C53.5296 22.5548 53.5292 22.5533 53.5309 22.5478C53.5326 22.5422 53.5356 22.5356 53.5397 22.5294C53.5438 22.523 53.5469 22.5201 53.5468 22.5202C53.5466 22.5204 53.5449 22.5218 53.5415 22.524C53.5381 22.5262 53.5324 22.5293 53.5243 22.5326L53.15 21.6053ZM54.4431 19.5172C54.4431 20.3867 53.91 21.2199 53.1119 21.6226L53.5624 22.5154C54.6777 21.9526 55.4431 20.7857 55.4431 19.5172H54.4431ZM54.4431 17.8621V19.5172H55.4431V17.8621H54.4431ZM52.1412 15.5345C53.3984 15.5345 54.4431 16.5822 54.4431 17.8621H55.4431C55.4431 16.0385 53.9593 14.5345 52.1412 14.5345V15.5345ZM49.8394 17.8621C49.8394 16.5822 50.8841 15.5345 52.1412 15.5345V14.5345C50.3232 14.5345 48.8394 16.0385 48.8394 17.8621H49.8394ZM49.8394 19.5172V17.8621H48.8394V19.5172H49.8394ZM51.1364 21.5881C50.3419 21.1872 49.8394 20.3905 49.8394 19.5172H48.8394C48.8394 20.7819 49.567 21.9163 50.6859 22.4809L51.1364 21.5881ZM51.6845 22.4828C51.6845 22.1129 51.4935 21.7303 51.0983 21.5708L50.724 22.4981C50.7153 22.4946 50.7065 22.4893 50.6988 22.4827C50.6913 22.4762 50.6867 22.47 50.6842 22.4659C50.6793 22.4577 50.6845 22.4613 50.6845 22.4828H51.6845ZM51.6845 24.2069V22.4828H50.6845V24.2069H51.6845ZM50.913 25.2046C51.3409 25.0812 51.6845 24.6964 51.6845 24.2069H50.6845C50.6845 24.2078 50.6844 24.2083 50.6841 24.2092C50.6837 24.2104 50.6824 24.2133 50.6792 24.2173C50.6724 24.2257 50.6585 24.2372 50.636 24.2437L50.913 25.2046ZM61.6959 32.6207C61.6959 32.6237 61.6955 32.6222 61.6972 32.6167C61.6989 32.6112 61.7019 32.6046 61.7059 32.5983C61.7101 32.5919 61.7132 32.5891 61.7131 32.5892C61.7129 32.5894 61.7112 32.5908 61.7078 32.593C61.7043 32.5951 61.6987 32.5983 61.6906 32.6016L61.3163 31.6743C60.9407 31.8259 60.6959 32.2274 60.6959 32.6207H61.6959ZM61.6959 34.8276V32.6207H60.6959V34.8276H61.6959ZM61.7445 34.8644C61.7219 34.8579 61.708 34.8464 61.7012 34.838C61.698 34.834 61.6968 34.8311 61.6963 34.8299C61.696 34.829 61.6959 34.8285 61.6959 34.8276H60.6959C60.6959 35.3171 61.0395 35.7019 61.4674 35.8253L61.7445 34.8644ZM68.6311 42.9677C68.3778 39.0607 65.5574 35.6983 61.7129 34.8564L61.499 35.8333C64.8981 36.5776 67.4081 39.56 67.6332 43.0323L68.6311 42.9677ZM51.5945 43.5H68.1321V42.5H51.5945V43.5ZM57.9068 34.8919C54.0665 35.7694 51.3126 39.0613 51.0953 42.9723L52.0938 43.0277C52.2865 39.5594 54.7263 36.6444 58.1296 35.8667L57.9068 34.8919ZM57.9282 34.8621C57.9282 34.8629 57.9282 34.8635 57.9278 34.8644C57.9274 34.8656 57.9261 34.8685 57.9229 34.8725C57.9161 34.8809 57.9022 34.8924 57.8797 34.8989L58.1568 35.8597C58.5846 35.7364 58.9282 35.3516 58.9282 34.8621H57.9282ZM57.9282 32.5862V34.8621H58.9282V32.5862H57.9282ZM57.9677 32.6016C57.959 32.598 57.9502 32.5927 57.9426 32.5861C57.9351 32.5796 57.9304 32.5734 57.9279 32.5693C57.923 32.5612 57.9282 32.5647 57.9282 32.5862H58.9282C58.9282 32.2163 58.7372 31.8338 58.3421 31.6743L57.9677 32.6016ZM55.5023 28.6552C55.5023 30.3246 56.4272 31.8456 57.9343 32.5866L58.3755 31.6892C57.2175 31.1199 56.5023 29.9513 56.5023 28.6552H55.5023ZM55.5023 26.4483V28.6552H56.5023V26.4483H55.5023ZM59.8633 22.0517C57.4673 22.0517 55.5023 24.0012 55.5023 26.4483H56.5023C56.5023 24.5506 58.0224 23.0517 59.8633 23.0517V22.0517ZM64.2244 26.4483C64.2244 24.0385 62.2622 22.0517 59.8633 22.0517V23.0517C61.7013 23.0517 63.2244 24.5822 63.2244 26.4483H64.2244ZM64.2244 28.6207V26.4483H63.2244V28.6207H64.2244ZM61.7196 32.5888C63.2606 31.8501 64.2244 30.295 64.2244 28.6207H63.2244C63.2244 29.9119 62.4797 31.1154 61.2873 31.6871L61.7196 32.5888ZM64.9509 30.3982C65.1358 29.8382 65.2494 29.2334 65.2494 28.6207H64.2494C64.2494 29.1115 64.158 29.6101 64.0013 30.0846L64.9509 30.3982ZM73.9084 29.7759L64.4779 29.7414L64.4743 30.7414L73.9048 30.7759L73.9084 29.7759ZM68.9801 25.2467C71.3941 25.7845 73.1885 27.8775 73.4086 30.3207L74.4046 30.231C74.1463 27.3639 72.0455 24.9051 69.1976 24.2706L68.9801 25.2467ZM68.1788 24.2414C68.1788 24.7309 68.5224 25.1157 68.9503 25.239L69.2274 24.2782C69.2049 24.2717 69.1909 24.2602 69.1842 24.2518C69.1809 24.2478 69.1797 24.2449 69.1792 24.2437C69.1789 24.2428 69.1788 24.2423 69.1788 24.2414H68.1788ZM68.1788 22.5862V24.2414H69.1788V22.5862H68.1788ZM68.7992 21.6398C68.4236 21.7914 68.1788 22.1929 68.1788 22.5862H69.1788C69.1788 22.5892 69.1784 22.5878 69.1801 22.5823C69.1818 22.5767 69.1848 22.5701 69.1889 22.5638C69.193 22.5575 69.1961 22.5546 69.196 22.5547C69.1958 22.5549 69.1941 22.5563 69.1907 22.5585C69.1873 22.5607 69.1816 22.5638 69.1735 22.5671L68.7992 21.6398ZM70.0923 19.5517C70.0923 20.4211 69.5592 21.2543 68.7611 21.6571L69.2116 22.5498C70.3269 21.987 71.0923 20.8202 71.0923 19.5517H70.0923ZM70.0923 17.8966V19.5517H71.0923V17.8966H70.0923ZM67.7904 15.569C69.0476 15.569 70.0923 16.6166 70.0923 17.8966H71.0923C71.0923 16.073 69.6085 14.569 67.7904 14.569V15.569ZM65.4886 17.8966C65.4886 16.6166 66.5333 15.569 67.7904 15.569V14.569C65.9724 14.569 64.4886 16.073 64.4886 17.8966H65.4886ZM65.4886 19.5517V17.8966H64.4886V19.5517H65.4886ZM66.7856 21.6226C65.9911 21.2217 65.4886 20.425 65.4886 19.5517H64.4886C64.4886 20.8164 65.2162 21.9508 66.3351 22.5154L66.7856 21.6226ZM67.3337 22.5172C67.3337 22.1474 67.1427 21.7648 66.7475 21.6053L66.3732 22.5326C66.3645 22.5291 66.3557 22.5238 66.348 22.5172C66.3405 22.5107 66.3359 22.5045 66.3334 22.5004C66.3285 22.4922 66.3337 22.4958 66.3337 22.5172H67.3337ZM67.3337 24.2414V22.5172H66.3337V24.2414H67.3337ZM66.5622 25.239C66.9901 25.1157 67.3337 24.7309 67.3337 24.2414H66.3337C66.3337 24.2423 66.3336 24.2428 66.3333 24.2437C66.3329 24.2449 66.3316 24.2478 66.3284 24.2518C66.3216 24.2602 66.3077 24.2717 66.2852 24.2782L66.5622 25.239ZM64.9137 25.9057C65.4076 25.5941 65.9684 25.3731 66.5331 25.2465L66.3143 24.2707C65.6489 24.42 64.9797 24.6817 64.3802 25.0599L64.9137 25.9057ZM65.2494 26.4138C65.2494 26.0734 65.2126 25.6867 65.1323 25.3625L64.1616 25.603C64.218 25.8305 64.2494 26.1335 64.2494 26.4138H65.2494ZM65.2494 28.6207V26.4138H64.2494V28.6207H65.2494Z" fill="#1D3A70"/>
<path d="M40.5452 62.422V65.308H44.0012V66.346H40.5452V70H39.2612V61.384H44.6012V62.422H40.5452ZM47.3948 65.074C47.5908 64.674 47.8268 64.36 48.1028 64.132C48.3788 63.904 48.7108 63.79 49.0988 63.79C49.2308 63.79 49.3548 63.806 49.4708 63.838C49.5908 63.866 49.6948 63.91 49.7828 63.97L49.7048 64.852C49.6768 64.96 49.6108 65.014 49.5068 65.014C49.4508 65.014 49.3668 65.004 49.2548 64.984C49.1428 64.96 49.0228 64.948 48.8948 64.948C48.7068 64.948 48.5408 64.976 48.3968 65.032C48.2528 65.084 48.1228 65.164 48.0068 65.272C47.8948 65.376 47.7948 65.506 47.7068 65.662C47.6188 65.814 47.5368 65.988 47.4608 66.184V70H46.2908V63.904H46.9628C47.0908 63.904 47.1768 63.928 47.2208 63.976C47.2688 64.02 47.3028 64.1 47.3228 64.216L47.3948 65.074ZM52.9093 63.904V70H51.7393V63.904H52.9093ZM53.1313 62.02C53.1313 62.128 53.1093 62.232 53.0653 62.332C53.0213 62.428 52.9613 62.514 52.8853 62.59C52.8133 62.662 52.7273 62.72 52.6273 62.764C52.5273 62.804 52.4233 62.824 52.3153 62.824C52.2073 62.824 52.1053 62.804 52.0093 62.764C51.9133 62.72 51.8273 62.662 51.7513 62.59C51.6793 62.514 51.6213 62.428 51.5773 62.332C51.5373 62.232 51.5173 62.128 51.5173 62.02C51.5173 61.908 51.5373 61.804 51.5773 61.708C51.6213 61.608 51.6793 61.522 51.7513 61.45C51.8273 61.374 51.9133 61.316 52.0093 61.276C52.1053 61.232 52.2073 61.21 52.3153 61.21C52.4233 61.21 52.5273 61.232 52.6273 61.276C52.7273 61.316 52.8133 61.374 52.8853 61.45C52.9613 61.522 53.0213 61.608 53.0653 61.708C53.1093 61.804 53.1313 61.908 53.1313 62.02ZM59.6413 66.274C59.6413 66.042 59.6073 65.828 59.5393 65.632C59.4753 65.436 59.3793 65.266 59.2513 65.122C59.1233 64.978 58.9673 64.866 58.7833 64.786C58.5993 64.706 58.3873 64.666 58.1473 64.666C57.6553 64.666 57.2673 64.808 56.9833 65.092C56.7033 65.376 56.5253 65.77 56.4493 66.274H59.6413ZM60.6073 69.13C60.4633 69.298 60.2973 69.444 60.1093 69.568C59.9213 69.688 59.7213 69.786 59.5093 69.862C59.2973 69.938 59.0773 69.994 58.8493 70.03C58.6253 70.066 58.4033 70.084 58.1833 70.084C57.7633 70.084 57.3733 70.014 57.0133 69.874C56.6573 69.73 56.3473 69.522 56.0833 69.25C55.8233 68.974 55.6193 68.634 55.4713 68.23C55.3273 67.822 55.2553 67.354 55.2553 66.826C55.2553 66.402 55.3213 66.008 55.4533 65.644C55.5853 65.276 55.7733 64.956 56.0173 64.684C56.2653 64.412 56.5673 64.198 56.9233 64.042C57.2793 63.886 57.6793 63.808 58.1233 63.808C58.4953 63.808 58.8373 63.87 59.1493 63.994C59.4653 64.114 59.7373 64.29 59.9653 64.522C60.1933 64.754 60.3713 65.04 60.4993 65.38C60.6313 65.72 60.6973 66.108 60.6973 66.544C60.6973 66.724 60.6773 66.846 60.6373 66.91C60.5973 66.97 60.5233 67 60.4153 67H56.4193C56.4313 67.364 56.4833 67.682 56.5753 67.954C56.6673 68.222 56.7933 68.446 56.9533 68.626C57.1173 68.806 57.3113 68.94 57.5353 69.028C57.7593 69.116 58.0093 69.16 58.2853 69.16C58.5453 69.16 58.7693 69.13 58.9573 69.07C59.1493 69.01 59.3133 68.946 59.4493 68.878C59.5893 68.806 59.7053 68.74 59.7973 68.68C59.8933 68.62 59.9773 68.59 60.0493 68.59C60.1453 68.59 60.2193 68.626 60.2713 68.698L60.6073 69.13ZM64.0528 64.75C64.1848 64.61 64.3228 64.482 64.4668 64.366C64.6108 64.25 64.7628 64.152 64.9228 64.072C65.0868 63.988 65.2608 63.924 65.4448 63.88C65.6328 63.832 65.8328 63.808 66.0448 63.808C66.3808 63.808 66.6748 63.864 66.9268 63.976C67.1828 64.088 67.3968 64.246 67.5688 64.45C67.7408 64.65 67.8708 64.892 67.9588 65.176C68.0468 65.46 68.0908 65.774 68.0908 66.118V70H66.9148V66.118C66.9148 65.682 66.8148 65.344 66.6148 65.104C66.4148 64.86 66.1088 64.738 65.6968 64.738C65.3968 64.738 65.1148 64.81 64.8508 64.954C64.5908 65.094 64.3488 65.286 64.1248 65.53V70H62.9548V63.904H63.6568C63.8208 63.904 63.9228 63.982 63.9628 64.138L64.0528 64.75ZM74.5997 65.38C74.4077 65.128 74.1997 64.952 73.9757 64.852C73.7557 64.752 73.5077 64.702 73.2317 64.702C72.6957 64.702 72.2797 64.896 71.9837 65.284C71.6917 65.668 71.5457 66.23 71.5457 66.97C71.5457 67.358 71.5777 67.69 71.6417 67.966C71.7097 68.238 71.8057 68.462 71.9297 68.638C72.0577 68.81 72.2137 68.938 72.3977 69.022C72.5817 69.102 72.7897 69.142 73.0217 69.142C73.3617 69.142 73.6557 69.066 73.9037 68.914C74.1517 68.762 74.3837 68.548 74.5997 68.272V65.38ZM75.7757 61.144V70H75.0677C74.9037 70 74.8017 69.922 74.7617 69.766L74.6597 69.064C74.3997 69.372 74.1037 69.62 73.7717 69.808C73.4437 69.992 73.0637 70.084 72.6317 70.084C72.2837 70.084 71.9677 70.016 71.6837 69.88C71.4037 69.744 71.1637 69.546 70.9637 69.286C70.7637 69.022 70.6097 68.696 70.5017 68.308C70.3937 67.92 70.3397 67.474 70.3397 66.97C70.3397 66.518 70.3997 66.098 70.5197 65.71C70.6397 65.322 70.8137 64.986 71.0417 64.702C71.2697 64.418 71.5457 64.196 71.8697 64.036C72.1937 63.872 72.5597 63.79 72.9677 63.79C73.3357 63.79 73.6477 63.85 73.9037 63.97C74.1637 64.09 74.3957 64.26 74.5997 64.48V61.144H75.7757ZM82.0019 64.954C81.9699 65.006 81.9359 65.044 81.8999 65.068C81.8639 65.088 81.8179 65.098 81.7619 65.098C81.6979 65.098 81.6259 65.076 81.5459 65.032C81.4699 64.988 81.3759 64.94 81.2639 64.888C81.1559 64.836 81.0279 64.788 80.8799 64.744C80.7319 64.7 80.5559 64.678 80.3519 64.678C80.1839 64.678 80.0299 64.7 79.8899 64.744C79.7539 64.784 79.6379 64.842 79.5419 64.918C79.4459 64.99 79.3719 65.078 79.3199 65.182C79.2679 65.282 79.2419 65.39 79.2419 65.506C79.2419 65.658 79.2859 65.784 79.3739 65.884C79.4659 65.984 79.5839 66.07 79.7279 66.142C79.8759 66.214 80.0419 66.28 80.2259 66.34C80.4139 66.396 80.6039 66.456 80.7959 66.52C80.9919 66.584 81.1819 66.658 81.3659 66.742C81.5539 66.822 81.7199 66.924 81.8639 67.048C82.0119 67.168 82.1299 67.314 82.2179 67.486C82.3099 67.658 82.3559 67.868 82.3559 68.116C82.3559 68.4 82.3039 68.664 82.1999 68.908C82.0999 69.148 81.9499 69.356 81.7499 69.532C81.5539 69.708 81.3099 69.846 81.0179 69.946C80.7259 70.046 80.3919 70.096 80.0159 70.096C79.5959 70.096 79.2079 70.026 78.8519 69.886C78.4959 69.746 78.1979 69.568 77.9579 69.352L78.2339 68.902C78.2659 68.846 78.3059 68.804 78.3539 68.776C78.4019 68.744 78.4659 68.728 78.5459 68.728C78.6219 68.728 78.6999 68.756 78.7799 68.812C78.8599 68.868 78.9559 68.93 79.0679 68.998C79.1799 69.062 79.3159 69.122 79.4759 69.178C79.6359 69.23 79.8359 69.256 80.0759 69.256C80.2759 69.256 80.4499 69.232 80.5979 69.184C80.7459 69.132 80.8679 69.064 80.9639 68.98C81.0639 68.892 81.1379 68.792 81.1859 68.68C81.2339 68.568 81.2579 68.45 81.2579 68.326C81.2579 68.166 81.2119 68.034 81.1199 67.93C81.0319 67.822 80.9139 67.73 80.7659 67.654C80.6219 67.578 80.4559 67.512 80.2679 67.456C80.0799 67.4 79.8879 67.34 79.6919 67.276C79.4959 67.212 79.3039 67.138 79.1159 67.054C78.9279 66.97 78.7599 66.864 78.6119 66.736C78.4679 66.608 78.3499 66.452 78.2579 66.268C78.1699 66.084 78.1259 65.86 78.1259 65.596C78.1259 65.36 78.1739 65.134 78.2699 64.918C78.3699 64.702 78.5119 64.512 78.6959 64.348C78.8839 64.184 79.1139 64.054 79.3859 63.958C79.6619 63.858 79.9759 63.808 80.3279 63.808C80.7319 63.808 81.0959 63.872 81.4199 64C81.7479 64.128 82.0279 64.304 82.2599 64.528L82.0019 64.954Z" fill="#1D3A70"/>
</g>
<defs>
<filter id="filter0_d_316_4585" x="-48" y="-46" width="215" height="182" filterUnits="userSpaceOnUse" color-interpolation-filters="sRGB">
<feFlood flood-opacity="0" result="BackgroundImageFix"/>
<feColorMatrix in="SourceAlpha" type="matrix" values="0 0 0 0 0 0 0 0 0 0 0 0 0 0 0 0 0 0 127 0" result="hardAlpha"/>
<feOffset dy="2"/>
<feGaussianBlur stdDeviation="24"/>
<feColorMatrix type="matrix" values="0 0 0 0 0 0 0 0 0 0 0 0 0 0 0 0 0 0 0.04 0"/>
<feBlend mode="normal" in2="BackgroundImageFix" result="effect1_dropShadow_316_4585"/>
<feBlend mode="normal" in="SourceGraphic" in2="effect1_dropShadow_316_4585" result="shape"/>
</filter>
<clipPath id="clip0_316_4585">
<rect width="119" height="86" fill="white"/>
</clipPath>
</defs>
</svg>
