<svg width="85" height="69" viewBox="0 0 85 69" fill="none" xmlns="http://www.w3.org/2000/svg">
<g clip-path="url(#clip0_316_4142)">
<path d="M34 17.6L32 16.5V14" stroke="#1D3A70" stroke-width="2" stroke-linecap="round" stroke-linejoin="round"/>
<path d="M32 10V7.50002L34 6.40002" stroke="#1D3A70" stroke-width="2" stroke-linecap="round" stroke-linejoin="round"/>
<path d="M38 4.1L40 3L42 4.1" stroke="#1D3A70" stroke-width="2" stroke-linecap="round" stroke-linejoin="round"/>
<path d="M46 6.40002L48 7.50002V10" stroke="#1D3A70" stroke-width="2" stroke-linecap="round" stroke-linejoin="round"/>
<path d="M48 14V16.5L46 17.62" stroke="#1D3A70" stroke-width="2" stroke-linecap="round" stroke-linejoin="round"/>
<path d="M42 19.9L40 21L38 19.9" stroke="#1D3A70" stroke-width="2" stroke-linecap="round" stroke-linejoin="round"/>
<path d="M40 12L42 10.9" stroke="#1D3A70" stroke-width="2" stroke-linecap="round" stroke-linejoin="round"/>
<path d="M46 8.6L48 7.5" stroke="#1D3A70" stroke-width="2" stroke-linecap="round" stroke-linejoin="round"/>
<path d="M40 12V14.5" stroke="#1D3A70" stroke-width="2" stroke-linecap="round" stroke-linejoin="round"/>
<path d="M40 18.5V21" stroke="#1D3A70" stroke-width="2" stroke-linecap="round" stroke-linejoin="round"/>
<path d="M40 12L38 10.88" stroke="#1D3A70" stroke-width="2" stroke-linecap="round" stroke-linejoin="round"/>
<path d="M34 8.6L32 7.5" stroke="#1D3A70" stroke-width="2" stroke-linecap="round" stroke-linejoin="round"/>
</g>
<path opacity="0.5" d="M10.7741 33.788C10.7341 33.856 10.6921 33.906 10.6481 33.938C10.6041 33.97 10.5481 33.986 10.4801 33.986C10.4081 33.986 10.3261 33.954 10.2341 33.89C10.1421 33.822 10.0261 33.748 9.88606 33.668C9.75006 33.584 9.58606 33.51 9.39406 33.446C9.20206 33.378 8.97206 33.344 8.70406 33.344C8.45206 33.344 8.23006 33.378 8.03806 33.446C7.85006 33.51 7.69206 33.6 7.56406 33.716C7.43606 33.828 7.33806 33.962 7.27006 34.118C7.20606 34.27 7.17406 34.436 7.17406 34.616C7.17406 34.848 7.23206 35.04 7.34806 35.192C7.46806 35.344 7.62406 35.474 7.81606 35.582C8.00806 35.69 8.22606 35.784 8.47006 35.864C8.71406 35.944 8.96406 36.028 9.22006 36.116C9.47606 36.2 9.72606 36.298 9.97006 36.41C10.2141 36.522 10.4321 36.664 10.6241 36.836C10.8161 37.004 10.9701 37.212 11.0861 37.46C11.2061 37.704 11.2661 38.004 11.2661 38.36C11.2661 38.74 11.2001 39.096 11.0681 39.428C10.9401 39.76 10.7521 40.05 10.5041 40.298C10.2561 40.546 9.95006 40.742 9.58606 40.886C9.22606 41.026 8.81606 41.096 8.35606 41.096C8.08006 41.096 7.81206 41.068 7.55206 41.012C7.29206 40.96 7.04606 40.886 6.81406 40.79C6.58206 40.69 6.36406 40.572 6.16006 40.436C5.96006 40.296 5.78006 40.14 5.62006 39.968L5.98606 39.356C6.02206 39.308 6.06406 39.268 6.11206 39.236C6.16406 39.204 6.22206 39.188 6.28606 39.188C6.37006 39.188 6.46606 39.232 6.57406 39.32C6.68606 39.408 6.82206 39.506 6.98206 39.614C7.14606 39.718 7.34006 39.814 7.56406 39.902C7.79206 39.99 8.06806 40.034 8.39206 40.034C8.65606 40.034 8.89206 40 9.10006 39.932C9.30806 39.86 9.48206 39.76 9.62206 39.632C9.76606 39.5 9.87606 39.342 9.95206 39.158C10.0281 38.974 10.0661 38.77 10.0661 38.546C10.0661 38.294 10.0081 38.088 9.89206 37.928C9.77606 37.768 9.62206 37.634 9.43006 37.526C9.23806 37.418 9.02006 37.326 8.77606 37.25C8.53206 37.174 8.28206 37.096 8.02606 37.016C7.77006 36.932 7.52006 36.836 7.27606 36.728C7.03206 36.62 6.81406 36.48 6.62206 36.308C6.43006 36.132 6.27606 35.914 6.16006 35.654C6.04406 35.39 5.98606 35.066 5.98606 34.682C5.98606 34.374 6.04606 34.076 6.16606 33.788C6.28606 33.5 6.46006 33.246 6.68806 33.026C6.92006 32.802 7.20406 32.624 7.54006 32.492C7.87606 32.356 8.26006 32.288 8.69206 32.288C9.17606 32.288 9.62006 32.366 10.0241 32.522C10.4321 32.674 10.7861 32.894 11.0861 33.182L10.7741 33.788ZM19.1974 33.452H16.4614V41H15.1894V33.452H12.4414V32.384H19.1974V33.452ZM24.6509 37.79L23.3729 34.448C23.2809 34.22 23.1889 33.932 23.0969 33.584C23.0529 33.756 23.0069 33.916 22.9589 34.064C22.9149 34.212 22.8709 34.344 22.8269 34.46L21.5549 37.79H24.6509ZM27.1769 41H26.1929C26.0809 41 25.9889 40.972 25.9169 40.916C25.8449 40.86 25.7929 40.788 25.7609 40.7L24.9989 38.702H21.2009L20.4389 40.7C20.4109 40.776 20.3589 40.846 20.2829 40.91C20.2069 40.97 20.1149 41 20.0069 41H19.0229L22.4549 32.384H23.7449L27.1769 41ZM33.7629 33.452H31.0269V41H29.7549V33.452H27.0069V32.384H33.7629V33.452ZM40.8282 39.962L40.8222 41H35.4822V32.384H40.8222V33.422H36.7662V36.152H40.0302V37.154H36.7662V39.962H40.8282ZM48.8451 36.536C49.1731 36.536 49.4611 36.496 49.7091 36.416C49.9611 36.336 50.1711 36.224 50.3391 36.08C50.5071 35.932 50.6331 35.758 50.7171 35.558C50.8011 35.354 50.8431 35.13 50.8431 34.886C50.8431 34.39 50.6791 34.016 50.3511 33.764C50.0271 33.512 49.5391 33.386 48.8871 33.386H47.6811V36.536H48.8451ZM52.8651 41H51.7251C51.4971 41 51.3311 40.91 51.2271 40.73L49.0971 37.742C49.0291 37.642 48.9551 37.572 48.8751 37.532C48.7951 37.488 48.6751 37.466 48.5151 37.466H47.6811V41H46.4031V32.384H48.8871C49.4431 32.384 49.9211 32.442 50.3211 32.558C50.7251 32.67 51.0571 32.832 51.3171 33.044C51.5811 33.252 51.7751 33.504 51.8991 33.8C52.0271 34.096 52.0911 34.428 52.0911 34.796C52.0911 35.096 52.0451 35.378 51.9531 35.642C51.8611 35.906 51.7251 36.144 51.5451 36.356C51.3691 36.564 51.1531 36.744 50.8971 36.896C50.6411 37.048 50.3511 37.164 50.0271 37.244C50.1871 37.34 50.3251 37.474 50.4411 37.646L52.8651 41ZM59.0314 37.79L57.7534 34.448C57.6614 34.22 57.5694 33.932 57.4774 33.584C57.4334 33.756 57.3874 33.916 57.3394 34.064C57.2954 34.212 57.2514 34.344 57.2074 34.46L55.9354 37.79H59.0314ZM61.5574 41H60.5734C60.4614 41 60.3694 40.972 60.2974 40.916C60.2254 40.86 60.1734 40.788 60.1414 40.7L59.3794 38.702H55.5814L54.8194 40.7C54.7914 40.776 54.7394 40.846 54.6634 40.91C54.5874 40.97 54.4954 41 54.3874 41H53.4034L56.8354 32.384H58.1254L61.5574 41ZM70.1691 32.384V41H69.5211C69.4211 41 69.3371 40.982 69.2691 40.946C69.2051 40.91 69.1391 40.852 69.0711 40.772L64.2051 34.478C64.2131 34.586 64.2191 34.692 64.2231 34.796C64.2311 34.9 64.2351 34.998 64.2351 35.09V41H63.1131V32.384H63.7731C63.8851 32.384 63.9691 32.398 64.0251 32.426C64.0811 32.45 64.1431 32.508 64.2111 32.6L69.0891 38.9C69.0771 38.784 69.0671 38.672 69.0591 38.564C69.0551 38.452 69.0531 38.348 69.0531 38.252V32.384H70.1691ZM74.0586 36.11H74.4786C74.6306 36.11 74.7526 36.092 74.8446 36.056C74.9406 36.016 75.0266 35.95 75.1026 35.858L77.8446 32.672C77.9326 32.564 78.0226 32.49 78.1146 32.45C78.2066 32.406 78.3206 32.384 78.4566 32.384H79.5486L76.3566 36.056C76.2766 36.16 76.1966 36.244 76.1166 36.308C76.0406 36.372 75.9606 36.426 75.8766 36.47C76.0966 36.546 76.2886 36.7 76.4526 36.932L79.7706 41H78.6606C78.5806 41 78.5106 40.994 78.4506 40.982C78.3946 40.97 78.3446 40.954 78.3006 40.934C78.2606 40.91 78.2226 40.882 78.1866 40.85C78.1546 40.818 78.1246 40.78 78.0966 40.736L75.2586 37.376C75.2186 37.324 75.1786 37.28 75.1386 37.244C75.0986 37.208 75.0526 37.18 75.0006 37.16C74.9486 37.136 74.8886 37.12 74.8206 37.112C74.7526 37.1 74.6726 37.094 74.5806 37.094H74.0586V41H72.7806V32.384H74.0586V36.11Z" fill="#1D3A70"/>
<path d="M26.4688 61.376C26.3728 61.376 26.2875 61.344 26.2128 61.28C26.1488 61.2053 26.1221 61.12 26.1328 61.024L26.3568 59.488H25.2208C25.1141 59.488 25.0235 59.4507 24.9488 59.376C24.8848 59.3013 24.8528 59.2107 24.8528 59.104V57.856C24.8528 57.7387 24.8848 57.648 24.9488 57.584C25.0235 57.5093 25.1141 57.472 25.2208 57.472H26.6608L26.9648 55.424H25.6368C25.5301 55.424 25.4395 55.3867 25.3648 55.312C25.3008 55.2373 25.2688 55.1467 25.2688 55.04V53.792C25.2688 53.6747 25.3008 53.584 25.3648 53.52C25.4395 53.4453 25.5301 53.408 25.6368 53.408H27.2688L27.5088 51.856C27.5301 51.7707 27.5675 51.696 27.6208 51.632C27.6848 51.5573 27.7701 51.52 27.8768 51.52H29.1408C29.2368 51.52 29.3168 51.5573 29.3808 51.632C29.4555 51.696 29.4928 51.776 29.4928 51.872L29.2528 53.408H30.9008L31.1408 51.856C31.1621 51.7707 31.1995 51.696 31.2528 51.632C31.3168 51.5573 31.4021 51.52 31.5088 51.52H32.7728C32.8688 51.52 32.9488 51.5573 33.0128 51.632C33.0875 51.696 33.1248 51.776 33.1248 51.872L32.8848 53.408H34.0208C34.1275 53.408 34.2181 53.4453 34.2928 53.52C34.3675 53.584 34.4048 53.6747 34.4048 53.792V55.04C34.4048 55.1467 34.3675 55.2373 34.2928 55.312C34.2181 55.3867 34.1275 55.424 34.0208 55.424H32.5968L32.2928 57.472H33.6048C33.7115 57.472 33.8021 57.5093 33.8768 57.584C33.9515 57.648 33.9888 57.7387 33.9888 57.856V59.104C33.9888 59.2107 33.9515 59.3013 33.8768 59.376C33.8021 59.4507 33.7115 59.488 33.6048 59.488H31.9888L31.7648 61.04C31.7328 61.264 31.5995 61.376 31.3648 61.376H30.1008C30.0048 61.376 29.9248 61.344 29.8608 61.28C29.7968 61.2053 29.7648 61.12 29.7648 61.024L29.9888 59.488H28.3568L28.1328 61.04C28.1008 61.264 27.9675 61.376 27.7328 61.376H26.4688ZM28.6608 57.472H30.2928L30.5968 55.424H28.9648L28.6608 57.472ZM40.2216 62.176C39.2189 62.176 38.3816 62.0213 37.7096 61.712C37.0376 61.392 36.5256 60.9813 36.1736 60.48C35.8322 59.968 35.6509 59.4187 35.6296 58.832C35.6296 58.736 35.6616 58.656 35.7256 58.592C35.7896 58.528 35.8696 58.496 35.9656 58.496H38.1096C38.2482 58.496 38.3549 58.528 38.4296 58.592C38.5149 58.6453 38.5789 58.7147 38.6216 58.8C38.7176 59.0453 38.8402 59.248 38.9896 59.408C39.1496 59.568 39.3309 59.6853 39.5336 59.76C39.7469 59.8347 39.9816 59.872 40.2376 59.872C40.5362 59.872 40.8136 59.808 41.0696 59.68C41.3256 59.552 41.5282 59.3653 41.6776 59.12C41.8376 58.864 41.9176 58.56 41.9176 58.208C41.9176 57.888 41.8429 57.6107 41.6936 57.376C41.5549 57.1413 41.3576 56.9547 41.1016 56.816C40.8456 56.6773 40.5576 56.608 40.2376 56.608C39.9816 56.608 39.7736 56.64 39.6136 56.704C39.4536 56.7573 39.3202 56.8267 39.2136 56.912C39.1069 56.9973 39.0109 57.072 38.9256 57.136C38.8402 57.1893 38.7442 57.216 38.6376 57.216H36.5416C36.4456 57.216 36.3602 57.184 36.2856 57.12C36.2216 57.0453 36.1896 56.96 36.1896 56.864L36.7656 51.28C36.7869 51.12 36.8456 51.0027 36.9416 50.928C37.0376 50.8427 37.1549 50.8 37.2936 50.8H43.7096C43.8269 50.8 43.9229 50.8373 43.9976 50.912C44.0722 50.9867 44.1096 51.0827 44.1096 51.2V52.704C44.1096 52.8213 44.0722 52.9173 43.9976 52.992C43.9229 53.0667 43.8269 53.104 43.7096 53.104H39.0696L38.8616 55.184C39.0962 55.024 39.3682 54.896 39.6776 54.8C39.9976 54.6933 40.4296 54.64 40.9736 54.64C41.4856 54.64 41.9709 54.7253 42.4296 54.896C42.8989 55.0667 43.3149 55.312 43.6776 55.632C44.0509 55.952 44.3389 56.336 44.5416 56.784C44.7549 57.2213 44.8616 57.7173 44.8616 58.272C44.8616 59.0293 44.6749 59.7013 44.3016 60.288C43.9389 60.8747 43.4109 61.3387 42.7176 61.68C42.0242 62.0107 41.1922 62.176 40.2216 62.176ZM50.7253 62.16C49.7866 62.16 48.96 61.9893 48.2453 61.648C47.5306 61.3067 46.9706 60.8373 46.5653 60.24C46.1706 59.632 45.9733 58.9387 45.9733 58.16C45.9733 57.8293 46.0213 57.504 46.1173 57.184C46.224 56.8533 46.352 56.544 46.5013 56.256C46.6506 55.9573 46.8 55.696 46.9493 55.472C47.0986 55.2373 47.2213 55.0507 47.3173 54.912L50.1333 51.12C50.1866 51.0667 50.256 51.0027 50.3413 50.928C50.4266 50.8427 50.5493 50.8 50.7093 50.8H52.8373C52.9333 50.8 53.0133 50.8373 53.0773 50.912C53.1413 50.976 53.1733 51.056 53.1733 51.152C53.1733 51.1947 53.168 51.2373 53.1573 51.28C53.1466 51.312 53.1306 51.3387 53.1093 51.36L50.9493 54.304C51.0133 54.2827 51.088 54.272 51.1733 54.272C51.2693 54.2613 51.3546 54.256 51.4293 54.256C51.9093 54.2773 52.384 54.384 52.8533 54.576C53.3226 54.768 53.7493 55.0293 54.1333 55.36C54.5173 55.6907 54.8213 56.0907 55.0453 56.56C55.28 57.0187 55.3973 57.536 55.3973 58.112C55.3973 58.848 55.2053 59.5253 54.8213 60.144C54.4373 60.752 53.8933 61.2427 53.1893 61.616C52.496 61.9787 51.6746 62.16 50.7253 62.16ZM50.7093 59.856C51.0186 59.856 51.3066 59.792 51.5733 59.664C51.84 59.5253 52.0533 59.3333 52.2133 59.088C52.384 58.832 52.4693 58.5173 52.4693 58.144C52.4693 57.7707 52.3893 57.4613 52.2293 57.216C52.0693 56.96 51.856 56.768 51.5893 56.64C51.3226 56.512 51.0293 56.448 50.7093 56.448C50.3893 56.448 50.0906 56.512 49.8133 56.64C49.5466 56.768 49.3333 56.96 49.1733 57.216C49.0133 57.4613 48.9333 57.7707 48.9333 58.144C48.9333 58.5173 49.0133 58.832 49.1733 59.088C49.344 59.3333 49.5626 59.5253 49.8293 59.664C50.096 59.792 50.3893 59.856 50.7093 59.856Z" fill="#1D3A70"/>
<defs>
<clipPath id="clip0_316_4142">
<rect width="24" height="24" fill="white" transform="translate(28)"/>
</clipPath>
</defs>
</svg>
