<svg width="85" height="69" viewBox="0 0 85 69" fill="none" xmlns="http://www.w3.org/2000/svg">
<g clip-path="url(#clip0_316_4152)">
<path d="M42.9998 17.75L36.8278 20.995L38.0068 14.122L33.0068 9.25501L39.9068 8.25501L42.9928 2.00201L46.0788 8.25501L52.9788 9.25501L47.9788 14.122L49.1578 20.995L42.9998 17.75Z" stroke="#1D3A70" stroke-width="2" stroke-linecap="round" stroke-linejoin="round"/>
</g>
<path opacity="0.5" d="M23.4212 36.818C23.7452 36.818 24.0292 36.776 24.2732 36.692C24.5212 36.608 24.7272 36.49 24.8912 36.338C25.0592 36.182 25.1852 35.998 25.2692 35.786C25.3532 35.57 25.3952 35.332 25.3952 35.072C25.3952 34.548 25.2312 34.136 24.9032 33.836C24.5792 33.536 24.0852 33.386 23.4212 33.386H22.0892V36.818H23.4212ZM23.4212 32.384C23.9732 32.384 24.4532 32.448 24.8612 32.576C25.2692 32.704 25.6072 32.886 25.8752 33.122C26.1432 33.354 26.3412 33.636 26.4692 33.968C26.6012 34.3 26.6672 34.668 26.6672 35.072C26.6672 35.476 26.5972 35.848 26.4572 36.188C26.3172 36.524 26.1112 36.814 25.8392 37.058C25.5672 37.302 25.2272 37.492 24.8192 37.628C24.4152 37.76 23.9492 37.826 23.4212 37.826H22.0892V41H20.8112V32.384H23.4212ZM36.5848 36.692C36.5848 37.336 36.4808 37.928 36.2728 38.468C36.0688 39.004 35.7788 39.468 35.4028 39.86C35.0268 40.248 34.5768 40.55 34.0528 40.766C33.5288 40.982 32.9468 41.09 32.3068 41.09C31.6708 41.09 31.0888 40.982 30.5608 40.766C30.0368 40.55 29.5868 40.248 29.2108 39.86C28.8388 39.468 28.5488 39.004 28.3408 38.468C28.1328 37.928 28.0288 37.336 28.0288 36.692C28.0288 36.052 28.1328 35.462 28.3408 34.922C28.5488 34.382 28.8388 33.918 29.2108 33.53C29.5868 33.138 30.0368 32.834 30.5608 32.618C31.0888 32.398 31.6708 32.288 32.3068 32.288C32.9468 32.288 33.5288 32.398 34.0528 32.618C34.5768 32.834 35.0268 33.138 35.4028 33.53C35.7788 33.918 36.0688 34.382 36.2728 34.922C36.4808 35.462 36.5848 36.052 36.5848 36.692ZM35.2768 36.692C35.2768 36.18 35.2068 35.72 35.0668 35.312C34.9268 34.904 34.7268 34.558 34.4668 34.274C34.2108 33.99 33.8988 33.772 33.5308 33.62C33.1668 33.468 32.7588 33.392 32.3068 33.392C31.8548 33.392 31.4448 33.468 31.0768 33.62C30.7128 33.772 30.4008 33.99 30.1408 34.274C29.8808 34.558 29.6808 34.904 29.5408 35.312C29.4008 35.72 29.3308 36.18 29.3308 36.692C29.3308 37.208 29.4008 37.67 29.5408 38.078C29.6808 38.482 29.8808 38.826 30.1408 39.11C30.4008 39.394 30.7128 39.612 31.0768 39.764C31.4448 39.912 31.8548 39.986 32.3068 39.986C32.7588 39.986 33.1668 39.912 33.5308 39.764C33.8988 39.612 34.2108 39.394 34.4668 39.11C34.7268 38.826 34.9268 38.482 35.0668 38.078C35.2068 37.67 35.2768 37.208 35.2768 36.692ZM39.9537 41H38.6697V32.384H39.9537V41ZM49.6158 32.384V41H48.9678C48.8678 41 48.7838 40.982 48.7158 40.946C48.6518 40.91 48.5858 40.852 48.5178 40.772L43.6518 34.478C43.6598 34.586 43.6658 34.692 43.6698 34.796C43.6778 34.9 43.6818 34.998 43.6818 35.09V41H42.5598V32.384H43.2198C43.3318 32.384 43.4158 32.398 43.4718 32.426C43.5278 32.45 43.5898 32.508 43.6578 32.6L48.5358 38.9C48.5238 38.784 48.5138 38.672 48.5058 38.564C48.5018 38.452 48.4998 38.348 48.4998 38.252V32.384H49.6158ZM58.1013 33.452H55.3653V41H54.0933V33.452H51.3453V32.384H58.1013V33.452ZM64.2434 33.788C64.2034 33.856 64.1614 33.906 64.1174 33.938C64.0734 33.97 64.0174 33.986 63.9494 33.986C63.8774 33.986 63.7954 33.954 63.7034 33.89C63.6114 33.822 63.4954 33.748 63.3554 33.668C63.2194 33.584 63.0554 33.51 62.8634 33.446C62.6714 33.378 62.4414 33.344 62.1734 33.344C61.9214 33.344 61.6994 33.378 61.5074 33.446C61.3194 33.51 61.1614 33.6 61.0334 33.716C60.9054 33.828 60.8074 33.962 60.7394 34.118C60.6754 34.27 60.6434 34.436 60.6434 34.616C60.6434 34.848 60.7014 35.04 60.8174 35.192C60.9374 35.344 61.0934 35.474 61.2854 35.582C61.4774 35.69 61.6954 35.784 61.9394 35.864C62.1834 35.944 62.4334 36.028 62.6894 36.116C62.9454 36.2 63.1954 36.298 63.4394 36.41C63.6834 36.522 63.9014 36.664 64.0934 36.836C64.2854 37.004 64.4394 37.212 64.5554 37.46C64.6754 37.704 64.7354 38.004 64.7354 38.36C64.7354 38.74 64.6694 39.096 64.5374 39.428C64.4094 39.76 64.2214 40.05 63.9734 40.298C63.7254 40.546 63.4194 40.742 63.0554 40.886C62.6954 41.026 62.2854 41.096 61.8254 41.096C61.5494 41.096 61.2814 41.068 61.0214 41.012C60.7614 40.96 60.5154 40.886 60.2834 40.79C60.0514 40.69 59.8334 40.572 59.6294 40.436C59.4294 40.296 59.2494 40.14 59.0894 39.968L59.4554 39.356C59.4914 39.308 59.5334 39.268 59.5814 39.236C59.6334 39.204 59.6914 39.188 59.7554 39.188C59.8394 39.188 59.9354 39.232 60.0434 39.32C60.1554 39.408 60.2914 39.506 60.4514 39.614C60.6154 39.718 60.8094 39.814 61.0334 39.902C61.2614 39.99 61.5374 40.034 61.8614 40.034C62.1254 40.034 62.3614 40 62.5694 39.932C62.7774 39.86 62.9514 39.76 63.0914 39.632C63.2354 39.5 63.3454 39.342 63.4214 39.158C63.4974 38.974 63.5354 38.77 63.5354 38.546C63.5354 38.294 63.4774 38.088 63.3614 37.928C63.2454 37.768 63.0914 37.634 62.8994 37.526C62.7074 37.418 62.4894 37.326 62.2454 37.25C62.0014 37.174 61.7514 37.096 61.4954 37.016C61.2394 36.932 60.9894 36.836 60.7454 36.728C60.5014 36.62 60.2834 36.48 60.0914 36.308C59.8994 36.132 59.7454 35.914 59.6294 35.654C59.5134 35.39 59.4554 35.066 59.4554 34.682C59.4554 34.374 59.5154 34.076 59.6354 33.788C59.7554 33.5 59.9294 33.246 60.1574 33.026C60.3894 32.802 60.6734 32.624 61.0094 32.492C61.3454 32.356 61.7294 32.288 62.1614 32.288C62.6454 32.288 63.0894 32.366 63.4934 32.522C63.9014 32.674 64.2554 32.894 64.5554 33.182L64.2434 33.788Z" fill="#1D3A70"/>
<path d="M31.3856 62.176C30.383 62.176 29.5456 62.0213 28.8736 61.712C28.2016 61.392 27.6896 60.9813 27.3376 60.48C26.9963 59.968 26.815 59.4187 26.7936 58.832C26.7936 58.736 26.8256 58.656 26.8896 58.592C26.9536 58.528 27.0336 58.496 27.1296 58.496H29.2736C29.4123 58.496 29.519 58.528 29.5936 58.592C29.679 58.6453 29.743 58.7147 29.7856 58.8C29.8816 59.0453 30.0043 59.248 30.1536 59.408C30.3136 59.568 30.495 59.6853 30.6976 59.76C30.911 59.8347 31.1456 59.872 31.4016 59.872C31.7003 59.872 31.9776 59.808 32.2336 59.68C32.4896 59.552 32.6923 59.3653 32.8416 59.12C33.0016 58.864 33.0816 58.56 33.0816 58.208C33.0816 57.888 33.007 57.6107 32.8576 57.376C32.719 57.1413 32.5216 56.9547 32.2656 56.816C32.0096 56.6773 31.7216 56.608 31.4016 56.608C31.1456 56.608 30.9376 56.64 30.7776 56.704C30.6176 56.7573 30.4843 56.8267 30.3776 56.912C30.271 56.9973 30.175 57.072 30.0896 57.136C30.0043 57.1893 29.9083 57.216 29.8016 57.216H27.7056C27.6096 57.216 27.5243 57.184 27.4496 57.12C27.3856 57.0453 27.3536 56.96 27.3536 56.864L27.9296 51.28C27.951 51.12 28.0096 51.0027 28.1056 50.928C28.2016 50.8427 28.319 50.8 28.4576 50.8H34.8736C34.991 50.8 35.087 50.8373 35.1616 50.912C35.2363 50.9867 35.2736 51.0827 35.2736 51.2V52.704C35.2736 52.8213 35.2363 52.9173 35.1616 52.992C35.087 53.0667 34.991 53.104 34.8736 53.104H30.2336L30.0256 55.184C30.2603 55.024 30.5323 54.896 30.8416 54.8C31.1616 54.6933 31.5936 54.64 32.1376 54.64C32.6496 54.64 33.135 54.7253 33.5936 54.896C34.063 55.0667 34.479 55.312 34.8416 55.632C35.215 55.952 35.503 56.336 35.7056 56.784C35.919 57.2213 36.0256 57.7173 36.0256 58.272C36.0256 59.0293 35.839 59.7013 35.4656 60.288C35.103 60.8747 34.575 61.3387 33.8816 61.68C33.1883 62.0107 32.3563 62.176 31.3856 62.176ZM39.3934 62C39.2974 62 39.2174 61.968 39.1534 61.904C39.0894 61.8293 39.0574 61.744 39.0574 61.648C39.0574 61.5947 39.0627 61.552 39.0734 61.52C39.0947 61.488 39.1107 61.4613 39.1214 61.44L41.3774 58.352C41.228 58.384 41.0734 58.4 40.9134 58.4C40.4334 58.368 39.964 58.2613 39.5054 58.08C39.0467 57.888 38.6307 57.632 38.2574 57.312C37.8947 56.9813 37.6067 56.592 37.3934 56.144C37.18 55.696 37.0734 55.1947 37.0734 54.64C37.0734 54.128 37.1694 53.6373 37.3614 53.168C37.5534 52.688 37.8414 52.2613 38.2254 51.888C38.6094 51.504 39.084 51.2 39.6494 50.976C40.2254 50.752 40.892 50.64 41.6494 50.64C42.4067 50.64 43.0734 50.7413 43.6494 50.944C44.236 51.1467 44.7267 51.4293 45.1214 51.792C45.5267 52.144 45.8307 52.5547 46.0334 53.024C46.236 53.4933 46.3374 53.9947 46.3374 54.528C46.3374 55.0187 46.2467 55.472 46.0654 55.888C45.8947 56.304 45.6814 56.6987 45.4254 57.072C45.1694 57.4347 44.9134 57.8027 44.6574 58.176L42.0974 61.68C42.0547 61.7333 41.9907 61.8027 41.9054 61.888C41.82 61.9627 41.692 62 41.5214 62H39.3934ZM41.6814 56.304C42.0014 56.304 42.2894 56.2347 42.5454 56.096C42.8014 55.9573 43.004 55.7653 43.1534 55.52C43.3027 55.2747 43.3774 54.976 43.3774 54.624C43.3774 54.272 43.3027 53.9733 43.1534 53.728C43.004 53.472 42.8014 53.28 42.5454 53.152C42.2894 53.0133 42.0014 52.944 41.6814 52.944C41.372 52.944 41.0894 53.0133 40.8334 53.152C40.5774 53.28 40.3747 53.472 40.2254 53.728C40.076 53.9733 40.0014 54.272 40.0014 54.624C40.0014 54.976 40.076 55.2747 40.2254 55.52C40.3747 55.7653 40.5774 55.9573 40.8334 56.096C41.0894 56.2347 41.372 56.304 41.6814 56.304ZM52.2834 62.16C51.5154 62.16 50.8487 62.0533 50.2834 61.84C49.718 61.616 49.2487 61.312 48.8754 60.928C48.5127 60.544 48.2354 60.096 48.0434 59.584C47.8514 59.072 47.7394 58.5227 47.7074 57.936C47.6967 57.648 47.686 57.3227 47.6754 56.96C47.6754 56.5867 47.6754 56.2133 47.6754 55.84C47.686 55.456 47.6967 55.1147 47.7074 54.816C47.7394 54.2293 47.8514 53.6853 48.0434 53.184C48.246 52.672 48.534 52.2293 48.9074 51.856C49.2914 51.472 49.7607 51.1733 50.3154 50.96C50.8807 50.7467 51.5367 50.64 52.2834 50.64C53.0407 50.64 53.6967 50.7467 54.2514 50.96C54.806 51.1733 55.27 51.472 55.6434 51.856C56.0274 52.2293 56.3207 52.672 56.5234 53.184C56.726 53.6853 56.838 54.2293 56.8594 54.816C56.8807 55.1147 56.8914 55.456 56.8914 55.84C56.902 56.2133 56.902 56.5867 56.8914 56.96C56.8914 57.3227 56.8807 57.648 56.8594 57.936C56.838 58.5227 56.726 59.072 56.5234 59.584C56.3314 60.096 56.0487 60.544 55.6754 60.928C55.3127 61.312 54.8487 61.616 54.2834 61.84C53.7287 62.0533 53.062 62.16 52.2834 62.16ZM52.2834 59.84C52.838 59.84 53.238 59.664 53.4834 59.312C53.7394 58.9493 53.8727 58.464 53.8834 57.856C53.9047 57.5467 53.9154 57.2213 53.9154 56.88C53.926 56.5387 53.926 56.1973 53.9154 55.856C53.9154 55.5147 53.9047 55.2 53.8834 54.912C53.8727 54.3253 53.7394 53.8507 53.4834 53.488C53.238 53.1253 52.838 52.9387 52.2834 52.928C51.7287 52.9387 51.3287 53.1253 51.0834 53.488C50.838 53.8507 50.7047 54.3253 50.6834 54.912C50.6727 55.2 50.662 55.5147 50.6514 55.856C50.6514 56.1973 50.6514 56.5387 50.6514 56.88C50.662 57.2213 50.6727 57.5467 50.6834 57.856C50.7047 58.464 50.8434 58.9493 51.0994 59.312C51.3554 59.664 51.75 59.84 52.2834 59.84Z" fill="#1D3A70"/>
<defs>
<clipPath id="clip0_316_4152">
<rect width="24" height="24" fill="white" transform="translate(31)"/>
</clipPath>
</defs>
</svg>
