<svg width="76" height="69" viewBox="0 0 76 69" fill="none" xmlns="http://www.w3.org/2000/svg">
<g clip-path="url(#clip0_316_4147)">
<path d="M38 21C42.9706 21 47 16.9706 47 12C47 7.02944 42.9706 3 38 3C33.0294 3 29 7.02944 29 12C29 16.9706 33.0294 21 38 21Z" stroke="#1D3A70" stroke-width="2" stroke-linecap="round" stroke-linejoin="round"/>
<path d="M29.6001 9H46.4001" stroke="#1D3A70" stroke-width="2" stroke-linecap="round" stroke-linejoin="round"/>
<path d="M29.6001 15H46.4001" stroke="#1D3A70" stroke-width="2" stroke-linecap="round" stroke-linejoin="round"/>
<path d="M37.5002 3C35.8155 5.69961 34.9224 8.81787 34.9224 12C34.9224 15.1821 35.8155 18.3004 37.5002 21" stroke="#1D3A70" stroke-width="2" stroke-linecap="round" stroke-linejoin="round"/>
<path d="M38.5 3C40.1847 5.69961 41.0778 8.81787 41.0778 12C41.0778 15.1821 40.1847 18.3004 38.5 21" stroke="#1D3A70" stroke-width="2" stroke-linecap="round" stroke-linejoin="round"/>
</g>
<path opacity="0.5" d="M7.21883 39.152C7.29083 39.152 7.35283 39.18 7.40483 39.236L7.90883 39.788C7.55683 40.204 7.12683 40.526 6.61883 40.754C6.11483 40.982 5.50683 41.096 4.79483 41.096C4.17083 41.096 3.60483 40.988 3.09683 40.772C2.59283 40.556 2.16083 40.254 1.80083 39.866C1.44483 39.478 1.16883 39.014 0.972828 38.474C0.776828 37.934 0.678828 37.34 0.678828 36.692C0.678828 36.044 0.780828 35.45 0.984828 34.91C1.19283 34.37 1.48283 33.906 1.85483 33.518C2.22683 33.13 2.67083 32.828 3.18683 32.612C3.70683 32.396 4.28083 32.288 4.90883 32.288C5.52083 32.288 6.06483 32.388 6.54083 32.588C7.01683 32.788 7.43083 33.054 7.78283 33.386L7.36283 33.98C7.33483 34.024 7.29883 34.06 7.25483 34.088C7.21483 34.116 7.16083 34.13 7.09283 34.13C7.01683 34.13 6.92683 34.092 6.82283 34.016C6.72283 33.94 6.58883 33.856 6.42083 33.764C6.25683 33.668 6.05283 33.582 5.80883 33.506C5.56483 33.43 5.26083 33.392 4.89683 33.392C4.46883 33.392 4.07683 33.468 3.72083 33.62C3.36483 33.768 3.05683 33.984 2.79683 34.268C2.54083 34.548 2.34083 34.894 2.19683 35.306C2.05683 35.714 1.98683 36.176 1.98683 36.692C1.98683 37.216 2.06083 37.682 2.20883 38.09C2.35683 38.498 2.56083 38.844 2.82083 39.128C3.08083 39.412 3.38683 39.628 3.73883 39.776C4.09083 39.924 4.47083 39.998 4.87883 39.998C5.12683 39.998 5.34883 39.984 5.54483 39.956C5.74483 39.924 5.92683 39.878 6.09083 39.818C6.25883 39.758 6.41683 39.682 6.56483 39.59C6.71283 39.494 6.85883 39.38 7.00283 39.248C7.03483 39.22 7.06883 39.198 7.10483 39.182C7.14083 39.162 7.17883 39.152 7.21883 39.152ZM14.605 39.926V41H9.67302V32.384H10.951V39.926H14.605ZM20.9068 37.79L19.6288 34.448C19.5368 34.22 19.4448 33.932 19.3528 33.584C19.3088 33.756 19.2628 33.916 19.2148 34.064C19.1708 34.212 19.1268 34.344 19.0828 34.46L17.8108 37.79H20.9068ZM23.4328 41H22.4488C22.3368 41 22.2448 40.972 22.1728 40.916C22.1008 40.86 22.0488 40.788 22.0168 40.7L21.2548 38.702H17.4568L16.6948 40.7C16.6668 40.776 16.6148 40.846 16.5388 40.91C16.4628 40.97 16.3708 41 16.2628 41H15.2788L18.7108 32.384H20.0008L23.4328 41ZM29.4465 33.788C29.4065 33.856 29.3645 33.906 29.3205 33.938C29.2765 33.97 29.2205 33.986 29.1525 33.986C29.0805 33.986 28.9985 33.954 28.9065 33.89C28.8145 33.822 28.6985 33.748 28.5585 33.668C28.4225 33.584 28.2585 33.51 28.0665 33.446C27.8745 33.378 27.6445 33.344 27.3765 33.344C27.1245 33.344 26.9025 33.378 26.7105 33.446C26.5225 33.51 26.3645 33.6 26.2365 33.716C26.1085 33.828 26.0105 33.962 25.9425 34.118C25.8785 34.27 25.8465 34.436 25.8465 34.616C25.8465 34.848 25.9045 35.04 26.0205 35.192C26.1405 35.344 26.2965 35.474 26.4885 35.582C26.6805 35.69 26.8985 35.784 27.1425 35.864C27.3865 35.944 27.6365 36.028 27.8925 36.116C28.1485 36.2 28.3985 36.298 28.6425 36.41C28.8865 36.522 29.1045 36.664 29.2965 36.836C29.4885 37.004 29.6425 37.212 29.7585 37.46C29.8785 37.704 29.9385 38.004 29.9385 38.36C29.9385 38.74 29.8725 39.096 29.7405 39.428C29.6125 39.76 29.4245 40.05 29.1765 40.298C28.9285 40.546 28.6225 40.742 28.2585 40.886C27.8985 41.026 27.4885 41.096 27.0285 41.096C26.7525 41.096 26.4845 41.068 26.2245 41.012C25.9645 40.96 25.7185 40.886 25.4865 40.79C25.2545 40.69 25.0365 40.572 24.8325 40.436C24.6325 40.296 24.4525 40.14 24.2925 39.968L24.6585 39.356C24.6945 39.308 24.7365 39.268 24.7845 39.236C24.8365 39.204 24.8945 39.188 24.9585 39.188C25.0425 39.188 25.1385 39.232 25.2465 39.32C25.3585 39.408 25.4945 39.506 25.6545 39.614C25.8185 39.718 26.0125 39.814 26.2365 39.902C26.4645 39.99 26.7405 40.034 27.0645 40.034C27.3285 40.034 27.5645 40 27.7725 39.932C27.9805 39.86 28.1545 39.76 28.2945 39.632C28.4385 39.5 28.5485 39.342 28.6245 39.158C28.7005 38.974 28.7385 38.77 28.7385 38.546C28.7385 38.294 28.6805 38.088 28.5645 37.928C28.4485 37.768 28.2945 37.634 28.1025 37.526C27.9105 37.418 27.6925 37.326 27.4485 37.25C27.2045 37.174 26.9545 37.096 26.6985 37.016C26.4425 36.932 26.1925 36.836 25.9485 36.728C25.7045 36.62 25.4865 36.48 25.2945 36.308C25.1025 36.132 24.9485 35.914 24.8325 35.654C24.7165 35.39 24.6585 35.066 24.6585 34.682C24.6585 34.374 24.7185 34.076 24.8385 33.788C24.9585 33.5 25.1325 33.246 25.3605 33.026C25.5925 32.802 25.8765 32.624 26.2125 32.492C26.5485 32.356 26.9325 32.288 27.3645 32.288C27.8485 32.288 28.2925 32.366 28.6965 32.522C29.1045 32.674 29.4585 32.894 29.7585 33.182L29.4465 33.788ZM36.4538 33.788C36.4138 33.856 36.3718 33.906 36.3278 33.938C36.2838 33.97 36.2278 33.986 36.1598 33.986C36.0878 33.986 36.0058 33.954 35.9138 33.89C35.8218 33.822 35.7058 33.748 35.5658 33.668C35.4298 33.584 35.2658 33.51 35.0738 33.446C34.8818 33.378 34.6518 33.344 34.3838 33.344C34.1318 33.344 33.9098 33.378 33.7178 33.446C33.5298 33.51 33.3718 33.6 33.2438 33.716C33.1158 33.828 33.0178 33.962 32.9498 34.118C32.8858 34.27 32.8538 34.436 32.8538 34.616C32.8538 34.848 32.9118 35.04 33.0278 35.192C33.1478 35.344 33.3038 35.474 33.4958 35.582C33.6878 35.69 33.9058 35.784 34.1498 35.864C34.3938 35.944 34.6438 36.028 34.8998 36.116C35.1558 36.2 35.4058 36.298 35.6498 36.41C35.8938 36.522 36.1118 36.664 36.3038 36.836C36.4958 37.004 36.6498 37.212 36.7658 37.46C36.8858 37.704 36.9458 38.004 36.9458 38.36C36.9458 38.74 36.8798 39.096 36.7478 39.428C36.6198 39.76 36.4318 40.05 36.1838 40.298C35.9358 40.546 35.6298 40.742 35.2658 40.886C34.9058 41.026 34.4958 41.096 34.0358 41.096C33.7598 41.096 33.4918 41.068 33.2318 41.012C32.9718 40.96 32.7258 40.886 32.4938 40.79C32.2618 40.69 32.0438 40.572 31.8398 40.436C31.6398 40.296 31.4598 40.14 31.2998 39.968L31.6658 39.356C31.7018 39.308 31.7438 39.268 31.7918 39.236C31.8438 39.204 31.9018 39.188 31.9658 39.188C32.0498 39.188 32.1458 39.232 32.2538 39.32C32.3658 39.408 32.5018 39.506 32.6618 39.614C32.8258 39.718 33.0198 39.814 33.2438 39.902C33.4718 39.99 33.7478 40.034 34.0718 40.034C34.3358 40.034 34.5718 40 34.7798 39.932C34.9878 39.86 35.1618 39.76 35.3018 39.632C35.4458 39.5 35.5558 39.342 35.6318 39.158C35.7078 38.974 35.7458 38.77 35.7458 38.546C35.7458 38.294 35.6878 38.088 35.5718 37.928C35.4558 37.768 35.3018 37.634 35.1098 37.526C34.9178 37.418 34.6998 37.326 34.4558 37.25C34.2118 37.174 33.9618 37.096 33.7058 37.016C33.4498 36.932 33.1998 36.836 32.9558 36.728C32.7118 36.62 32.4938 36.48 32.3018 36.308C32.1098 36.132 31.9558 35.914 31.8398 35.654C31.7238 35.39 31.6658 35.066 31.6658 34.682C31.6658 34.374 31.7258 34.076 31.8458 33.788C31.9658 33.5 32.1398 33.246 32.3678 33.026C32.5998 32.802 32.8838 32.624 33.2198 32.492C33.5558 32.356 33.9398 32.288 34.3718 32.288C34.8558 32.288 35.2998 32.366 35.7038 32.522C36.1118 32.674 36.4658 32.894 36.7658 33.182L36.4538 33.788ZM44.9603 36.536C45.2883 36.536 45.5763 36.496 45.8243 36.416C46.0763 36.336 46.2863 36.224 46.4543 36.08C46.6223 35.932 46.7483 35.758 46.8323 35.558C46.9163 35.354 46.9583 35.13 46.9583 34.886C46.9583 34.39 46.7943 34.016 46.4663 33.764C46.1423 33.512 45.6543 33.386 45.0023 33.386H43.7963V36.536H44.9603ZM48.9803 41H47.8403C47.6123 41 47.4463 40.91 47.3423 40.73L45.2123 37.742C45.1443 37.642 45.0703 37.572 44.9903 37.532C44.9103 37.488 44.7903 37.466 44.6303 37.466H43.7963V41H42.5183V32.384H45.0023C45.5583 32.384 46.0363 32.442 46.4363 32.558C46.8403 32.67 47.1723 32.832 47.4323 33.044C47.6963 33.252 47.8903 33.504 48.0143 33.8C48.1423 34.096 48.2063 34.428 48.2063 34.796C48.2063 35.096 48.1603 35.378 48.0683 35.642C47.9763 35.906 47.8403 36.144 47.6603 36.356C47.4843 36.564 47.2683 36.744 47.0123 36.896C46.7563 37.048 46.4663 37.164 46.1423 37.244C46.3023 37.34 46.4403 37.474 46.5563 37.646L48.9803 41ZM55.1466 37.79L53.8686 34.448C53.7766 34.22 53.6846 33.932 53.5926 33.584C53.5486 33.756 53.5026 33.916 53.4546 34.064C53.4106 34.212 53.3666 34.344 53.3226 34.46L52.0506 37.79H55.1466ZM57.6726 41H56.6886C56.5766 41 56.4846 40.972 56.4126 40.916C56.3406 40.86 56.2886 40.788 56.2566 40.7L55.4946 38.702H51.6966L50.9346 40.7C50.9066 40.776 50.8546 40.846 50.7786 40.91C50.7026 40.97 50.6106 41 50.5026 41H49.5186L52.9506 32.384H54.2406L57.6726 41ZM66.2843 32.384V41H65.6363C65.5363 41 65.4523 40.982 65.3843 40.946C65.3203 40.91 65.2543 40.852 65.1863 40.772L60.3203 34.478C60.3283 34.586 60.3343 34.692 60.3383 34.796C60.3463 34.9 60.3503 34.998 60.3503 35.09V41H59.2283V32.384H59.8883C60.0003 32.384 60.0843 32.398 60.1403 32.426C60.1963 32.45 60.2583 32.508 60.3263 32.6L65.2043 38.9C65.1923 38.784 65.1823 38.672 65.1743 38.564C65.1703 38.452 65.1683 38.348 65.1683 38.252V32.384H66.2843ZM70.1738 36.11H70.5938C70.7458 36.11 70.8678 36.092 70.9598 36.056C71.0558 36.016 71.1418 35.95 71.2178 35.858L73.9598 32.672C74.0478 32.564 74.1378 32.49 74.2298 32.45C74.3218 32.406 74.4358 32.384 74.5718 32.384H75.6638L72.4718 36.056C72.3918 36.16 72.3118 36.244 72.2318 36.308C72.1558 36.372 72.0758 36.426 71.9918 36.47C72.2118 36.546 72.4038 36.7 72.5678 36.932L75.8858 41H74.7758C74.6958 41 74.6258 40.994 74.5658 40.982C74.5098 40.97 74.4598 40.954 74.4158 40.934C74.3758 40.91 74.3378 40.882 74.3018 40.85C74.2698 40.818 74.2398 40.78 74.2118 40.736L71.3738 37.376C71.3338 37.324 71.2938 37.28 71.2538 37.244C71.2138 37.208 71.1678 37.18 71.1158 37.16C71.0638 37.136 71.0038 37.12 70.9358 37.112C70.8678 37.1 70.7878 37.094 70.6958 37.094H70.1738V41H68.8958V32.384H70.1738V36.11Z" fill="#1D3A70"/>
<path d="M12.5626 61.376C12.4666 61.376 12.3812 61.344 12.3066 61.28C12.2426 61.2053 12.2159 61.12 12.2266 61.024L12.4506 59.488H11.3146C11.2079 59.488 11.1172 59.4507 11.0426 59.376C10.9786 59.3013 10.9466 59.2107 10.9466 59.104V57.856C10.9466 57.7387 10.9786 57.648 11.0426 57.584C11.1172 57.5093 11.2079 57.472 11.3146 57.472H12.7546L13.0586 55.424H11.7306C11.6239 55.424 11.5332 55.3867 11.4586 55.312C11.3946 55.2373 11.3626 55.1467 11.3626 55.04V53.792C11.3626 53.6747 11.3946 53.584 11.4586 53.52C11.5332 53.4453 11.6239 53.408 11.7306 53.408H13.3626L13.6026 51.856C13.6239 51.7707 13.6612 51.696 13.7146 51.632C13.7786 51.5573 13.8639 51.52 13.9706 51.52H15.2346C15.3306 51.52 15.4106 51.5573 15.4746 51.632C15.5492 51.696 15.5866 51.776 15.5866 51.872L15.3466 53.408H16.9946L17.2346 51.856C17.2559 51.7707 17.2932 51.696 17.3466 51.632C17.4106 51.5573 17.4959 51.52 17.6026 51.52H18.8666C18.9626 51.52 19.0426 51.5573 19.1066 51.632C19.1812 51.696 19.2186 51.776 19.2186 51.872L18.9786 53.408H20.1146C20.2212 53.408 20.3119 53.4453 20.3866 53.52C20.4612 53.584 20.4986 53.6747 20.4986 53.792V55.04C20.4986 55.1467 20.4612 55.2373 20.3866 55.312C20.3119 55.3867 20.2212 55.424 20.1146 55.424H18.6906L18.3866 57.472H19.6986C19.8052 57.472 19.8959 57.5093 19.9706 57.584C20.0452 57.648 20.0826 57.7387 20.0826 57.856V59.104C20.0826 59.2107 20.0452 59.3013 19.9706 59.376C19.8959 59.4507 19.8052 59.488 19.6986 59.488H18.0826L17.8586 61.04C17.8266 61.264 17.6932 61.376 17.4586 61.376H16.1946C16.0986 61.376 16.0186 61.344 15.9546 61.28C15.8906 61.2053 15.8586 61.12 15.8586 61.024L16.0826 59.488H14.4506L14.2266 61.04C14.1946 61.264 14.0612 61.376 13.8266 61.376H12.5626ZM14.7546 57.472H16.3866L16.6906 55.424H15.0586L14.7546 57.472ZM25.6273 62C25.5206 62 25.4246 61.9627 25.3393 61.888C25.2646 61.8133 25.2273 61.7173 25.2273 61.6V53.984L23.0353 55.664C22.9393 55.7387 22.838 55.7653 22.7313 55.744C22.6353 55.7227 22.55 55.664 22.4753 55.568L21.5313 54.336C21.4673 54.24 21.4406 54.1387 21.4513 54.032C21.4726 53.9147 21.5366 53.824 21.6433 53.76L25.3233 50.912C25.3873 50.8693 25.446 50.8427 25.4993 50.832C25.5633 50.8107 25.6326 50.8 25.7073 50.8H27.7073C27.814 50.8 27.9046 50.8373 27.9793 50.912C28.0646 50.9867 28.1073 51.0827 28.1073 51.2V61.6C28.1073 61.7173 28.0646 61.8133 27.9793 61.888C27.9046 61.9627 27.814 62 27.7073 62H25.6273ZM29.9804 63.2C29.8951 63.2 29.8204 63.1627 29.7564 63.088C29.6924 63.024 29.6658 62.944 29.6764 62.848L30.1724 59.712C30.1938 59.5733 30.2471 59.4507 30.3324 59.344C30.4284 59.2267 30.5671 59.168 30.7484 59.168H32.6204C32.7058 59.168 32.7751 59.2 32.8284 59.264C32.8924 59.328 32.9244 59.3973 32.9244 59.472C32.9244 59.536 32.9138 59.6 32.8924 59.664L31.6764 62.752C31.6338 62.8587 31.5698 62.96 31.4844 63.056C31.3991 63.152 31.2711 63.2 31.1004 63.2H29.9804ZM39.7162 62C39.6095 62 39.5135 61.9627 39.4282 61.888C39.3535 61.8133 39.3162 61.7173 39.3162 61.6V59.792H34.3402C34.2335 59.792 34.1375 59.7547 34.0522 59.68C33.9775 59.6053 33.9402 59.5093 33.9402 59.392V57.872C33.9402 57.776 33.9562 57.6907 33.9882 57.616C34.0309 57.5307 34.0735 57.4507 34.1162 57.376L38.7722 51.072C38.9109 50.8907 39.1082 50.8 39.3642 50.8H41.6842C41.8015 50.8 41.8975 50.8373 41.9722 50.912C42.0575 50.9867 42.1002 51.0827 42.1002 51.2V57.408H43.5082C43.6362 57.408 43.7375 57.4507 43.8122 57.536C43.8869 57.6107 43.9242 57.7013 43.9242 57.808V59.392C43.9242 59.5093 43.8815 59.6053 43.7962 59.68C43.7215 59.7547 43.6309 59.792 43.5242 59.792H42.1002V61.6C42.1002 61.7173 42.0575 61.8133 41.9722 61.888C41.8975 61.9627 41.8015 62 41.6842 62H39.7162ZM36.6922 57.52H39.3802V53.744L36.6922 57.52ZM49.5984 62.16C48.7664 62.16 48.0571 62.064 47.4704 61.872C46.8838 61.6693 46.4038 61.4133 46.0304 61.104C45.6571 60.784 45.3798 60.448 45.1984 60.096C45.0171 59.7333 44.9211 59.3867 44.9104 59.056C44.9104 58.96 44.9424 58.88 45.0064 58.816C45.0811 58.752 45.1664 58.72 45.2624 58.72H47.3424C47.4704 58.72 47.5718 58.7467 47.6464 58.8C47.7211 58.8427 47.7904 58.9173 47.8544 59.024C47.9398 59.2267 48.0624 59.392 48.2224 59.52C48.3931 59.648 48.5958 59.7387 48.8304 59.792C49.0651 59.8347 49.3211 59.856 49.5984 59.856C50.1424 59.856 50.5638 59.7333 50.8624 59.488C51.1718 59.232 51.3264 58.8853 51.3264 58.448C51.3264 57.9893 51.1824 57.664 50.8944 57.472C50.6064 57.2693 50.1958 57.168 49.6624 57.168H47.8864C47.7691 57.168 47.6731 57.1307 47.5984 57.056C47.5238 56.9813 47.4864 56.8853 47.4864 56.768V55.872C47.4864 55.744 47.5131 55.632 47.5664 55.536C47.6198 55.44 47.6784 55.3707 47.7424 55.328L50.3664 53.104H45.9184C45.8118 53.104 45.7158 53.0667 45.6304 52.992C45.5558 52.9173 45.5184 52.8213 45.5184 52.704V51.2C45.5184 51.0827 45.5558 50.9867 45.6304 50.912C45.7158 50.8373 45.8118 50.8 45.9184 50.8H53.2784C53.3958 50.8 53.4918 50.8373 53.5664 50.912C53.6518 50.9867 53.6944 51.0827 53.6944 51.2V52.56C53.6944 52.6773 53.6678 52.784 53.6144 52.88C53.5611 52.9653 53.5024 53.0347 53.4384 53.088L51.0064 55.344L51.1184 55.376C51.7264 55.4507 52.2704 55.616 52.7504 55.872C53.2304 56.1173 53.6091 56.464 53.8864 56.912C54.1638 57.36 54.3024 57.9307 54.3024 58.624C54.3024 59.3493 54.0944 59.9787 53.6784 60.512C53.2731 61.0347 52.7184 61.44 52.0144 61.728C51.3104 62.016 50.5051 62.16 49.5984 62.16ZM60.3533 62.16C59.564 62.16 58.8706 62.0693 58.2733 61.888C57.6866 61.7067 57.2013 61.456 56.8173 61.136C56.4333 60.8053 56.1453 60.432 55.9533 60.016C55.7613 59.5893 55.6653 59.1307 55.6653 58.64C55.6653 58.0533 55.8093 57.536 56.0973 57.088C56.396 56.64 56.7693 56.2933 57.2173 56.048C56.844 55.8027 56.556 55.4987 56.3533 55.136C56.1613 54.7627 56.0653 54.3307 56.0653 53.84C56.0653 53.2427 56.22 52.704 56.5293 52.224C56.8386 51.744 57.308 51.36 57.9373 51.072C58.5666 50.784 59.372 50.64 60.3533 50.64C61.324 50.64 62.124 50.784 62.7533 51.072C63.3826 51.3493 63.8466 51.728 64.1453 52.208C64.4546 52.688 64.6093 53.2267 64.6093 53.824C64.6093 54.304 64.5133 54.736 64.3213 55.12C64.1293 55.4933 63.852 55.8027 63.4893 56.048C63.9586 56.2827 64.3373 56.6293 64.6253 57.088C64.9133 57.5467 65.0573 58.0693 65.0573 58.656C65.0573 59.296 64.8813 59.8827 64.5293 60.416C64.188 60.9493 63.6706 61.376 62.9773 61.696C62.284 62.0053 61.4093 62.16 60.3533 62.16ZM60.3533 60.128C60.6946 60.128 60.9986 60.0693 61.2653 59.952C61.5426 59.824 61.7613 59.6533 61.9213 59.44C62.0813 59.216 62.1613 58.9547 62.1613 58.656C62.1613 58.336 62.0813 58.0693 61.9213 57.856C61.7613 57.6427 61.5426 57.4773 61.2653 57.36C60.9986 57.2427 60.6946 57.184 60.3533 57.184C60.012 57.184 59.7026 57.2427 59.4253 57.36C59.148 57.4773 58.9293 57.6427 58.7693 57.856C58.6093 58.0693 58.5293 58.336 58.5293 58.656C58.5293 58.9547 58.6093 59.216 58.7693 59.44C58.9293 59.6533 59.148 59.824 59.4253 59.952C59.7026 60.0693 60.012 60.128 60.3533 60.128ZM60.3533 55.248C60.652 55.248 60.924 55.1947 61.1693 55.088C61.4146 54.9707 61.6066 54.8213 61.7453 54.64C61.884 54.448 61.9533 54.224 61.9533 53.968C61.9533 53.712 61.884 53.488 61.7453 53.296C61.6173 53.104 61.4306 52.9547 61.1853 52.848C60.94 52.7413 60.6626 52.688 60.3533 52.688C60.044 52.688 59.7666 52.7413 59.5213 52.848C59.276 52.9547 59.084 53.104 58.9453 53.296C58.8173 53.488 58.7533 53.712 58.7533 53.968C58.7533 54.224 58.8173 54.448 58.9453 54.64C59.084 54.832 59.276 54.9813 59.5213 55.088C59.7666 55.1947 60.044 55.248 60.3533 55.248Z" fill="#1D3A70"/>
<defs>
<clipPath id="clip0_316_4147">
<rect width="24" height="24" fill="white" transform="translate(26)"/>
</clipPath>
</defs>
</svg>
